<?xml version="1.0" encoding="utf-8"?>
<!-- Generator: Adobe Illustrator 24.3.0, SVG Export Plug-In . SVG Version: 6.00 Build 0)  -->
<svg version="1.0" id="Layer_1" xmlns="http://www.w3.org/2000/svg" xmlns:xlink="http://www.w3.org/1999/xlink" x="0px" y="0px"
	 viewBox="0 0 300 300" style="enable-background:new 0 0 300 300;" xml:space="preserve">
<style type="text/css">
	.st0{fill:#2075BC;stroke:#1C75BC;stroke-miterlimit:10;}
	.st1{fill:#292562;stroke:#262262;stroke-miterlimit:10;}
	.st2{fill:#2A3C90;stroke:#2B3990;stroke-miterlimit:10;}
	.st3{fill:#2A3C90;}
	.st4{fill:#292562;}
	.st5{fill:#BDBEC0;}
	.st6{fill:#010101;stroke:#000000;stroke-miterlimit:10;}
	.st7{fill:#C3996C;}
	.st8{fill:#010101;}
	.st9{fill:#FBB042;}
	.st10{fill:#764D2A;}
	.st11{fill:#2075BC;}
	.st12{fill:none;stroke:#A8AAAD;stroke-miterlimit:10;}
	.st13{fill:#2B3990;stroke:#000000;stroke-miterlimit:10;}
	.st14{fill:#FFFFFF;}
</style>
<path class="st0" d="M104.3,239.7c3.4,0.1,4.1,0,4.2-0.2c0-0.1,0-0.3-1.2-0.8c-1.8-0.9-1.4-1-2-2.9c-0.5-1.9,0.5-3.9,0.9-6.6
	c0.4-2.7,0.7-11.3,1.2-13.2c0.5-1.9,3.6-9.1,5-12.9c1.4-3.8,2.1-7.1,1.5-7.4c-0.6-0.3-3-2.6-5-3.8c-2-1.2-4.8-3.5-4.8-3.5
	c0,0.2-0.2,0.8-0.5,1.5c-0.5,1.2-0.9,2-1,2.2c-0.5,0.9-1.9,4.3-5.9,14.2c-1.3,4.3-3,7.7-4.4,10.1c-2.4,4.1-4.5,6.3-8.9,10.8
	c-0.8,0.8-2.8,2.8-5.7,3.3c-1.7,0.3-2.3-0.1-2.5-0.2c-1.1-0.8-0.5-2.1-1.4-4.5c-0.1-0.3-1.5-3.7-3.8-4.1c-0.2,0-0.1,0-1-0.1
	c-2.1-0.1-2.6-0.4-3.3-0.2c-0.7,0.3-1.2,0.6-1.7,1c-2.5,2.3-1.7,6.2-1.5,6.8c0.1,0.4,0.4,0.8,0.4,0.8c0,0,0.1,0.3,0.3,0.5
	c0.8,1.2,1.8,1.1,3,2.4c0.5,0.5,0.9,1,0.8,1.5c0,0.8-0.8,1.2-1.7,2c-0.9,0.7-2.9,2.5-2.7,3.5c0.5,1.8,8.5,0.9,11,0.5
	c0.4-0.1,1.1-0.2,1.9-0.6c1.4-0.7,2-1.7,2.8-2.7c0.4-0.5,2.9-3.7,6.5-4.5c0.3-0.1,1.2-0.1,2.9-0.2c2.7-0.1,4.1-0.2,5.3,0
	c1.1,0.2,2.7,0.5,4.6,1.5C99.9,235.8,102.1,237.7,104.3,239.7z"/>
<path class="st1" d="M89.8,242.4c3.1-0.1,3.7-0.3,4.6,0.2c0.7,0.3,1.1,0.8,1.7,1.4c2,2.1,2,3.5,3.2,4.8c0.7,0.8,1.8,1.7,5.2,1.8
	c2,0.1,15.3-0.4,15.9,0c0.6,0.4,0.1,2.9,2.1,5c2,2.1,7,4.6,7.7,5.4c0.7,0.7,7.9,5.8,10.1,8.2s2.3,3.5,3.2,4.1
	c0.8,0.6,2.7,0.2,5.2-1.8c2.6-2,6.1-3.6,7.9-4.9c1.8-1.3,15.9-12.4,17.8-13.9c1.9-1.4,1.3-1.8,3.2-2c11.3-1,12.5-0.7,12.5-0.7
	c10.8,0.8,15.4,2.1,16.7,0c0.3-0.5,0.5-1.3,1.8-3.7c0.5-0.9,0.8-1.5,1.4-2c0.3-0.3,1-0.8,2.4-1.2c2-0.6,3.9-0.6,5.4-0.4
	c0.9,0.2,2,0.6,3.1,1.5c1.6,1.5,2.1,2.7,2.6,4.5c0.4,1.6,3.1,1.7,5.7,1.7s14.2,0,14.2,0l24.8-0.1c0,0-0.9-1.2-3.4-3.4
	c-2.5-2.2-6.8-6.6-8.4-7.9s-2.6-2.7-3.4-4.5c-0.8-1.8-0.3-7.7-0.4-9c0-1.3-1.6-7.4-2.1-8c-0.5-0.5-1.9-3-3-3.8s-5.7-2.2-6.2-2.2
	c-0.4,0-3.5,0-4.8,0c-1.3,0-2.7-0.1-4,0.8c-1.3,1-6.6,3.4-6.8,3.6c-0.3,0.2-1.6-1.2-3.1-3.5c-1.5-2.4-3.9-7.7-4.3-8.4
	c-0.4-0.8-1.4-4.5-1.8-5.4c-0.4-0.9-2.2-7-2.8-8.3c-0.6-1.3-0.7-2-1.1-2.5c-0.4-0.5-0.6-0.8-1.5,0c-1,0.4-2,0.8-3,1.3
	c0.6,1.1,1.4,2.7,2.2,4.8c0.9,2.2,1,3.5,2,5.8c0.2,0.5,2.4,6.6,2.8,7.6c0.4,1.1,3.5,7.8,3.8,8.4c0.3,0.6,2.3,3.7,3,4.7
	c0.7,0.9,2.5,2.4,3.3,2.4c0.8,0,1.1,0.1,2.1-1.5c1.1-1.6,1.3-2.9,2.9-3.7c1.6-0.8,2.7-1.2,4-1.3c1.3,0,8,1.1,8.7,1.4
	s2.1,1.2,2.9,2.4c0.7,1.2,2.3,3.4,2.3,4.5c0,1,0.2,4.1,0.3,5.2c0,1.1-0.8,2-0.9,2.6c-0.1,0.7-0.9,2.3,0,3.4c1,1.1,3.1,3.5,4.1,4.4
	c1,0.9,2.6,2,3.7,3.1c0.1,0,0.8,0.4,0.8,1c0,0,0,0.2-0.1,0.4c-0.3,0.5-0.7,0.8-0.9,0.8c-1.4,0.8-3,0.7-3,0.7
	c-7.6-0.6-12.2-0.3-16.3-0.3c-1.4,0-7.6,0.2-8.5,0c-0.2,0-0.6-0.1-0.9-0.3c-0.2-0.1-0.4-0.3-1.1-1.1c-0.3-0.3-0.4-0.5-0.5-0.6
	c-1.5-1.8-2.1-3.3-3.8-4.3c-0.5-0.3-0.9-0.4-1.3-0.6c-1.4-0.5-2.6-0.5-3.3-0.5c-4.4-0.1-6.7-0.1-7.4,0.4c-0.2,0.2-0.1,0.1-2.2,2.6
	c-0.2,0.3-0.6,0.7-1.1,1.4c-0.5,0.6-0.6,0.8-0.8,1.1c-0.2,0.3-1,1.3-2.2,1.8c-1,0.4-1.8,0.4-3.2,0.4c-0.6,0-0.7-0.1-1.9-0.1
	c-1,0-1.7-0.1-2.2-0.1c-2.5,0-6.9-0.1-9.4-0.2c-1.1,0-2.8-0.1-4.9-0.2c0,0,0.3-0.4,1.6-1.7c0,0,2.8-3.2,3.3-4
	c0.5-0.8,2.1-3.2,2.7-3.9c0.6-0.7,2.6-4,2.9-5.4c0.3-1.4,0.8-4.8,0.8-5.6c0.3-3.3-0.3-5.6-0.9-8.9c-1.4-8-2.7-7.7-3.4-11.2
	c-0.1-0.3-0.2-1.3-0.9-1.6c-0.7-0.3-1.5,0.1-1.9,0.3c-0.7,3.1-0.5,5.4-0.2,6.9c0.4,2.1,0.9,2.4,2,6.2c0.8,2.7,1.2,4.1,1.3,6.1
	c0.1,2.8-0.7,4.9-0.9,5.4c-0.9,2.6-2.3,3.6-5.8,7.3c-4.6,4.7-3.7,4.3-8,8.6c-1.7,1.7-3.8,3.8-6.7,6.3c-5.3,4.5-6.4,4.6-10.2,8.1
	c0,0-2.9,2.7-5.2,4.4c-0.3,0.2-0.6,0.4-1.9,1.4c-1.2,0.9-1.4,1.1-1.9,1.3c-1.8,1.1-2.4,1-2.7,1c-0.5-0.1-0.8-0.3-1-0.5
	c-2.4-1.7-3.5-4-3.5-4c-0.4-0.8-4.4-4.3-12.6-11.3c-1.5-1.3-2.8-2.4-4.3-3.9c-0.9-0.9-1.6-1.6-2.9-2.9c-0.2-0.2-0.7-0.7-1.4-1.4
	c-0.6-0.6-1-1-1.2-1.3c-0.4-0.5-0.7-0.9-0.9-1c-0.2-0.2-1.3-1.6-2.1-2.6c-1.1-1.2-2.4-2.8-3.8-3.9c-0.1-0.1-0.6-0.5-1.3-1
	c-0.7-0.6-1-0.9-1.2-1.1c-1.1-1.2-0.7-2.4-1.4-2.7c-0.6-0.3-1.6,0.6-2.2,1.3c-2.3,2.9-0.3,7.6,0.6,8.4c0.4,0.4,0.4,0.3,2,1
	c4.1,1.9,5.8,3.8,6.5,4.7c0.7,0.9,1.3,1.6,0.9,1.9c-0.3,0.2-4.9,0.2-7.7,0.1c-2.8-0.1-6.3-1.2-7.3-2.6c-1-1.4-2.3-3.2-3.4-3.7
	c-1.2-0.6-3.8-1.7-5-1.6c-1.2,0.1-8,1.3-8.6,2.2s-3.4,4.5-3.7,4.7c-0.4,0.3-5.7,0.7-6.6,0.6c-0.8,0-10.2-0.2-10.8-0.1
	c-0.6,0-5.1,0.1-8.1,0c-3-0.1-4.9,0-5.4-0.1s0.4-0.5,1.9-1.9c1.6-1.4,2.7-3.1,3.9-3.7c1.2-0.7,4.4-5,4.3-5.4
	c-0.1-0.4,0.4-0.8-0.7-2.7c0,0-1-2.9-1.2-3.7c-0.2-0.8,0.7-5,0.7-5.5c0-0.9,0.7-1.9,1.7-3.1c1.4-1.7,2.9-2.4,3.3-2.5
	c0.7-0.3,1.6-0.6,4.5-0.6c4,0,6.1-0.1,7.2,0.7c1.1,0.8,2.5,2.4,4.1,4.2c0.3,0.3,1.1,1.3,1.8,1.1c0.2-0.1,0.4-0.2,0.4-0.3
	c1-1.3,2.4-2.4,3.3-3.9c1.8-3.3,3-3.2,5.6-7.7c0.6-1.1,1.6-3.3,3.6-7.9c0.2-0.6,0.5-1.2,0.8-2c0.2-0.6,0.3-0.9,0.6-2
	c0,0,0.2-0.7,0.5-1.6c1.3-4.3,3-7.7,3-7.7c0.9-1.8,1.5-2.8,1.1-3.9c-0.2-0.6-0.7-1-1-1.2c-0.2-0.3-0.6-0.7-1-1.1
	c-0.7-0.6-1.4-0.8-1.9-1c-0.2,1.2-0.6,2.9-1.1,4.7c-0.3,1-0.3,3.6-2.1,6.8c-0.8,1.3-4.9,11.2-5.4,12.5c-0.4,1.2-3.6,6.3-4.2,7.3
	c-0.6,1-1.1,1.6-2,1.6s-3.1-1.5-4.5-2.4c-2.3-1.5-4.6-1.6-5-1.6c-1.8-0.2-3.4,0-4.4,0.2c-0.4,0.1-1.7,0.3-3.2,0.8
	c-1.6,0.5-5.8,1.6-7.9,5.5c-1.1,2.2-1.7,3.9-2.4,7.4c-0.3,1.6-0.6,3.1-0.4,5.2c0.2,2.4,0.8,2.9,0.7,4.2c-0.2,2.7-3.4,4-5.4,6.1
	c-1.3,1.4-10.2,9.5-10.2,9.5s0.3,0.8,2.4,0.8c2.2,0,12.4,0.1,12.5,0.1c0.1,0,12-0.1,12-0.1l10.1-0.1c5.7,0.6,7.4-0.2,7.9-1.2
	c0.2-0.4,0.1-0.9,0.6-2.4c0.4-1.3,0.9-2,1.1-2.3c0.5-0.8,0.7-1.1,1.1-1.5C86.6,242.4,87.2,242.5,89.8,242.4z"/>
<path class="st2" d="M48.6,245.6c3-3.2,5.5-5.6,7.2-7.2c1.5-1.4,2.6-2.4,2.8-4c0.2-1.7-0.8-2.2-1.2-5c-0.2-1.7-0.1-2.9,0.1-4.2
	c0.3-1.9,0.5-3.7,1.6-5.2c0.3-0.4,0.9-1.3,1.8-1.8c0.2-0.1,0.6-0.3,1.1-0.7c0.5-0.4,0.5-0.4,0.8-0.5c0.5-0.3,0.9-0.3,1.5-0.4
	c1.3-0.2,1.9-0.3,2.1-0.3c0.3,0,1.4-0.1,3.1-0.1c1.7,0,2.6,0.1,2.8,0.1c1.6,0.2,2.1,0.4,2.3,0.5c0.2,0.1,0.4,0.3,1.5,1.5
	c0.9,1,1.2,1.5,2,2.4c1.2,1.4,1.5,1.5,1.7,1.5c0.6,0.1,1.3-0.3,2.6-1.9c1.5-1.7,1.8-2.6,3-4.3c1.6-2.3,1.8-1.9,3.4-4.2
	c0.5-0.7,1.5-2.1,2.3-4.1c0.4-0.8,0.5-1.2,1.4-3.3c0.6-1.4,0.8-1.7,1-2.3c1.2-2.8,0.9-3.8,1.9-6.7c0.6-1.8,0.7-1.6,2-4.9
	c0.9-2.2,1.5-4.1,1.9-5.3c0.4,0.6,1,1.3,1.9,2.1c1.3,1.1,2.2,1.4,2.3,2.3c0.1,0.5-0.2,0.7-0.7,1.8c-0.4,0.9-0.5,1.3-0.9,2.5
	c-0.6,1.8-2.5,6.7-3.4,9.3c-0.4,1.2-5.9,12.4-6.5,13.7c-0.5,1.2-3.9,7.3-5.2,8.4c-1.4,1.1-3.5,3.3-4.1,3.9c-0.6,0.6-3,1.4-5.1,1.5
	c-2.1,0.1-3.3-0.2-3.7-0.5c-0.4-0.3-0.7-3-1-4.5s-1.4-3.3-2.4-3.5s-6-0.4-6.8,1c-0.1,0.1-1.7,1.9-1.4,4.2c0.3,2.5,2.7,4.5,3.3,4.9
	c1,0.8,2.3,1.6,2.1,2.3c-0.1,0.2-0.2,0.3-0.3,0.4c0,0-2.6,1.8-4.1,3.7c-0.6,0.7-0.7,1.1-0.6,1.3c0.2,0.3,0.7,0.3,0.9,0.3
	c2.3,0,4.7,0.1,7,0c2,0,3.1,0.2,4.5-0.6c0.5-0.2,0.8-0.5,1-0.6c2.2-1.7,1.9-3.3,3.7-4.6c0.4-0.3,1.2-0.6,2.7-1.1
	c0.8-0.3,1.7-0.6,2.2-0.7c0.5-0.1,2.5-0.6,7.4-0.2c2.4,0.2,3.6,0.3,4.2,0.6c1.8,0.8,2.6,1.9,5.4,4c0.2,0.2,0.6,0.5,1.1,0.9
	c0.9,0.8,0.9,1.1,1.2,1.3c0,0,0.1,0.1,0.2,0.1c0.5,0.4,2.4-0.3,3.9,0c0.5,0.1,0.9,0.3,1.7,0.7c0.7,0.4,1.2,0.7,1.9,1.2
	c0.7,0.5,1.3,0.9,2,1.6c0,0,0.6,0.6,1.3,1.6c0.1,0.1,0.2,0.3,0.3,0.5c0.2,0.4,0.5,0.8,0.5,1c-0.1,0.6-3.4,0.6-6.4,0.5
	c0,0-6-0.2-7.9-1.8c-0.1-0.1-0.2-0.2-0.3-0.3c-0.2-0.2-0.3-0.3-0.4-0.4c-0.2-0.3-0.4-0.4-0.6-0.7c-0.5-0.5-0.8-0.9-1-1.1
	c-0.5-0.6-2.1-2-4.1-2.8c-3.7-1.5-7.4,0-8.4,0.3c-2.3,0.9-3.9,2.5-5.1,3.7c-1.2,1.1-1.2,1.4-1.8,1.9c0,0-2.6,2.4-15.7,0.7l-12.5-0.1
	C50.8,245.7,49.7,245.6,48.6,245.6z"/>
<path class="st3" d="M106.5,222.4c0-1.8,0.2-3.8,0.6-6.1c0.8-4.2,2.4-7.6,3.7-9.9c1.3-2.7,1.9-5.1,2.3-6.7c0.4-1.9,0.4-2.8,1.1-3.3
	c0.9-0.6,1.8-0.1,6.9,1.9c3.1,1.2,4.2,1.5,4.4,2.5c0.1,0.8-0.3,2.1-1,2.1c-1.1,0-2,0.2-3.1,0.3s-1.1,0.2-2.1,0.3
	c-0.9,0.1-1.2,2.7-1.2,2.7c-0.4,1.1-1.5,4.1-2.5,7.2c-0.3,0.9-0.7,2.1-1.1,3.8c-0.2,0.9-0.3,1.4-0.4,1.8c-0.3,2.4,0.6,3.7-0.2,4.4
	c-0.1,0.1-0.1,0.1-1.2,0.8c-0.3,0.2-0.5,0.4-0.7,0.5c-0.4,0.3-1,0.7-1.6,1.2c-0.7,0.6-1.1,0.8-1.4,1.1c-0.1,0.1-0.2,0.2-0.4,0.4
	c-0.5,0.6-0.7,1.1-0.8,1.3c-0.4,0.9-1.6,1.7-2,1.5C105.5,230,105.3,228.5,106.5,222.4z"/>
<path class="st2" d="M201.3,239.7c0.2-0.2,3.2-3.5,4.7-4.8s4.1-2.1,5.1-2.3c1-0.2,6.6-0.1,8.6,0c2,0.1,4.1,0.2,5.7,1.7
	c1.1,1.1,3,3.2,4.6,4.6c0.4,0.3,0.9,0.8,1.6,0.9c0.3,0.1,0.8,0.1,1,0.2c0.1,0,0.5,0.1,1,0.1c1.3,0,3.6-0.1,4.8-0.1
	c0,0,1.8-0.1,3.5-0.2c0.1,0,0.4,0,0.9-0.1c1.7-0.1,0.5,0,0.9-0.1c0.1,0,0.2,0,0.3,0c0.1,0,0.2,0,0.2,0c0,0,0.1-0.1,0.2-0.2
	c0.2-0.3-1.9-1.7-1.9-1.7s-2.5-1.7-3.9-3.2c-0.1-0.1-0.2-0.2-0.2-0.3c0-0.5,0.8-0.7,2.1-1.7c0.5-0.4,0.8-0.7,1.4-1.3
	c0,0,0.2-0.2,0.6-0.6c0.2-0.3,0.3-0.4,0.3-0.4c0.1-0.2,0.2-0.4,0.2-0.7c0,0,0.1-0.3,0.1-0.5c0.4-4.2-1-6-1-6
	c-0.4-0.5-1.6-1.9-3.3-1.9c-1.1,0-2.5,0.5-3.3,1.4c-0.8,0.8-2.1,1.9-2.3,2.9c-0.2,1-0.8,4-0.8,4.5c-0.1,0.5-0.2,0.6-1.4,0.7
	c-1.2,0.1-6.7-1.6-8.1-2.5c-1.4-0.9-3.5-3.1-4.7-5.1c-1.2-2-5.5-7.6-6.2-9.1c-0.7-1.7-0.6-1.5-2.9-6.7c-0.5-1.2-1-2.2-1.6-3.8
	c-0.9-2.3-0.8-2.5-1.5-4.2c-1.7-4.5-3.2-5.5-2.5-6.9c0.2-0.5,0.9-1.1,2.4-2.1c1.2-0.9,1.7-1.3,2.2-1.3c1.3,0.1,2.1,2.6,3,5.3
	c0.8,2.7,0.5,2.6,1.3,5.4c0.3,1.1,0.9,2.6,2.1,5.6c0.6,1.5,0.9,2.3,1.1,2.8c0.4,0.9,1.4,3.5,3.2,6.8c0,0,1.1,2,2.8,4.6
	c0.5,0.8,1.2,1.8,2.4,2.4c1,0.5,2.2,0.7,2.5,0.3c0.1-0.1,0.2-0.3,0.3-0.4c0.2-0.3,0.2-0.5,0.3-0.5c0.2-0.4,0.4-0.6,0.8-1.1
	c0.5-0.7,0.5-0.9,1-1.6c0.1-0.2,0.3-0.3,0.5-0.5c0.2-0.2,0.5-0.4,0.7-0.5c0.9-0.6,1.7-1,2.3-1.1c1-0.3,1.7-0.3,1.9-0.3
	c0.5,0,1.1,0,2.4,0.2c0.2,0,0.5,0.1,0.9,0.1c0.4,0.1,0.6,0.1,1,0.2c0.3,0.1,0.6,0.1,1.3,0.2c1.2,0.2,1.9,0.3,2.5,0.4
	c0.3,0.1,0.6,0.2,0.6,0.2c0.4,0.1,0.6,0.2,0.8,0.3c0.1,0,0.4,0.2,0.8,0.5c0.2,0.2,0.4,0.3,0.6,0.5c0,0,0.3,0.3,0.6,0.6
	c0.7,0.8,1.4,2,1.7,2.6c0,0,0.4,0.7,0.8,1.8c0,0.1,0.1,0.3,0.2,0.5c0,0.2,0,0.4,0,0.5c0,0.3,0,0.6,0.1,0.9c0,0.3,0.1,0.9,0.1,1.8
	c0.4,1.7,0.2,2.7-0.1,3.4c-0.2,0.4-0.7,1.3-1,2.6c-0.1,0.2-0.1,0.4-0.1,0.6c0,0.7,0.2,1.2,0.8,2c0.6,0.8,1.1,1.3,1.4,1.7
	c0.4,0.5,1.2,1.2,2.2,2.3c1.2,0.9,2.1,1.7,2.6,2c0.2,0.1,0.3,0.3,0.5,0.4c0.3,0.2,0.5,0.5,0.6,0.6c0.1,0,0.9,0.5,0.9,1.2
	c0,0.3-0.2,0.5-0.4,0.7c-0.9,0.9-2.1,1.1-2.2,1.1c-2.4,0.4-5.1,0.2-5.5,0.2c-1.2-0.1-3-0.2-5.3-0.2c-3-0.3-5.3-0.2-6.9-0.1
	c-5.2,0.3-7.6,1.2-9.7-0.4c-0.3-0.2-1-1-2.5-2.6c-1.4-1.5-1.8-2-2.7-2.7c-0.5-0.3-1.4-1-2.7-1.3c-1.4-0.4-1.9-0.1-4.3-0.3
	c-0.2,0-0.7-0.1-1.4,0c-0.2,0-0.3,0-1.2,0.1c-1.6,0.2-1.9,0.3-2.2,0.5c-0.2,0.1-0.4,0.3-0.6,0.5c-0.6,0.6-0.7,0.9-1.3,1.7
	c-0.3,0.4-0.3,0.3-0.9,0.9c-0.5,0.6-0.6,0.8-1.1,1.4c-1,1.2-1.5,1.8-2.4,2.3c-0.2,0.1-0.6,0.3-1,0.4c-1.3,0.4-2.2,0-3.4-0.2
	c-0.3,0-1.3-0.1-3.2-0.1c-4.4-0.1-6.6-0.2-8.8-0.1c-2.7,0-5.5,0.1-5.6-0.4c0-0.1,0.1-0.3,0.5-0.7c0.3-0.4,0.5-0.5,0.8-0.9
	c0.7-0.6,2-2.2,2.8-3.3c1.7-2.2,2.9-4.1,3.7-5.4c0.9-1.4,1.6-2.6,2.1-3.5c0.6-1.7,0.9-3.1,1-4.2c0.4-2.3,0.3-4.2,0.3-5.5
	c0-1.4-0.1-2.4-0.3-3.8c-0.2-1.2-0.6-2.4-1.3-4.8c-0.2-0.7-0.3-1.1-0.6-1.9c-0.4-1.5-0.4-1.7-0.7-2.7c-0.2-0.8-0.6-2.3-1.4-3.9
	c-0.4-0.9-0.9-1.6-1.2-2.1c1.1-0.3,2.3-0.8,3.4-1.6c0.7-0.5,0.9-0.7,1.4-0.8c1.5-0.1,2.8,2.8,3.2,3.7c0.6,1.3,0.9,3.2,1.4,4.5
	c0,0.1,0.1,0.2,0.2,0.5c0.2,0.7,0.4,1.3,0.5,1.7c1.4,3.7,2.1,6.8,2.3,8.5c0.2,1.7,0.2,3.3,0.2,3.3c0,0.5,0,1.1-0.1,1.7
	c-0.1,0.7-0.2,2.9-0.9,4.9c-1.4,4.4-5,7.2-6.7,8.4c0,0-2.5,2.1-1.9,2.4c2.5,1,5.4,0.5,5.4,0.5C197.1,240.3,198.9,240,201.3,239.7z"
	/>
<path class="st0" d="M191.6,200.6c2.5,3.6,3.4,5.3,3.6,6.2c0,0.1,0.2,0.6,0.4,1.3c0.3,0.9,0.5,1.4,0.7,2c0.3,0.9,0.5,1.4,0.8,2.6
	c0.3,1,0.7,2.4,1.3,4.2c0.1,0.3,0.1,0.8,0.2,1.4c0.2,1.2,0.3,1.6,0.4,2c0.1,0.4,0.2,1.2,0,3.1c-0.3,2.8-0.4,4.1-1,5.5
	c-0.4,0.9-1.1,2.2-2.6,3.6c-1.3,1.6-2.7,3.2-4,4.8c-0.7,0.8-1.4,1.6-2,2.4c0.3,0.2,0.8,0.5,1.4,0.8c1.8,0.7,3.6,0.4,6.9-0.2
	c1.5-0.3,1.8-0.4,2.4-0.4c0.1,0,0.8,0,1.4-0.2c0,0,0,0,0.1,0c2.1-1,1.9-2.1,5.1-4.7c0.9-0.8,2.1-1.9,3.7-2.1c0.3,0,1.3-0.2,2.4-0.2
	c0.3,0,0.8,0,1.4,0c0.6,0,0.7,0,1.2,0c0.8,0,0.9,0,1.9,0c1,0,1.5,0,2.2,0c0.3,0,0.1,0,1.7,0.2c1,0.1,1.5,0.1,2.1,0.4
	c0.3,0.1,0.5,0.2,0.6,0.3c0.9,0.4,1.4,1,1.6,1.1c0.6,0.5,1,1,1.1,1.2c0.1,0.1,0.2,0.3,0.3,0.3c0.4,0.5,1,1.3,1.8,2
	c0.5,0.4,1.5,1.4,2.6,1.9c1.4,0.6,1.9,0.2,4.8,0.2c0,0,5.7,0,8.2-0.5c0,0,0.2,0,0.2-0.1c0.1-0.2-0.4-0.6-0.6-0.8
	c-1.1-1-2.9-2.3-3.7-2.9c-1.6-1.2-1.6-1.6-1.6-1.7c0.1-0.6,0.8-0.7,2-1.6c0.8-0.6,1.9-1.3,2.5-2.5c0.8-1.4,0.5-3,0.2-4.3
	c-0.2-0.9-0.4-2-1.3-3.1c-0.5-0.6-1-0.9-1.4-1.1c-0.2-0.1-0.5-0.3-0.8-0.4c-1-0.3-2-0.1-2.4,0c-0.7,0.2-1.1,0.5-1.6,0.8
	c-0.8,0.5-1.7,1.1-2.3,2.2c-0.3,0.6-0.5,1.2-0.5,1.4c-0.1,0.2-0.1,0.6-0.3,1.4c0,0.2-0.1,0.5-0.1,0.8c-0.1,0.4-0.1,0.4-0.1,0.6
	c-0.1,0.6-0.2,1-0.3,1.3c-0.1,0.3-0.2,0.5-0.2,0.5c-0.1,0.1-0.3,0.3-1.4,0.3c-0.4,0-0.9-0.1-1.6-0.2c-0.6-0.1-1-0.3-1.2-0.3
	c-2.8-0.9-2.5-0.8-2.9-0.9c-1.7-0.7-2.9-1.7-3.4-2.1c-0.5-0.5-0.9-0.9-1.2-1.2c-1.2-1.3-1.7-2.1-3.6-4.9c-0.8-1.1-0.7-1-1.1-1.6
	c-0.3-0.5-2.1-3.1-3.7-6c-1.6-3-2.4-5.4-3.4-7.9c-1.2-3.1-2.1-5.8-2.8-7.8c-0.3-0.9-0.7-1.7-1.1-2.6c-0.4-0.9-0.7-1.7-1.1-2.5
	c-0.3,0.2-0.7,0.6-1.2,1c-0.9,0.7-1,0.8-1.6,1.3c-0.6,0.5-0.6,0.6-1.2,1.1c-0.5,0.4-0.9,0.7-1.1,0.9c-0.5,0.4-0.8,0.6-1.4,1.1
	c-0.3,0.2-0.4,0.3-0.5,0.4c-0.4,0.3-0.9,0.7-2,1.2C193.9,199.7,192.9,200.2,191.6,200.6z"/>
<path class="st4" d="M118.2,219.7c0,0,0.8-4.8,1.6-6.8c0.8-2,0.9-5.2,1.8-5.5c0.9-0.3,11.9,0,12.3,0s5.8-0.9,5.8-0.9l0.8-1.4
	c0,0-3-0.2-5.3-1c-2.3-0.7-4.1-1.3-6.5-1.7c-2.4-0.4-3-1.4-3-1.4l-1.5,1.4c-1.1-0.2-3.6-0.4-5.2,1.1c-0.8,0.7-1.1,1.6-1.2,2.1
	c-0.8,2.8-1.8,6.1-2.9,10l-1,4.9c0.1,0.9,0.1,1.8,0.2,2.7c0.5-0.1,1.3-0.3,2.1-0.9C117.5,221.5,118,220.2,118.2,219.7z"/>
<path class="st5" d="M109.4,231.4c0,0-2-2.1-1.2-3.4c0.8-1.3,5.2-4.3,5.6-4.5c0.4-0.3,3-2,4.2-2.5c1.2-0.5,2.6,0.5,3.3,0.8
	c0.6,0.3,1.2,0.7,0.5,1.2c-0.7,0.5-1.9,1.1-1,1.4c0.9,0.3,1.6,0.9,2.8,1c1.2,0,0.8-1,2.9,0.8c2,1.7,3,3.4,4,4.4c1,1,2,2,0.7,2.8
	c-1.2,0.8-2.4,2.4-2.4,2.9c0,0.4,0,1.3,1.2,1.1c1.3-0.3,1.2-0.9,2.9-1.3c1.6-0.4,2.3-1,3.4-1s1.2-0.4,0,1.2s-1.7,1.5-1.6,3.1
	c0.1,1.6-1.6,2.9,0.4,2.9s2.9,0,3.5-1.3c0.6-1.3-0.4-2.2,1.1-2c1.5,0.2,2.3-0.3,3.3,1.1c1,1.3,3.9,3.8,5.6,5.8
	c1.7,1.9,10.5,8.9,11.1,9.4c0.6,0.5,0.2,1.2-1.1,1.8c-1.3,0.6-4.2,3.5-5,4.3c-0.7,0.8-2.8,2.1-3.5,2.6c-0.7,0.5-3.9,2.5-4.2,2.5
	c-0.3,0-3.2-1.2-3.8-2.2s-3.5-4.7-4-5.2c-0.5-0.5-6.6-5.6-6.6-5.6l-7.1-6.4l-5.3-5.4l-4.3-5.1c0,0-3.2-3.1-3.6-3.4
	C110.8,232.7,109.4,231.4,109.4,231.4z"/>
<path class="st0" d="M112.1,163.9c0.2-0.2,8-19.1,8-19.1l7.1-20.3l7.9-21c0,0,0.7-1.3,1.5-3.1c0.6-1.2,1.4-3.1,2-5.4
	c0.2-0.7,1.6-7-0.5-9.2c-0.7-0.8-1.6-1.1-1.6-1.1c-0.8-0.3-1.6-0.2-1.9-0.2c-0.9,0.1-4.1,0.4-6.5-0.5c-0.4-0.2-2.6-1-3.2-2.9
	c-0.1-0.3-0.3-1,0-1.8c0.3-0.7,0.9-1.3,1.9-1.8c1.6-0.8,5-1.5,6.3-1.2c1.3,0.3,4.2,2,5.2,3c0.9,0.9,3.5,2.4,4.4,3
	c0.9,0.6,5.9,2,8.2,2c2.4,0,10-0.3,11.7-1c1.6-0.8,5.9-5,7.2-6.1c1.3-1.2,5.6-1.3,7.3-0.9c1.7,0.4,2.9,0.8,3.2,2.8
	c0.1,0.6,0.4,1.7,0.1,2.7c-0.6,1.9-3.2,2.5-3.8,2.6c-2,0.5-2.4-0.3-5,0.1c-1.5,0.2-2.9,0.4-3.9,1.6c-0.9,1.1-0.9,2.6-1,3
	c-0.1,0.6,0,1.3,0.3,2.1c0.9,2.6,3.7,10.7,5.1,13.2c1.4,2.5,7.8,20.1,7.9,20.3c0.1,0.2-0.7,1.2-2.4,3.1c-1.7,1.9-3.4,4.1-4.4,5.2
	c-0.4,0.5-0.3,1.4-0.8,1.5c-0.3,0.1-0.8-0.1-1.8-1.4c-2-2.6-2.4-5.3-2.4-5.3c0,0-1.5-4.9-4.6-14.6c-0.8-2.5-2.3-6.3-4.9-10.2
	c-0.5-0.8-1.5-2-3.1-2.5c-2.7-0.8-5.7,0.7-6.5,1.6c-1.7,1.9-23.7,61.5-23.7,61.5s-1.2,0.7-4.5,0.7c-3.2,0-8.7,0-8.7,0L112.1,163.9
	L112.1,163.9z"/>
<path class="st3" d="M126.6,160.8c0,0,5.8-16.1,6.4-18c0.6-1.8,3.8-11.1,3.8-11.1s4.3-12.8,4.3-13c0.1-0.2,3-6.8,3-6.8l3-6.4
	c0.1-0.6,0.7-2.4,2.4-3.8c2.5-1.9,5.4-1.3,5.8-1.2c1.6,0.4,2.6,1.2,3,1.6c0.9,0.8,1.4,1.7,1.6,2.1c4.6,9.5,5.6,12.6,5.6,12.6
	c1.3,4.5,2.1,7.3,2.5,9.3c0,0.1,0.3,1.3,0.9,3c0.4,1,0.8,2,1.4,3.2c0.2,0.4,0.3,0.5,0.4,0.6c1.4,2.7-2.9,7.9-3.9,10.8
	c-0.4,1.2-1.5,2.3-1.5,2.3s-1-1.9-1.8-4.3c-0.5-1.2-0.8-2.1-1.1-3.1c-1.1-3.5-1.7-5.7-2.5-8.2c-0.8-2.6-1.3-4.3-2.1-6.6
	c-2.3-6.9-2.7-6-2.9-8.2c-0.1-1.3-0.5-2.5-0.9-2.6c-0.3-0.1-0.6,0.4-0.8,0.6c-1.4,2-2,4.3-2.3,5.6c-0.3,1.2-0.9,2.4-1.3,3.6
	c-3.6,11-4,13.3-6,18.7c-2.9,7.6-5.2,11.4-5.3,13.3c0,0.3-0.1,1.8-1,2.8c-0.1,0.1-0.3,0.3-0.5,0.4c-4.3,2.2-8.2,2.7-8.2,2.7
	C127.9,160.9,127.3,160.9,126.6,160.8z"/>
<path class="st2" d="M108.7,159.4c0.6,0.3,1.5,0.8,2.7,1c0.9,0.2,1.7,0.2,2.3,0.1c2.3-5.5,4.7-11,7-16.5c0,0,2.2-6,3.3-8.9
	c1.1-3,4.9-13.7,5.4-15.2c0.6-1.5,4.8-12.8,4.8-12.8s4.7-11.6,4.9-12.5c0.1-0.9,0.5-5.6,0.4-6.8c-0.2-1-0.6-2.1-1.6-2.8
	c-0.9-0.6-2-0.7-4.2-0.6c-2.2,0-2.4,0.3-3.9,0.1c-1-0.2-1.6-0.5-2.9-1.2c-0.3-0.2-0.7-0.4-1-0.9c-0.1-0.2-0.1-0.5-0.1-0.8
	c0-1,0.1-2,0.7-2.3c0.6-0.3,2.1-1,2.5-1.1c0.4-0.1,2.9-0.8,3.8-0.7c0.9,0.1,2.3,0.2,2.9,0.9c0.7,0.7,3.8,2.7,5.2,3.6
	c1.5,0.9,4.1,2,5.7,2.4c1.6,0.4,3.8,0.7,5.5,0.6c1.6-0.1,7.6,0.1,9.1-0.8c1.5-0.8,3.4-2.4,4.1-3c0.7-0.6,2.6-2.8,3.6-3.2
	c1.1-0.4,3.5-0.9,4.7-0.7c1.3,0.1,2.8,0.1,3.6,0.8c0.8,0.7,1.2,1.2,1.3,2.5c0.1,1.3,0.1,2.1-0.4,2.5c-0.6,0.4-2.4,1-3.7,1.1
	c-1.3,0.1-3.8-0.1-5,0.3s-2.1,0.5-2.6,1.4c-0.5,1-1.5,3-1.3,4.5c0.1,1.5,1.3,4.2,1.6,4.9c0,0,0.9,2.5,1.4,3.7
	c0.5,1.2,3.4,7.9,3.6,8.4c0.2,0.6,4.4,11.6,4.5,11.8c0.1,0.3,1.5,4,1.5,4s0.9-1,2-2.7c1-1.6,2.6-2.1,2-3.3c-0.5-1.2-2.6-3.6-3.3-5.4
	c-0.7-1.8-3.3-10-4.1-11.2c-0.8-1.1-2.1-7.4-2.9-8.7c-0.8-1.2,2.4-0.9,4.1-1.1c0,0,3.8-0.3,4.8-1.3s3.2-3.9,3.4-5
	c0.3-1.2,0-6.9-0.6-7.8c-0.6-0.9-5-4.6-6.3-4.9c-1.2-0.3-11.1-0.8-12.2-0.5c-1.1,0.3-2.9,2.5-3.7,3.4c-0.8,0.9-2,2.3-3.2,2.8
	c-1.2,0.5-3.6,1-7.1,0.4c-3.5-0.7-7.3-4.7-8.7-5.3c-1.4-0.5-4.3-0.6-5.7-0.6c-1.4-0.1-7.3-0.3-8.3,0c-1,0.3-5.1,3.6-6.2,5
	c-1.8,2.1-1.2,4.7-1.1,5.6c0.1,1.1,0.3,4,2.5,5.8c0,0,2.7,2.2,7.6,1.8c0.1,0,0.4,0,1.1,0c0.8,0,1.2,0,1.5,0.3c0.1,0,0.2,0.2,0.3,0.3
	c0.4,0.7-0.3,1.9-0.4,2.1c-0.7,1.6-4.6,10.5-5.2,11.6c-0.6,1.1-3.9,11.8-4.7,13.3c-0.8,1.5-6.5,17.6-7,18.9
	c-2.5,6.8-4.1,11.4-7,18.7C109.6,157.3,109.1,158.6,108.7,159.4z"/>
<path class="st4" d="M120.4,116.1c0,0,4.1-9.5,4.5-10.5c0.4-1,2.5-8.2,2.7-9.3c0.2-1.1-2.7-2.1-3.6-2.6c-0.9-0.4-3.4-2.6-4.4-3.5
	c-1-0.8-2.4-4.3-3.1-5.8c-0.7-1.5,0.1-6.2,0.8-7.6c0.7-1.4,2.9-4.9,2.9-5.8c0-0.9-0.5-0.9-1.6-1.8c-1.1-1-0.9-2.3,1.1-1.3
	c2,1,4.9,1.9,6.5,2.2c1.7,0.3,3,0.7,2.9,1.2c-0.2,0.5-1.8,2-1.8,2l-4.1,3.4c-0.4,0.3-0.9,0.9-1.3,1.6c-1.3,2.5-0.3,5.2,0.4,7.2
	c1,2.7,2.1,3.4,2.4,3.6c0.4,0.3,0.8,0.4,1.7,0.6c1.6,0.5,3.3,1,5.4,0.8c1.4-0.1,2-0.4,2.5,0c0.6,0.5,0.4,1.7,0.3,2.2
	c-0.3,1.5-1.2,2-2.4,4.8c0,0.1,0,0.1-0.1,0.2c-1.8,4-4.6,12.3-5.9,16.1c-0.8,2.3-1,3-1.3,3.8c-1.1,3-2,4.9-2.6,6.3
	c-0.9,2.1-2.1,5.1-3.3,9.2c-1.7,4.6-3.4,9.3-5,13.9c-1.1,2.6-2.2,5.3-3.3,7.9c-0.6,1.5-1.1,3-1.7,4.5c-1.2,0.2-2.8,0.2-3.6-0.7
	c-1.1-1.3,0.2-3.9,1.2-6.1c1.4-3.1,1.2-3.3,1.6-4.9c0.7-2.9,3-8.9,3.2-9.3c2.4-5.7,1.5-4.4,5.2-13.2
	C117.5,122.7,118.8,119.5,120.4,116.1z"/>
<path class="st1" d="M185.9,116.1c0,0-3.3-8.9-4-10.1c-0.7-1.1-3.7-9.3-3.3-9.9c0.4-0.6,2.7-1.5,4.1-2.3c1.4-0.8,4.8-4.4,5.7-5.8
	c0.9-1.4,1.5-4.8,1.5-6.7c0.1-2-2.1-7.2-2.9-8.6c-0.7-1.4,0-2.9,0.7-3.5c0.7-0.6-0.3-1.8-0.3-1.8s-2.4,0.5-3.6,1
	c-1.2,0.5-4.9,1.4-5.8,1.7c0,0-0.2,0-0.3,0.2c-0.4,0.5,0.6,2.1,1.2,2.9c0.4,0.5,0.8,0.9,1.1,1.2c0.9,0.8,1.6,1.2,1.8,1.4
	c1.9,1.3,2.6,4.5,2.7,6.6c0,0.9,0.1,2.5-0.7,4c-0.3,0.6-0.7,1.1-1.1,1.6c-0.8,1-1.5,1.9-2.5,2.5c-0.9,0.5-2.2,0.6-4.6,0.8
	c-2.9,0.2-3.4-0.1-3.7,0.4c-0.4,0.6,0.1,1.5,1.8,6.1c0.1,0.3,0.3,0.8,0.5,1.5c0.4,1.2,0.5,1.7,0.7,2.5c0.5,1.8,0.8,1.9,1.9,4.8
	c0.3,0.7,0.4,1.2,0.7,1.9c1.2,3.5,1.1,3.8,1.7,5.3c0.3,0.7,1.9,4.7,3.4,4.5c0.2,0,0.3-0.1,0.6-0.3
	C184.2,117,185.1,116.4,185.9,116.1z"/>
<path class="st4" d="M139.8,152.3c0.1-0.3,7.7-12.4,8.7-14.3c0.9-1.9,3.8-10,3.9-10.2c0.1-0.2,1.1-2.3,2.4,1.9
	c1.2,4.2,3.1,9.1,3.5,10c0.4,0.9,5.2,6.8,5.2,6.8l1.5-0.5l-2.7-6.8l-2.6-9.1l-3.8-11.3c-0.5-1.8-1.1-3.6-1.6-5.4
	c-0.1-0.6-0.3-1.3-0.6-1.3c-0.2,0-0.7,0.2-1.7,2.6c-0.5,1.2-1.2,3-1.8,5.2l-1.5,4.2l-5.3,16.9c-1.6,3.8-3.2,7.5-4.8,11.3
	c-0.6,2.3-0.8,3.6-0.6,3.6C138.2,155.8,138.8,154.7,139.8,152.3z"/>
<path class="st6" d="M190.5,201.3c2.4-0.8,4.2-1.8,5.3-2.5c0,0,6.9-5.6,6.9-5.6c0.5-0.4,1.2-1.1,2.1-1.8c0.6-0.4,1.9-1.5,3.9-2.5
	c2.5-1.4,3.1-1.2,3.3-1.1c0.8,0.3,1.1,1.4,1.2,2c1.5,5.6,2.3,8.4,3.9,9.5c1.3,0.9,1.8-0.1,4.8,0.3c1.4,0.2,4.9,2.3,7.2,4.2
	c2.3,1.9,3.2,5.8,4.6,4.3c0.4-0.4,0.3-2.4,0.3-2.4s1.2,1.7,1.5,2.2c0.3,0.5,0-5.4,0-5.4s1.7,0.5,3,2.1s1-1.4,2.1-0.8
	c1.1,0.5,2.6,1.7,2.9,1.8c0.4,0.1,2.4,0.7,1.7,0c-0.7-0.7-4.5-6.6-4.8-7.3c-0.2-0.7-8.4-11.6-9.7-12.8c-1.2-1.2-9.6-7.4-9.6-7.7
	c-0.1-0.2,2.1-1.8,3.5-3.2c1.4-1.4,0.5-3.4,4.6-3.9c4.1-0.5,4.5-1.2,6.2,0.4c1.7,1.5,3.5,3,5.5,2.9c2-0.1,2.1-1.5,3.7-1.2
	s2,0.9,3.9,1.7c2,0.8,3.6,1.5,5.2,1c1.6-0.5,3.6-1.7,4.6-1.7c1,0,5.8,2.9,7.4,3.6s3.7,0.7,5.8,2.8c2.1,2.1,5.5,4.5,7.6,5.7
	c2.1,1.2,2-0.6,4.7,0.2c2.7,0.8,2.9,1.1,6.2,3.2c3.3,2,5.1,3.6,6.7,3.3s1.8-2.6,0.5-4.2c-1.4-1.6-8.1-12.5-9.2-13.7
	c-1.1-1.2-6.2-8.5-7.3-9.7c-1-1.2-1.3-3.1-2-3.9c-0.7-0.8-8.8-10.8-10.1-12c-1.3-1.2-7.6-8.1-8.7-8.9c-1.1-0.8-4.3-5.1-6.2-6
	c-1.9-1-9.8-6.9-10.9-7.6c-1.1-0.7-13.1-8.6-15.3-9.7c-2.1-1.2-6.7-3.7-9.2-4.5c-2.5-0.7-7.7-1.7-10.1-1.4
	c-3.1,0.3-7.2-0.3-12.3,0.9c-2.9,0.7-8.1,1.9-13.3,5.7c-5.3,3.9-8.1,8.5-10,11.6c-2,3.3-3.1,5.1-4.2,8.1c-1.6,4.3-1.7,6.9-3.4,7.4
	c-1.8,0.5-4-1.6-5.1-2.6c-1.6-1.5-2.3-2.9-2.9-3.9c-1.1-2-2.9-4.8-5.8-8c-0.3,1.1-0.9,2.6-1.8,4.3c-1.1,2.3-1.8,2.9-1.5,3.8
	c0.4,1.2,2,1.1,5.1,2.7c3.6,1.9,4.9,3.8,5.1,4.2c0.7,1.1,1.7,3,1.1,3.6c-0.5,0.5-1.8-0.3-6.3-2.1c-3.9-1.6-4.8-1.8-5.8-1.5
	c-1.3,0.5-1.8,1.6-2.9,3.4c0,0-2.6,4-6.8,7.3c-0.9,0.7-3.9,2.9-8.2,4.1c-2.6,0.7-4.6,0.8-7.4,0.8c-3.5,0.1-7,0.2-11.4-1
	c-5-1.3-9-3.8-10.3-4.5c-2.4-1.5-2.6-2.2-4.3-2.5c-1.7-0.3-7-0.2-8.9-0.3s-5.3-0.5-6-1c-0.7-0.4-2.9-1.9-3.4-1.9
	c-0.5,0-4-0.3-5.3,0.5s-1.6,2.8-2,4.2c-0.4,1.4-1.8,2.6,0,3.2c1.8,0.6,3.2,0.3,5,0.3c1.8,0,3.7,1,5.4,2.8c1.6,1.9,6.9,6.9,6.8,7.1
	c-0.1,0.3-0.3,1-1.4,1c-1.2,0-2.6-1.4-5-2.4c-2.4-1-6.3-3.5-7.7-3.4s-2.5,1.5-1.1,2.8c1.4,1.2,7.7,7.2,9.5,8.8
	c1.8,1.6,2.8,1.2,5.5,2.9c2.8,1.8,4.6,1.7,6.9,3.3c2.2,1.6,3.8,2.5,4.6,3.7c0.8,1.2,4.5,5,4.5,5c0.7,0.4,5.1,3.4,8.5,5.5
	c0.6,0.4,1.6,1,3,1.5c1.1,0.4,1.5,0.5,3,0.9c3.7,1,5.7,1.5,6.8,2.9c0.1,0.2,0.6,0.8,1.4,1.2c0.7,0.4,1.2,0.5,1.7,0.7
	c0,0,0.9,0.2,4.2,1.1c1.7,0.4,1.7,0.6,3.1,1c0,0,0.5,0.2,1,0.3c0.5,0.1,2.8,0.7,5.1,0.6c1.8,0,3.2-0.4,6.1-1.1
	c0.7-0.2,1.6-0.4,2.8-0.5c0.7,0,0.9,0,1.6,0c0.5,0,1.2-0.1,2.5-0.5c1.7-0.5,2.6-0.9,4.6-1.4c0.7-0.2,1-0.2,1.5-0.1
	c0.4,0.1,1,0.3,2.1,1.6c1.5,1.9,1.8,3,3,3.3c0.3,0.1,0.5,0.1,0.7,0.1c1.4-0.1,1.8-1,3.3-1.7c0.8-0.3,1.5-0.4,3-0.5
	c1-0.1,1.1,0,2.2-0.1c1.1-0.1,1.3-0.3,2-0.2c0.3,0,0.8,0.1,1.5,0c0.2,0,0.4,0,0.7,0c2-0.2,1.9-0.9,5-0.9c1.1,0,2.5-0.3,2.5-0.3
	l3.4-1.2C190.1,201.6,190.3,201.4,190.5,201.3z"/>
<path class="st6" d="M106.8,152c0-0.1,2.3-6.6,2.3-6.7c0.1-0.3,4.9-14,5-14.3c2.7-6.3,5.3-12.7,8-19c0,0-7.4-6.5-8.4-6.9
	c-1-0.4-2.4-1.5-6.4-2c-4-0.5-3.7,1.1-6.4-1.8c-2.7-2.9-10.4-7.5-12.4-8.8c-2-1.3-9.3-3.6-12.2-3.8c-3-0.2-9-1.3-11.4-1.7
	c-2.4-0.4-5.1-2.6-7.1-3.1c-2-0.5-17.1-2.6-20.3-2.1c-3.2,0.5-9.9,1.5-12.2,2.5s-13.6,5-14.9,6.3c-1.3,1.3-3.8,3.2-3.5,5.5
	c0.4,2.3,0.2,4.3,2.1,5.4c1.9,1.1,2.1,1,4.8-0.2c2.6-1.2,2.9-3.2,6.4-3.5c3.6-0.2,9.2-0.1,12.1,0.8c3,1,10.4,1.5,13.8,2.9
	c3.5,1.3,7.6,2.6,9.8,4.3c2.1,1.7,10.1,7.4,11.9,9.3c1.8,1.9,7.6,7.3,8.7,8.6c1.1,1.3,5.1,4.9,6.4,7.1c1.3,2.3,3.6,5.6,5.7,8
	c2.1,2.4,4.9,6.4,9.2,8.8c2.7,1.5,3.5,2,4.2,2.3c0.4,0.2,0.9,0.4,1.5,0.7C104.8,151.2,106,151.7,106.8,152z"/>
<path class="st7" d="M134,163.5c0,0,2.3,1.9,3.2,4.4c0.8,2.5,3.2,7.8,3.3,9.2s1.5,10,1.7,12.1c0.2,2,0.1,4.4-1.1,5.9
	c-1.2,1.5-3.3,2-5.5,2.3c-2.2,0.2-2-0.2,0.2,1.5c2.1,1.7,3.8,2.8,3.1,2.9c-0.7,0.1-1.8-0.3-3.1-0.7c-1.2-0.4-2.8-1.9-3.9-2.3
	c-1.1-0.3-4.4-1.6-7.6-2.2c-3.2-0.6-7.6-2.8-8.8-3.3c-1.2-0.5-8.8-3.8-11.4-5.5c-2.6-1.7-3.1-3.9-4.6-4.9c-1.5-1-7.6-5.7-8.9-6.6
	c-1.3-0.8-3.6-0.9-6.1-2.5s-7-5.7-8.2-7c-1.1-1.3,0.7-1.2,2.6-0.1c1.8,1.2,3.2,2.1,6,2.7c2.8,0.7,5.8,1.5,5.8,0.5
	c0.1-1.1-0.3-1.6-2.2-3.5c-1.9-1.8-4.6-4.3-6.5-6.6c-2-2.3-1.7-3.9-4-4s-2.6,0.8-3.7,0.4c-1.1-0.4-2.6-1.1-1.4-1.8s1.1-1.8,2.7-1.8
	c1.6,0.1,2.6-1.1,4.2,0c1.5,1.1-0.1,1.4,2.7,1.6c2.8,0.2,9.8-0.1,11.4,0.1c1.6,0.2,1-0.8,4.4,1.5c3.3,2.3,4,3.3,6.6,4.3
	c2.6,1,3.9,2,6.8,2.7s5.7,1,9.5,1.1c3.8,0.2,10,0.4,11.2-0.1C133.7,163.8,134,163.5,134,163.5z"/>
<path class="st8" d="M91.8,161.5c1.9,0.7,3.5,1.3,4.6,2c1.2,0.7,2,2.4,4.1,3.7c2.1,1.2,7.4,4,7.9,4c0.6,0-0.6,0.5-2,0
	c-1.4-0.5-2.3-0.8-4.1-1.8c-1.8-1-1.8-1.4-3.7-1.4s-4.1-0.1-5.9-0.7c-1.7-0.6-2.7-1.1-2.1-2.1C91.2,164.1,91.8,161.5,91.8,161.5z"/>
<path class="st8" d="M107.1,164.6c0.4,0.2,4.4,2.8,5.8,2.9c1.4,0.1,8.9,1,10,0.8c1.1-0.2-0.9-1.2-2.9-1.8c-2.1-0.6-9.3-1.8-10.9-2.2
	c-1.5-0.4-3.8-1-3.6-0.5c0.2,0.5,2,0.9,2,0.9L107.1,164.6L107.1,164.6z"/>
<path class="st8" d="M100.2,174.2c0.9,0.6,6,4.5,7.1,5.8c1.1,1.2,2.8,4,1.6,3.7c-1.2-0.4-4.3-1.4-5.9-2.9c-1.6-1.5-4.1-4.6-4.3-5.5
	C98.3,174.3,100.2,174.2,100.2,174.2z"/>
<path class="st8" d="M103.9,184.3c0.4,0.3,6.3,4.3,7,4.5c0.7,0.2,2.4-0.9,0-2.2s-5.2-3.4-6-3.6C104.1,182.7,103.9,184.3,103.9,184.3
	z"/>
<path class="st8" d="M94.8,160.5c0.5,0.1,2.8,0.8,3.7,1.7c0.9,0.9,1.9,2.6,2.1,2.9c0.2,0.3-2-0.7-2.3-1c-0.3-0.3-1.5-1.2-2.3-1.9
	c-0.8-0.7-1.2-1.2-1.2-1.2L94.8,160.5L94.8,160.5z"/>
<path class="st8" d="M112.1,183c1.3,0.5,5.9,3.8,6.5,4.3c0.6,0.5-0.4,0.3-0.4,1.6s2,1.9,2.7,2.8c0.6,0.9,3.3,3.1,3.3,3.1
	s-0.4,1.6-2.9-0.3s-6.7-4.2-6.9-5.2c-0.3-1-2.2-5.7-2.2-5.7"/>
<path class="st8" d="M119.8,220.3c0.2,0,19.9-12.7,19.9-12.7l3.4-2.6l3.7-0.8l7.4-1.2l6.4-1.9l3.9,3.9l2.6,0.7l3.9-1.4l7.3-0.5
	l7.4-1.2l-0.7,5l0.9,4.7c0.2,0.3,0.4,0.8,0.7,1.5c0,0,0.6,1.4,1,3c0.6,2.2,1.7,6.3,0.9,9.8c-0.5,2.3-1.7,3.5-5.5,7.5
	c-3,3.1-10.3,10.8-11.7,12.2c-3.2,3.4-5.4,5.2-7.1,6.4c-1.6,1.2-2.5,2.7-4,2.7c-1.9,0-3.3-2-3.9-2.9c-3.5-2.5-6.1-4.8-7.9-6.5
	c-1.4-1.3-2.7-2.7-3.9-4.2c-0.7-0.9-1.4-2.1-3-2.7c-0.5-0.2-1.4-0.5-2.1-0.1c-0.9,0.5-0.5,1.6-1.3,2.5c-1.2,1.3-3.9,1.2-4.4,0.4
	c-0.2-0.3,0.1-0.5,0.4-1.7c0.3-1.4,0-1.4,0.3-2.1c0.6-1.4,1.9-1.7,1.7-2.4c-0.1-0.3-0.3-0.4-0.4-0.5c-0.5-0.3-1.2,0.1-1.9,0.5
	c0,0-1.1,0.6-3.5,1.4c-1.7,0.6-2,0.5-2.2,0.3c-0.4-0.4,0-1.3,0.1-1.5c0.2-0.5,0.4-0.8,0.6-1.2c0.8-1.2,1.5-1.1,1.7-1.8
	c0.3-0.7-0.1-1.3-0.8-2.5c-0.2-0.3-0.4-0.6-2.6-3.1c-0.6-0.7-1.4-1.6-2.2-1.8c-0.4-0.1-0.9-0.2-0.9-0.2c-0.5-0.1-0.9-0.1-1-0.1
	c-0.3,0-2.7-0.2-3-1.1c0-0.2,0-0.3,0.1-0.5c0.4-0.9,1.6-1.1,1.5-1.4c0-0.1-0.1-0.1-0.2-0.1c-0.8-0.2-1.4-0.7-1.7-1
	C120,221.1,119.8,220.8,119.8,220.3z"/>
<path class="st9" d="M90.1,175.3c0.4-0.3,1.6-2.1,2-2.8c0.7-1-0.5-2.2-0.8-2.7c-3.1-4.9-4.7-7.3-5-7.9c-1.9-3.4-1.5-5-3.8-7.4
	c-0.8-0.8-1.6-1.4-2.4-1.8c-0.3-0.2-3.6-1.6-6,0c-0.1,0.1-2,1.3-1.6,2.6c0.3,0.9,1.6,1.4,2.6,1.3c0.1,0,0.1,0,0.6-0.2
	c0,0,1-0.2,1.7-0.3c1.3-0.2,3.5,2.5,4.6,3.9c3.4,4.3,2.9,3.8,3.4,4.3c0.8,0.9,4,4.4,4.1,5c0.1,0.7,0.6,1.2-1,0.8
	c-1.6-0.4-3.5-0.5-4.9-1.1c-1.5-0.6-6.2-4-6.7-4c-0.5,0-1.6,0.6-1.6,0.8c0,0,0,0.1,0,0.2c0.1,1.2,1.8,2.2,1.8,2.2
	c3,2,5.3,4.9,7.4,5.7c0.2,0.1,0.8,0.3,1.7,0.8c0.5,0.3,0.6,0.4,0.8,0.5C87.5,175.6,88.5,175.8,90.1,175.3z"/>
<path class="st7" d="M136.9,241.5c0.5-0.2,0.8-3.9,2.9-4.8c2.1-0.9,8.6-6.2,10.5-7.6c2-1.4,5.5-3.8,6.2-4.8c0.7-1-0.7-2.7-2.8-1.1
	c-2,1.6-1.5,2.8-3.9,2.1c-0.5-0.2-1.5-0.4-2-1c-0.7-0.8,0-1.7,0.1-3.8c0-0.5,0.1-4.4-2.1-5.8c-0.4-0.3-0.7-0.4-0.9-0.3
	c-1.4,0.6,1.9,8.9-0.7,10.8c-0.6,0.4-1.6,0.7-2.1,0.8c-1.3,0.3-2.2,0.2-2.7,0.3c-3.7,0.9-9.4,3.7-5.5,3.6c3.9-0.2,6.2-1.1,7.1-1
	c1,0.1,0.9,0.8-2.5,2.7c-3.4,1.9-4.5,4.5-0.4,2.7c4.1-1.8,6.2-3.2,6.2-3.2s-7.3,6.1-7.8,6.6C136.1,238.3,136.9,241.5,136.9,241.5z"
	/>
<path class="st7" d="M151.3,232.7c1.2-1.1,1-1.9,2.4-2.5c1.4-0.6,2.9-0.7,6-0.7s6.8,3.4,7.5-0.5c0.4-2.1,0.3-4.9,0.2-5.6
	c-0.1-0.5-0.2-1.1,0.1-1.3c0.3-0.3,1-0.1,1.4,0.3c0.3,0.2,0.8,0.8,1.1,4.1c0.1,1.6,0.1,2.1,0.6,2.5c0.3,0.2,0.8,0.2,1.9,0.1
	c2.5-0.4,1.9-1.2,3.9-2.4c2-1.2,4.3-1.5,4.3-0.3c-0.1,1.2-1.6,2.7-3.6,4.2s-7.8,6-9,7.4c-1.1,1.4-5.7,4.4-7.5,5.6
	c-1.8,1.2-3.7,1.4-4.7,1.5c-1,0.1-2.7-0.6-0.8-1.5c1.9-0.9,8.5-4.4,10.1-6.2c1.5-1.7,2.6-2.7,0.6-2.6c-2,0.2-1.4,0.1-3.2,1.3
	s-3.8,2.2-5.7,2.9c-1.9,0.7-3.1,0.9-5,1.2s-2.7,0.4-1.6-0.9s0.5-2.5,2.8-3c2.3-0.5,4.4-1,7.3-1.7s5.2-1.4,4.8-1.6
	c-0.4-0.2-0.5-0.5-5.2-0.3c-1.9,0.1-3.4,0.1-4.4,0.2c-0.5,0-1.3,0.1-2.5,0.1C152.3,232.9,151.7,232.8,151.3,232.7z"/>
<path class="st7" d="M164.4,206.2c-0.4,0.6,0.2,2.7,0,4.9s-0.1,4.6,0.8,6.7c0.9,2.1,2.5,5.4,2.5,5.4s4.5-0.1,6.4-0.1
	c2,0,5.2,0.5,2.8-1.3c-2.4-1.8-5.4-3.2-4.7-4.3c0.7-1.1,3.3-0.6,4.7,0.3c1.4,0.8,4.6,1.6,5.6,1.5c1-0.2-5.8-3.6-7.6-4.6
	c-1.8-1-5.9-2.4-4-2.5c1.9-0.1,5,1,6.7,1.5c1.7,0.5,2.2-0.1,0-1.5c-2.2-1.4-5.4-2-4.2-3c1.2-1,9.1-0.4,10.2-1.7
	c1.1-1.2,3-2.8,1.2-2.9c-1.9-0.2-3.9-0.6-3.9-0.6s-5.4,0.6-7,0.9c-1.6,0.3-2.4,1.4-4.3,1.8c-1.9,0.4-3,1.1-3.5,0.5
	C165.4,206.5,164.4,206.2,164.4,206.2z"/>
<path class="st7" d="M141.3,208.4c0,0,0.8,4.6,2.1,5.8c1.3,1.2,4.1,1.5,6.4,2.9c2.3,1.4,3.9,1.5,4.9,1.4s1.5-1.3-1.6-2.9
	c-3.1-1.5-6.6-2.6-2.5-1.8c4.1,0.8,6.1,0.9,6.6,0.6c0.5-0.3-5.4-2.3-7.1-4s-1.2-1.8-0.8-1.9c0.3-0.1,12.3-1.1,13.1-1.1
	c0.8-0.1,0.4-2-0.4-3c-0.8-1-1.7-2-3.2-1.7c-1.5,0.4-3,1.9-5.9,1.4c-2.9-0.4-4.5-1.7-5.3-0.2c-0.8,1.5-3,2.7-4,3.1
	S141.3,208.4,141.3,208.4z"/>
<path class="st8" d="M128.6,212.8"/>
<path class="st10" d="M175,184.3c0,0,1.3,6.3,1.6,6.8c0.4,0.5,1.5,0.2,1.6-2.2c0.1-2.4,0.1-5.6,0-6.1c-0.1-0.5,0.3-1.6-0.9-1
	C176.1,182.4,175,184.3,175,184.3z"/>
<path class="st10" d="M181.3,182.2c0,0,2.2,4.7,2.3,5.9c0.1,1.2,0,2.5-1.1,2.2c-1.2-0.3-2.8-1.2-2.8-2.3c0.1-1.1-0.4-5.8-0.4-5.8
	H181.3z"/>
<path class="st10" d="M185.3,181.6c0,0,1.2,1.9,1.6,3.7c0.4,1.8-0.6,3.4-1.1,2.4c-0.5-0.9-3.1-4.9-3.2-5.5c-0.1-0.6,2.4-0.3,2.4-0.3
	L185.3,181.6z"/>
<path class="st10" d="M189,179.9c0.2,0.7,2.9,4.1,3.6,5.2c0.7,1.2,0.7,2.6-0.3,2.8c-1,0.2-2.7,0.2-3.3-0.7c-0.6-0.9-3.1-7.4-3.1-7.4
	L189,179.9L189,179.9z"/>
<path class="st10" d="M193.9,180.2c-0.1-1.1-1.2-2.9-2.4-2.3c-1.2,0.6-1.1,2.3-1.1,2.3l3.8,6.2c0,0,3.5,0.2,3-0.8
	c-0.5-0.9-2-2.7-2.3-3.5S193.9,180.2,193.9,180.2z"/>
<path class="st10" d="M199.2,179.3c-1.8-1.5-2.4-3.1-3.2-3.2c-0.8-0.1-2.3,0.5-2.1,0.8c0.2,0.3,1.4,4,1.4,4.1s2.2,2.9,2.2,2.9
	l1.9-1.8L199.2,179.3z"/>
<path class="st10" d="M198.3,173.2c0.1,0,3,0.8,3.3,1.7c0.4,1.1,1.2,3.2,0,3.5c-1.2,0.2-1.4,0.4-2.7-0.5c-1.3-1-2.5-2.3-2.1-3.1
	s0.8-2.2,1.1-2C198.3,172.8,198.3,173.2,198.3,173.2z"/>
<path class="st10" d="M201.3,168c0.3,0.1,3.6,2.9,3.7,3.6c0.1,0.7,0.9,1.3,0,1.8c-0.9,0.5-2.2,0.6-2.8,0.4c-0.6-0.2-3.7-1.7-3.3-2.6
	c0.4-0.8-0.8-3,0.3-3.2C200.3,167.8,201.3,168,201.3,168z"/>
<path class="st10" d="M201.8,165.6c0,0,0-4.3,0.4-4.5c0.3-0.2,1.1-0.1,2.1,0.8c1,0.9,3.1,2.6,3.2,3.6c0.1,1.1-0.2,3.2-0.4,3.5
	c-0.1,0.3-0.5,1.5-1,1.8c-0.5,0.3-3.6-3-3.6-3L201.8,165.6z"/>
<path class="st10" d="M204.4,160c0-0.1,2.7-5.5,3-5.6c0.4-0.1,1.8,0.3,2.8,1.8c1,1.5,3.4,3.3,3.5,4.2s0.6,2-0.6,2.9
	c-1.2,0.8-2.6,2.2-2.9,2.3c-0.3,0.1-2.5-0.3-2.6-0.4C207.6,165,204.4,160,204.4,160z"/>
<path class="st10" d="M208.2,152.9c0.1-0.2-0.5-4.4,1.7-3.7c2.2,0.7,10.4,8.3,10.8,8.6c0.4,0.4,0.7,2.3,0.2,2.2
	c-0.5-0.1-4-1.3-5.7-2.2s-3.7-2.1-4.5-2.8C210,154.4,208.2,152.9,208.2,152.9z"/>
<path class="st10" d="M210.6,148.2c1.1-0.7,3.8-2.7,4.8-2.3c1,0.4,8.7,7.1,9.7,8.6s2.1,2.7,0,2.9c-2.1,0.2-2.3,0.1-4.3-1.4
	c-2.1-1.4-4.6-3.7-5.5-4.4C214.3,151,210.6,148.2,210.6,148.2z"/>
<path class="st10" d="M217,145.4c0.7-0.4,0.3-3.9,4-0.8s9.8,8.6,11.2,9.8s0.8,2.7,0.2,3.1c-0.6,0.4-1.9-0.1-2.7-0.8
	c-0.8-0.7-3.5-2.7-4-3C225.3,153.6,217,145.4,217,145.4z"/>
<path class="st10" d="M222.4,143.9c0,0,4.3,1,4.9,1.4c0.5,0.4,3.5,1.8,5.5,3.8s5.2,7.3,5.2,7.5c-0.1,0.2,0.2,1.5-1.5,0
	c-1.8-1.5-5-4.3-5-4.3l-9-7.9c0,0,17.3,1.5,18.1,1.4c0.8-0.1,5.8,1.3,6.4,2c0.6,0.7,7.1,6.2,8.4,7.4c1.4,1.2,3.5,4,3.5,4
	s-3.4,1.2-4.2,0.8c-0.8-0.4-7.3-4.2-7.8-4.4c-0.5-0.2-4.4-0.2-5.7-0.2c-1.3,0-2.1-0.4-2.7-0.8C237.9,154.2,222.4,143.9,222.4,143.9z
	"/>
<path class="st10" d="M246.7,145c0.2,0.2,13.8,14.1,15.2,14.7c1.4,0.6,7.3,1.8,6.7,0.3s-2.4-4.4-4.2-5.4
	c-1.8-1.1-13.6-10.9-14.6-11.5c-1-0.7-4.6-1.2-4.8-2.5s0.1-3.1-0.7-3.5c-0.7-0.4-6.7-2.6-8.2-3c-1.5-0.5-3.2-1-3.6-0.8
	c-0.4,0.2,1.7,2.4,2,2.5C234.8,135.8,246.7,145,246.7,145z"/>
<path class="st10" d="M249.3,140.7c0.2,0.1,11.2,8.2,12.2,8.5c0.9,0.3,1.5,0.1-0.4-1.6c-1.9-1.7-3.1-2.7-2.3-2.9
	c0.8-0.2,4.5,1.4,4.8,1.8c0.4,0.4,6.1,5.8,7.7,7.4c1.5,1.5,4.2,4.9,5.7,6.3c1.5,1.4,3.1,2.2,2.3,2.6c-0.8,0.5-0.9,0.8-2.7,0
	c-1.8-0.8-4.4-2.4-4.9-2.6c-0.5-0.3-4.2-3-4.2-3L249.3,140.7z"/>
<path class="st10" d="M263,162.2c0.8-0.1,6.5-0.3,7.3,0c0.8,0.3,3.3,3.6,5.4,5.6c2.1,2,8.2,8,10.4,10.2s3.2,4.3,4.8,6
	s3.6,4.2,3.9,4.6c0.3,0.4-0.7,2.8-1.1,2.4c-0.4-0.4-6.4-5.7-8.4-7.3c-2-1.6-20.3-19.1-20.9-19.8C263.9,163.2,263,162.2,263,162.2z"
	/>
<path class="st10" d="M272.1,162.3c0,0,17.2,17.8,18.6,19.2c1.4,1.4,2.9,3.6,3.1,4.1c0.2,0.5,1.5,0.8,1.5,0.8s-1.5-2.7-1.9-3.4
	c-0.4-0.7-7.9-10.4-8.9-11.8c-1.1-1.4-7.2-7.3-7.2-7.3l-3.8-1.9L272.1,162.3z"/>
<path class="st10" d="M247,163.2c-1.1-0.6-1.2-1.4,0.1-2c1.3-0.6,2.7-1.2,4.4-0.5s6.3,3.9,8.3,5.6c2,1.7,3.8,2.9,5.4,4.6
	c1.5,1.7,2.7,2.6,2.7,4s0.1,2.1-0.4,2.2c-0.5,0.1-0.5-0.2-3.3-1.8c-2.8-1.6-10.3-6.8-11.2-7.6C252,166.8,247,163.2,247,163.2z"/>
<path class="st10" d="M254.9,161.5c0,0,11.7,9.2,12.9,10.4c1.2,1.2,1.4,4.3,2.5,5.6c1.1,1.2,0.7,0.8,3.8,3c3.1,2.1,5,3.8,6.7,3.8
	s2.7-1.2,1.1-2.3c-1.6-1-6.5-6.6-7.8-7.8c-1.2-1.1-7.8-8.3-9.7-9.5c-1.9-1.2-1.2-1.2-3-1.7C259.6,162.5,254.9,161.5,254.9,161.5z"/>
<path class="st10" d="M233.6,160c0.5,0.2,13.9,8.5,14.1,9.2c0.2,0.7-0.5,1.2-1.6,1.2c-1.1,0,0.1,1.2,1.6,1.8s2.2,1.6,5,1.9
	c2.8,0.3,3.8,0.1,3.5-1.3c-0.2-1.4-3-5.5-4.3-5.7c-1.2-0.3-12.9-6.6-14.2-7.2c-1.2-0.6-3.7,0-3.7,0L233.6,160L233.6,160z"/>
<path class="st10" d="M225.1,161.1c0.3,0,8,6.6,9.3,7.1c1.3,0.5,4.9,3,6.2,2.7c1.3-0.3,4.3-0.5,3-1.3c-1.2-0.8-6.2-4.8-7.8-5.4
	c-1.6-0.6-6.8-3.7-7.7-4.1c-1-0.4-2-0.5-2.3-0.3c-0.3,0.1-1,1.4-1,1.4H225.1z"/>
<path class="st10" d="M214.6,163c0.2,0.1,3.1,1.1,4.6,2.3c1.5,1.2,3.5,2.5,5.2,3c1.7,0.5,3.8,1.4,5.1,1.2c1.2-0.2,3.2-0.9,2-1.6
	c-1.2-0.7-4.8-3.4-5.5-4c-0.7-0.6-1.5-1.8-1.9-1.9c-0.4-0.1-2-0.3-2.3,0c-0.3,0.3-0.7,1.8-0.7,1.8s-2.2-0.7-2.7-1.1
	s-1.4-0.9-1.6-0.9C216.6,161.8,214.6,163,214.6,163z"/>
<path class="st10" d="M214,168.6c0.3,0.2,1.8,2.5,3.7,3.6c1.9,1.1,2.7,2.7,3.9,2.1c1.2-0.6,2.4-1.8,2.4-2.5
	c-0.1-0.7-1.5-2.6-1.5-2.6s-0.8-0.3-2.1-0.7c-1.4-0.4-3.9-2-3.9-2l-2.1,0.2L214,168.6z"/>
<path class="st10" d="M208.7,173.6c0,0,2.8,2,3.1,2.3c0.3,0.2,0.9,3.3,2.8,1.3s2.1-3,1.1-4.2c-1-1.2-1.4-1.7-2.5-2.4
	c-1.1-0.7-2.1,0-2.3,0.4C210.7,171.3,208.7,173.6,208.7,173.6z"/>
<path class="st10" d="M204.6,177.4c0.4,1.1-0.3,2.3,1.6,3c1.9,0.6,2.9,2.4,3.7,0.4s1.5-2.8,0.3-4c-1.2-1.2-1.3-2-2.2-1.6
	C207.2,175.6,204.6,177.4,204.6,177.4z"/>
<path class="st10" d="M202.9,182.4c1.3,2.7,0.7,4.1,2.7,4c2-0.2,3.5-0.2,2.5-1.5s-2.9-3.6-3.5-4.3c-0.6-0.7-1.6-1.5-2.1-1.2
	C202.2,179.7,202.9,182.4,202.9,182.4z"/>
<path class="st10" d="M200.3,186.6c-0.6,1-1.2,1.9-0.3,2.8c1,0.9,1,2.3,2.1,1.1c1.2-1.3,1.3-2.2,1-3.8c-0.2-1.6-0.2-3-0.7-4.2
	c-0.5-1.3-1.8,0.9-2,1.8C200.3,185.1,200.3,186.6,200.3,186.6z"/>
<path class="st10" d="M194.9,189.3c-0.6,3.3-1.1,4.8,0,5.7s3.2,0.8,3.5-0.6c0.4-1.4,0.8-4.3,0-5.1c-0.8-0.8-1.2-2.1-2.2-1.6
	S194.9,189.3,194.9,189.3z"/>
<path class="st10" d="M189.8,191.6c1,2.6,0.5,3.9,1.8,4c1.3,0.1,1.4,1.3,1.8,0c0.5-1.3,0.4-3.7,0-4.3c-0.4-0.5-1.3-0.1-2.3-0.4
	C190.1,190.6,189.8,191.6,189.8,191.6z"/>
<path class="st10" d="M185.7,193.5c0.2,1.9,0.4,3.1,1.3,3.8c0.9,0.7,3,3.2,3.1,1c0.1-2.2-0.5-4.2-0.7-5.6c-0.2-1.4,0.8-2.8-0.9-2.3
	c-1.7,0.5-2.8,0.6-2.9,1.6C185.6,193,185.7,193.5,185.7,193.5z"/>
<path class="st10" d="M180.3,193.5c0,0.2-1.1,2.2,0,4.2c1.1,2,0.2,4.2,2.1,3.4c1.9-0.8,1.7,0.6,1.7-3.3s0.9-5.2-0.6-5.7
	C181.8,191.6,180.3,193.5,180.3,193.5z"/>
<path class="st10" d="M175,195c0.2,0.2-0.6,0.1,0.6,3.1c1.2,3,1.6,4.7,2.4,3c0.8-1.7,1.2-1.5,0.9-3.4c-0.3-2,0.6-3.7,0.1-3.8
	c-0.5-0.1-1.9-0.8-3.1-0.4C174.7,193.9,175,195,175,195z"/>
<path class="st10" d="M169.5,195.6c0.7,3-0.8,5.2,1.4,5.3c2.2,0.1,2.6,0.2,2.8-1.7c0.2-1.8,0.1-3.9-0.9-4.5
	C171.8,194.2,169.5,195.6,169.5,195.6z"/>
<path class="st10" d="M163.9,196.2c-0.2,2.4-1.3,3.9-0.5,5.1c0.8,1.2,1.4,2.9,3,2.5c1.6-0.4,2.1,0.4,2.3-2s-0.1-4.6,0.2-5.6
	c0.2-1-0.8-1.3-2-1.4C165.7,194.6,163.9,196.2,163.9,196.2z"/>
<path class="st10" d="M161.3,183.8c-0.1,1.1-0.3,4.3,0.6,5.6c0.9,1.2,3.7,3.4,4.6,3.8c0.9,0.4,1.2-0.6,1-2c-0.3-1.4-1.7-3.2-1-4.2
	c0.7-1,0.4-1.8-0.2-2.4c-0.6-0.6-2.2-1.7-3.1-2.2C162.2,181.9,161.3,183.8,161.3,183.8z"/>
<path class="st10" d="M162.6,178.1c0.1,0.9,0,1.2,1.8,2.9c1.9,1.7,3.9,3.9,4.7,3.2c0.8-0.7,1.2-1.8,1.1-2.5
	c-0.1-0.7,0.4-1.2-1.3-2.3c-1.7-1.1-1.9-2-3.2-2.9c-1.2-0.8-1.2-1.2-1.8-0.9C163.2,175.9,162.6,178.1,162.6,178.1z"/>
<path class="st10" d="M168,171.8c1.3,2.1,2.3,3.5,3.7,3.6c1.3,0.1,1.7-1.4,3.3-2.6c1.6-1.1,0.5-2.6,0-3.4c-0.5-0.7-0.3-0.9-2-0.8
	c-1.7,0.1-2.6,1.3-3.5,1.8C168.6,171,168,171.8,168,171.8z"/>
<path class="st10" d="M176.6,167.9c0.8,2.3,2.2,4.1,2.4,4.7c0.2,0.6,2.1,3.9,3.4,3.8c1.3-0.1,3.7-1.4,3.3-2.4c-0.4-1-0.1-1.5-2-3.1
	c-1.9-1.7-2.5-3.9-3.6-4.3c-1.1-0.4-2.3-1.4-3.1-0.6C176.1,166.8,176.6,167.9,176.6,167.9z"/>
<path class="st10" d="M181.1,165.3c0.8,0.5,3.3,3.2,4.2,4.2c0.9,1,1.8,3.5,3.9,2.6c2-1,0.3-3.4,1.8-4.2c1.4-0.7,2.2-0.5,3.3-0.5
	c1.1,0,2.3-0.4,1.4-1.4c-0.9-1-4.1-3.5-4.5-4.1c-0.4-0.7-2.5-2.2-2.5-2.2s-3.3,0.8-4,1.2c-0.6,0.5-2.7,2-2.9,2.3
	C181.5,163.5,181.1,165.3,181.1,165.3z"/>
<path class="st10" d="M190.8,158.1c1.3,0.6,2.4,1.5,5.1,1.6c2.7,0.1,4.6,0.8,4.9,1.8c0.4,1,1.2,2.9,0.5,3.3
	c-0.7,0.4-0.7,2.2-2.6,1.2c-1.9-1-5-2.8-5-2.8l-5.3-3.5L190.8,158.1z"/>
<path class="st10" d="M193.8,154.4c2.1,0.4,3,1,5.7,1c2.7,0,3.8,0.2,3.8,0.9c0,0.7,0.4,2.1,0,2.6c-0.4,0.4,1,0.8-2.3,0.9
	c-3.3,0.1-3.9-0.2-6.7-0.8s-5.4,0-4.1-1.4c1.4-1.4,3.3-3.8,3.3-3.8L193.8,154.4z"/>
<path class="st10" d="M196.8,151c-0.2-0.4-3.3-1.6-0.9-2.4c2.4-0.8,3.6-1.7,3.6-1.7s0.8,1.3,1.9,2.2c1.1,0.9,3.4,1.2,3.1,2.6
	s-0.3,3,0.2,3.5c0.5,0.5,0,2.3,0,2.3s-1-0.7-1.4-1.3c-0.5-0.6-3.1-1.8-3.3-1.7S196.8,151,196.8,151z"/>
<path class="st10" d="M198.8,143.9c2.5-0.3,2.9,0.2,3-0.6c0.1-0.8-0.4-2.8-0.2-2.7c0.2,0.1,1.2-0.3,1.8,0.4c0.6,0.7,1.2,1.2,2.4,2.3
	s1.7,4.1,1.7,4.1l-1.1,1.7c0,0-2,0.1-2.6,0c-0.5-0.1-3.8-1.5-3.8-1.5L198.8,143.9z"/>
<path class="st10" d="M203.4,139.5c0.1,0,2.2-0.1,2.7,0.5c0.7,0.7,2.2,1.2,2,0.6c-0.2-0.6-0.9-2.3-0.3-2.4c0.7-0.1,1.3,0,2.4,0.3
	c1.1,0.3,2.9,2.5,3,2.7c0.2,0.2,1,2.1,0.6,2.4c-0.4,0.4-1.1,1.4-1.5,1.5c-0.4,0.1-2,0.1-2.7,0s-1.7-0.9-2.3-1.2
	C206.9,143.6,203.4,139.5,203.4,139.5z"/>
<path class="st10" d="M211.3,135.8c0.8,0,3.3,1.2,3.7,1.5c0.4,0.3-0.4-2-0.4-2.4c0-0.4,0.9-0.9,1.6-0.3c0.7,0.6,2.9,2.6,4,3.9
	c1.2,1.3,2.9,2.7,2.8,3.2c-0.1,0.5-0.4,1.7-1.9,1.6c-1.6-0.1-3.6-0.2-4.4-0.4c-0.8-0.2-2.2-1.8-2.6-2.3s-3.1-3.3-3.1-3.5
	c0-0.2,0.4-1.1,0.4-1.1L211.3,135.8z"/>
<path class="st10" d="M218.4,133.8c1.2,0.1,4,1.1,4.6,1.7c0.6,0.6,3.1,2.4,3.5,3c0.5,0.7,2.5,2.6,2.5,2.6s1,1.9,0.4,2.2
	c-0.5,0.2-2.8,0.6-2.8,0.6s-2.5-2.3-3.5-3.3c-1-1-5.4-4.5-5.4-4.5L218.4,133.8z"/>
<path class="st10" d="M223.7,133.4c1.5-0.2,6.6-0.1,7.3,0.4s3.7,2.7,4.8,3.6c1.1,0.9,4.5,4.2,4.8,4.3c0.3,0.1,1.5,1.3,0.4,1.6
	c-1.1,0.3-2.7-0.2-4,0c-1.3,0.2-1.5-1.5-2-2.2c-0.5-0.7-5.3-4.9-5.3-4.9l3.5,4.4c0,0,1.6,2.4,1.5,2.8s-1.8,0.8-2,0.5
	c-0.2-0.3-2.7-2.6-2.7-2.6l-3.7-4.7l-2.1-1.7l-0.7-1.1L223.7,133.4z"/>
<path class="st10" d="M217.8,119.4c0,0,10.2,7.4,12.2,8.2c2,0.8,10.2,4.1,10.6,4.5c0.4,0.4,4.2,3.1,5.9,4.6c1.7,1.5,4.2,2.7,5.5,3
	c1.3,0.3,3.9-0.4,3.9-0.4s0.5-1.1-1.1-2c-1.7-0.9-6.2-5.8-10.3-7.7c-4-1.9-10-6.2-12.9-7.4c-2.9-1.2-5.1-2.9-5.9-3.1
	c-0.8-0.2-10.7-4.5-12.5-4.9c-1.8-0.4-12.7-1.8-14.5-0.7c-1.8,1.1-4.2,2.6-5.6,3.5c-1.4,0.8-5.9,3.3-6.2,3.9
	c-0.4,0.5-17.2,21.5-17.9,22.6s-7.6,15.4-8.8,18.2c-1.2,2.7-1.7,4.4-2.3,6.4c-0.6,2-3.4,3.7-1.4,5c2,1.3,2.6,2.5,4.1,1.1
	c1.5-1.4,3.2-4.7,3.8-5.3c0.3-0.3-0.1-0.7-0.2-1.5c-0.1-1.4,0.9-2.2,1.7-3.4c1.4-2.1,0.8-2.4,2.2-4.8c1-1.8,1.3-1.5,2.8-3.7
	c1.9-2.8,1.5-3.3,3.3-5.8c1.3-1.7,1.6-1.6,2.7-3.4c0.7-1,1.2-2,2.1-4c1.1-2.3,1.2-2.9,2.2-4.9c0.8-1.7,1.6-3.1,1.8-3.5
	c3-5.3,8.8-8.6,12-10.3c3.2-1.7,4.7-2.3,5.6-2.3c0.9,0,4.8-0.5,5.4-0.6s5.1-0.9,6.5-0.8C213.9,119.9,217.8,119.4,217.8,119.4z"/>
<path class="st10" d="M172.4,164.2c1.5,0.7,2.1,1.4,3,1.1c0.9-0.4,3.2-0.7,4.4-1.1c1.2-0.4,2.2-1.1,0.7-2c-1.5-1-3.9-2.2-4.7-2.5
	c-0.8-0.3-1.2-1.3-2.1-0.5c-0.9,0.8-1.3,4.5-1.3,4.5L172.4,164.2L172.4,164.2z"/>
<path class="st10" d="M179.2,153.7c0.7,0.9,1.1,3.2,3.6,4c2.6,0.8,4.1,0.5,3.5,1.2s-2.6,1.4-4.2,1.6c-1.6,0.2-4.7-0.7-5.3-1.1
	c-0.6-0.5-1.9-2.1-0.7-3.1C177.3,155.3,179.2,153.7,179.2,153.7z"/>
<path class="st10" d="M181.6,152.3c1.8,0.5,3.3,0.8,3.5,0.3c0.2-0.5-1.8-1.8-2-2.8c-0.1-1,1.1-1,2.6,0c1.5,1,3.2,2.1,3.7,2.5
	c0.5,0.4,1.2,2.1,1.2,2.1c0.1,0-2.2,1.9-2.2,2.1c0,0.2-2.6,0.3-3.8-0.2c-1.1-0.5-3.4-2-3.5-2.6C181.2,153.1,181.6,152.3,181.6,152.3
	z"/>
<path class="st10" d="M186.5,145.3c1.2,0.7,3.7,2.4,5.6,2.2c1.9-0.2,2.9-0.6,3.8-1.1c0.9-0.5,2.5-1.5,0.3-1.9
	c-2.2-0.4-3.7,0.8-5.5-1.2c-1.8-1.9-2.1-3.1-2.9-3.1c-0.8,0.1-3.1,1.3-3,1.7C184.8,142.3,186.5,145.3,186.5,145.3z"/>
<path class="st10" d="M192,136.3c3.4,1.2,5.5,2.7,7.3,2.4c1.8-0.3,3.3-0.5,2-1.2c-1.3-0.7-3.6-0.8-4.4-2.8c-0.8-2-1.3-2.6-1.5-2.6
	c-0.2,0-2.3,1.1-2.7,1.7C192.2,134.4,192,136.3,192,136.3z"/>
<path class="st10" d="M200.7,130.7c3.4,1.7,6.4,4,7.1,4.2c0.8,0.2,1.9,0.8,0,1.4c-1.9,0.6-2.9,1.2-4.7,0.6c-1.7-0.7-4.3-1.6-4.3-2.1
	c0-0.5-0.1-2.7,0.3-3.1c0.4-0.4,1.5-0.6,1.5-0.6L200.7,130.7z"/>
<path class="st10" d="M206.5,128.4c2.3,2.2,4,3,5.5,3.7s2.6,0.5,1.4,1.2c-1.3,0.7-2.3,1-4.5,0c-2.2-1-4.5-2.8-4.9-3.4
	c-0.5-0.6-1.4-2,0-1.7C205.3,128.4,206.5,128.4,206.5,128.4z"/>
<path class="st10" d="M211.3,130c6.5,1.8,8.2,2.1,8.4,2.1c0.2-0.1,0-1-1.5-1.8s-3.4-1.8-3.6-2.1c-0.1-0.3-2.1-1.3-3.3-1.2
	c-1.2,0.1-3.5-0.7-3.2,0.2s0.4,1.1,1,1.4C209.7,128.9,211.3,130,211.3,130z"/>
<path class="st10" d="M218.4,183c0.4,0.6,14.5,14.2,16,14.6c1.4,0.4,3.5,0.2,0-3s-14.4-12.5-14.5-13.4s-1.1-3.9,1.2-2.3
	c2.2,1.6,5.9,4.5,6.9,5.4s5.2,4.9,6.4,6.6c1.2,1.7,3.7,5.4,4.7,6.9c1,1.6,1.7,2.5,0.4,3.5c-1.3,1.1-0.6,2.9-2.4,1.5
	c-1.8-1.4-8.7-6.5-8.9-7.2c-0.3-0.7,7,7.7,7,7.7l-0.2,3.2c0,0-5.5-3.7-6.3-4.7c-0.8-1.1-3.3-3.3-3.2-4.1c0.1-0.8-1.6-2.5-2.2-3.2
	s-7.3-8.3-7.6-9.2c-0.3-0.9,0.2-2.5,0.7-2.5C216.8,182.8,218.4,183,218.4,183z"/>
<path class="st10" d="M174.9,181.9c0.7-3,0.5-4,1.6-3.4c1.1,0.6,1.3,2.1,1.1,2.5s-0.8,1.7-1.5,1.9c-0.8,0.2-2.4,0.7-2.2,0.4
	C174,183.1,174.9,181.9,174.9,181.9z"/>
<path class="st10" d="M180.7,180.5c-0.1-1-1.2-4.5-2.1-4.9s0.3-1.1,1.8,0.5c1.5,1.6,3.7,3.6,3.8,3.8c0.2,0.2-2,1.8-2.5,1.7
	C181.2,181.5,180.7,180.5,180.7,180.5z"/>
<path class="st10" d="M167.5,177.5c0.1,0.1,2.7,2.2,3.9,2.5c1.2,0.3,2.3-0.4,1.7-1.3c-0.6-0.8-2.2-2.4-3.3-3.2
	c-1-0.8-2.3-1.1-2.3-1.1C167.5,174.4,167.5,177.5,167.5,177.5z"/>
<path class="st10" d="M191.3,170.5c-0.4,1.2-0.2,4.5-1.2,5.3s-3.2,2.8-1,2c2.2-0.8,4.6-2.5,5.1-3.2c0.4-0.7,1.1-1.8,0-2.9
	c-1.1-1.1-2.7-1.8-2.7-1.8L191.3,170.5z"/>
<path class="st10" d="M146.3,186.4c0.9,0.3,9-3.4,10.6-4.1c1.6-0.7,1.8,4.4,2,5.5s1.2,2.9-2,3.1c-3.2,0.1-5,0.1-7.9-1.1
	C146.2,188.5,146.3,186.4,146.3,186.4z"/>
<path class="st10" d="M150.6,194.3c1,0,6.2,0.2,7.1,0.3s2.3,0,3.3,0.6c0.9,0.7,0.8,1.3-0.2,1.8c-1.1,0.5-2.9,1.4-5.3,1.7
	s-4.1-0.2-4.2-0.7c-0.1-0.5,0.1-1.4-0.7-1.4c-0.8,0-2.9-0.3-3.6-0.3c-0.7,0,0.9-0.8,0.9-0.8L150.6,194.3z"/>
<path class="st10" d="M149,178.5c1.2-0.1,3.3-1.3,5-1.2c1.7,0.1,4.9-0.8,4.9,0.5c0.1,1.2,0.1,2.2-0.8,2.6c-0.9,0.4-5.7,1.9-7,1.9
	s-4.1-1.5-4.8-1.9C145.6,179.9,149,178.5,149,178.5z"/>
<path class="st10" d="M149.1,173c0.5-0.2,4.3-4,6-5.9c1.7-1.8,3.3-3.5,3.1-5.9c-0.2-2.4-0.1-5.1-2.4-5.8c-2.3-0.7-5.7-0.4-8.5,0.7
	c-2.7,1.1-7.2,2.7-8.2,3.9c-1,1.2-2.2,3.3-1.3,3.7c0.9,0.4,2.4,0.1,3.2-0.2c0.7-0.3,3.3-1.2,3.2-0.4s-1.5,2.3-1.5,2.3
	s-2.1,1.6-2.3,1.8c-0.2,0.2-1.8,1-0.9,2.3s0.8,4.2,4,4.5s4.6,0.3,5.1-0.2C149.1,173.4,149.1,173,149.1,173z"/>
<path class="st10" d="M151.8,151c4.9-0.4,5.5-0.6,6.7-1.4c1.1-0.8,3-1,1-3c-2-2-2.5-4.7-4-4.9s-2.4-1.3-3.6-0.3
	c-1.2,1-6.4,4.7-3.7,5c2.7,0.4,6.2-0.1,5.4,1.1s-0.9,1.7-2.4,2.2c-1.5,0.5-1.2,2.1-0.5,2C151.4,151.7,151.8,151,151.8,151z"/>
<path class="st10" d="M101.8,143.9c0.4-0.1,3.6-1.2,3.4-1.8s-6.6-4.8-8.3-6.3c-1.7-1.5-7.9-9.5-8.5-10.3c-0.6-0.7,0.9-0.9,2.6,0.6
	c1.7,1.5,1.5,3.9,2.5,3.9c1,0,0.4-2.3,0.4-2.9c-0.1-0.5-1.9-3.3-3.7-5.3c-1.9-2-4.9-5.3-5.9-5.9s-1.6,2.9-1.6,3.3s1.6,1.5,1.6,3.6
	c0,2-0.3,2.9,1.3,4.7c1.6,1.9,3.6,6.4,5.3,8.1c1.7,1.7,4.5,4.4,6.2,5.3C98.6,142,101.8,143.9,101.8,143.9z"/>
<path class="st10" d="M96.4,128.4c1.2,1.4,6.1,7.7,7.7,8.6s4.9,1.1,3.5,0c-1.4-1.1-5-4.9-5.4-5.8c-0.4-0.9,0.2-2.2,1.7-0.5
	c1.5,1.7,5,3.8,5,3.8s1.9-1.5,0-2.3s-6.8-4.8-7.9-5.7c-1.2-0.8-3.3-2.4-5.2-3.6c-1.9-1.2-3.6-2.5-3.3-1.2s1.9,3.9,2.4,4.5
	C95.4,126.7,96.4,128.4,96.4,128.4z"/>
<path class="st10" d="M70.9,102.3c0.5,0.3,7.3,4.5,9,5.4c1.7,0.9,4.6,2.7,7.4,4.3c2.8,1.6,9.5,7,11.3,8.8c1.8,1.8,2.9,4.5,3.5,4.8
	c0.6,0.4-3.5-1.6-4.9-2.5c-1.4-0.9-5.1-2.9-6.9-3.8c-1.8-0.9-3.3-1.8-5.3-3.3c-2-1.5-2.9-3.4-4.5-4.6c-1.6-1.2-2.2-2-4-3.2
	c-1.8-1.2-4.6-2.8-5.6-3.7c-1-1-2.9-2.5-2.9-3s1.8-0.3,2.2,0C70.7,101.6,70.9,102.3,70.9,102.3z"/>
<path class="st10" d="M93.9,112.2c0.1,0.3,5.5,3,8,5.4c2.4,2.4,5.8,5.2,6.2,5.8c0.4,0.6,0.5,1.9-1.2,1.4c-1.7-0.5-3-1.7-6.1-3.6
	c-3.2-1.9-10.1-9.2-10.6-9.8C89.7,110.7,93.9,112.2,93.9,112.2z"/>
<path class="st10" d="M100.6,114.3c1.6,1.3,5.7,6.2,8.3,7.9c2.6,1.7,4.6,1.5,3.8,0.5s-4.7-3.2-3.3-3.2c1.4,0,4,1.3,4.7,1.6
	c0.7,0.4,1.3-1.3-1-2.3c-2.3-1-5.2-3.5-7.9-4.6C102.5,113.2,100.6,114.3,100.6,114.3z"/>
<path class="st10" d="M94.6,105.5c-0.4-1.1,0.5-1.8,1.7-1c1.3,0.9,2.3,1.4,5.1,3.6c2.8,2.2,2.9,4.1,6.7,5.9c3.7,1.8,9,4.5,7.6,3.1
	c-1.4-1.4-5.2-4.6-5.7-5.2c-0.5-0.7-0.1-0.8,3.1,0.7s6,2.9,5.4,1.7c-0.7-1.2-0.3-2.2-3.4-4.1c-3.1-1.9-3.4-2.6-7.9-4.7
	c-4.5-2.1-12.2-5.1-16-6.7s-6.8-3.1-9.9-4.5c-3.2-1.4-10.8-4.1-12.6-4.2c-1.8-0.1-4.1-0.4-2.5,1s5.1,1.7,6.1,3.5
	c1,1.8,1.1,2.7,2.2,3.7c1.1,1,1.2,3,4.6,4.2c3.5,1.2,2.8,1,6,3.3c3.2,2.4,5.2,4.3,7.6,4.8c2.4,0.5,5.8,1.2,5.8-0.1s-0.1-1.8-1.8-3
	C95.1,106.3,94.6,105.5,94.6,105.5z"/>
<path class="st10" d="M10.7,96.3c0,0,1.3-3.6,3.1-4.9s3.7-3.7,7.3-3.5s6.8,0.8,8.8-0.5s3-2.4,4.6-2.6c1.6-0.2,4.7,1.2,7.7,2.7
	c3,1.5,7.9,2.9,7.9,3.5c0.1,0.6-2.9,1.2-4.4,1.4c-1.5,0.2-2.4-0.1-5.5-0.4c-3.1-0.3-10.9-0.8-12.2-0.5c-1.4,0.2-6.9,0.5-9.1,1.3
	s-4.8,2.1-6,2.8C11.7,96.1,10.7,96.3,10.7,96.3z"/>
<path class="st10" d="M19.3,95c3.8-0.5,8-0.2,11.2-0.2s10.3,2.1,12.3,3c2,0.9,4.2,1.9,5.6,2.6s5.7,1.5,6.9,2.3
	c1.2,0.8,3.7,2.5,5.3,4.1c1.6,1.6,10.5,9.7,12,10.8c1.5,1.1,7.9,7.4,8.9,8.4c1,1,2.7-0.4,1.2-2.1c-1.5-1.7-9.2-9-10.5-10.6
	c-1.2-1.5-11.9-11.5-15.2-12.8c-3.3-1.3-10.8-4.4-14.9-5.4c-4.1-1-9.1-2.4-11.6-2.5C27.9,92.6,19.3,95,19.3,95z"/>
<path class="st10" d="M61.5,98.4c-2.7-1.9-4.2-2.6-6.8-4.5c-2.6-2-1.1-3.4,2.6-1.2c3.6,2.2,6.9,4.4,4.5,1.9s-12.1-6.9-15.9-7.8
	c-3.9-0.9-9.2-1.8-4.8-2c4.4-0.2,7.9-0.7,9.5,0c1.6,0.7,9.2,4.1,12.6,6.3c3.4,2.2,7.8,4.6,8.4,5.5c0.6,0.8-2.2,1.7-4.1,1.8
	C65.4,98.6,61.5,98.4,61.5,98.4z"/>
<path class="st10" d="M80.2,117.6c-0.4-0.8,0.3-3.8-1.6-5.6c-1.9-1.8-9.2-8.8-10.9-9.7c-1.7-0.9-5.9-3.1-7.2-3.9s-5.4-2.3-8.1-3
	c-2.7-0.7-4.4,0.3-1.9,1.5c2.5,1.2,3.6,0.7,6.6,2.9c3.1,2.3,6.3,4,8,5.7c1.7,1.7,8.9,10.5,11.4,11.7s3.2,0.5,3.3,0.3L80.2,117.6
	L80.2,117.6z"/>
<path class="st10" d="M137.4,157.1c0,0,2.2-5.3,2.7-6.3c0.5-1,7.6-12.3,9-13.1c1.4-0.8,4.2,1.7,5.1,2.6c0.9,0.9-3.6,2.2-4.3,2.8
	s-5.5,5.2-5.6,6.4c-0.1,1.2-1.3,4.1-3.6,6c-2.3,1.9-3.4,1.6-3.4,1.6L137.4,157.1L137.4,157.1z"/>
<path class="st11" d="M244.9,238.8"/>
<circle class="st12" cx="153.6" cy="43.4" r="28.3"/>
<circle class="st13" cx="153.6" cy="42.9" r="25.6"/>
<circle class="st8" cx="153.6" cy="43.4" r="18.6"/>
<circle class="st14" cx="162.5" cy="36.9" r="7.5"/>
<g>
</g>
<g>
</g>
<g>
</g>
<g>
</g>
<g>
</g>
<g>
</g>
</svg>
