<?xml version="1.0" encoding="utf-8"?>
<!-- Generator: Adobe Illustrator 24.3.0, SVG Export Plug-In . SVG Version: 6.00 Build 0)  -->
<svg version="1.1" id="Layer_1" xmlns="http://www.w3.org/2000/svg" xmlns:xlink="http://www.w3.org/1999/xlink" x="0px" y="0px"
	 viewBox="0 0 300 300" style="enable-background:new 0 0 300 300;" xml:space="preserve">
<style type="text/css">
	.st0{fill:#1C75BC;}
	.st1{fill:#262262;}
	.st2{fill:#2B3990;}
	.st3{fill:#BCBEC0;}
	.st4{fill:#C49A6C;}
	.st5{fill:#FBB040;}
	.st6{fill:#754C29;}
	.st7{fill:none;stroke:#A7A9AC;stroke-miterlimit:10;}
	.st8{fill:#FFFFFF;}
</style>
<path class="st0" d="M104.59,246.29c3.38,0.14,4.12-0.04,4.15-0.24c0.01-0.07-0.01-0.26-1.17-0.84c-1.78-0.89-1.42-0.98-1.95-2.84
	c-0.53-1.87,0.53-3.91,0.89-6.58c0.36-2.67,0.71-11.29,1.24-13.15c0.53-1.87,3.55-9.06,4.98-12.89c1.42-3.82,2.13-7.11,1.51-7.38
	c-0.62-0.27-3.02-2.58-4.98-3.82c-1.95-1.24-4.8-3.47-4.8-3.47c-0.04,0.22-0.24,0.78-0.52,1.46c-0.48,1.17-0.9,2.01-0.99,2.19
	c-0.47,0.93-1.91,4.28-5.87,14.15c-1.32,4.31-2.99,7.67-4.35,10.02c-2.36,4.09-4.53,6.31-8.85,10.75c-0.77,0.79-2.77,2.8-5.72,3.33
	c-1.67,0.3-2.32-0.11-2.49-0.23c-1.11-0.78-0.47-2.11-1.42-4.53c-0.13-0.32-1.49-3.65-3.83-4.04c-0.19-0.03-0.07,0.01-0.97-0.05
	c-2.11-0.13-2.57-0.4-3.3-0.15c-0.53,0.18-0.89,0.54-1.68,1.04c-1.69,1.07-1.87,4.62-1.4,6.75c0.11,0.51,0.25,0.87,0.55,1.3
	c0.8,1.2,1.81,1.12,3.01,2.44c0.46,0.51,0.86,0.95,0.84,1.54c-0.03,0.78-0.79,1.23-1.65,1.97c-0.86,0.74-2.91,2.51-2.66,3.5
	c0.45,1.8,8.51,0.89,10.96,0.45c0.42-0.08,1.13-0.22,1.93-0.64c1.39-0.72,1.99-1.69,2.74-2.65c0.39-0.5,2.92-3.69,6.49-4.47
	c0.28-0.06,1.16-0.1,2.93-0.18c2.7-0.12,4.05-0.18,5.3,0c1.1,0.16,2.7,0.53,4.56,1.54C100.23,242.49,102.41,244.39,104.59,246.29z"
	/>
<path class="st1" d="M86.46,249.44c2.47-0.26,4.95-0.52,7.42-0.78c0,0,1.3,0.36,2.73,1.84c1.42,1.48,2.55,3.67,3.08,4.92
	c0.53,1.24,3.2,1.72,5.15,1.78s15.28-0.36,15.88,0c0.59,0.36,0.12,2.84,2.13,4.98c2.01,2.13,6.93,4.62,7.64,5.33
	c0.71,0.71,7.82,5.81,10.07,8.12c2.25,2.31,2.31,3.5,3.14,4.09s2.67,0.18,5.21-1.78c2.55-1.95,6.04-3.55,7.82-4.86
	c1.78-1.3,15.82-12.38,17.71-13.8c1.9-1.42,1.3-1.78,3.14-1.95c1.84-0.18,7.7-0.75,12.44-0.67c4.74,0.08,16.29,0.26,16.29,0.26
	s1.24-2.37,2.13-3.97c0.89-1.6,1.36-2.49,3.79-3.26c2.43-0.77,3.67-1.48,5.51-1.01c0,0,2.04,1.05,2.89,2.16
	c0.84,1.11,2.18,2.89,2.62,4.44c0.44,1.56,3.11,1.73,5.64,1.73c2.53,0,14.17,0.04,14.17,0.04l24.7-0.13c0,0-0.89-1.2-3.42-3.42
	c-2.53-2.22-6.75-6.53-8.35-7.86c-1.6-1.33-2.58-2.67-3.42-4.49c-0.84-1.82-0.31-7.69-0.36-8.98c-0.04-1.29-1.64-7.42-2.13-7.95
	c-0.49-0.53-1.87-2.98-2.98-3.78c-1.11-0.8-5.69-2.22-6.13-2.22c-0.44,0-3.47,0.04-4.8,0c-1.33-0.04-2.67-0.13-3.95,0.84
	c-1.29,0.98-6.53,3.38-6.8,3.55c-0.27,0.18-1.6-1.16-3.07-3.51s-3.91-7.64-4.31-8.4c-0.4-0.76-1.38-4.53-1.82-5.42
	c-0.44-0.89-2.18-6.98-2.75-8.31c-0.58-1.33-0.67-2.04-1.07-2.53c-0.4-0.49-0.58-0.84-1.51,0c-0.99,0.42-1.98,0.84-2.98,1.27
	c0.56,1.05,1.38,2.69,2.22,4.78c0.87,2.16,1.01,3.45,2,5.82c0.22,0.53,2.4,6.53,2.8,7.6c0.4,1.07,3.51,7.78,3.82,8.35
	c0.31,0.58,2.31,3.73,2.98,4.67c0.67,0.93,2.49,2.4,3.33,2.4c0.84,0,1.07,0.13,2.13-1.51c1.07-1.64,1.29-2.89,2.93-3.73
	c1.64-0.84,2.67-1.24,3.95-1.29c1.29-0.04,7.95,1.07,8.71,1.38c0.76,0.31,2.13,1.24,2.84,2.4c0.71,1.16,2.27,3.42,2.31,4.44
	c0.04,1.02,0.22,4.04,0.27,5.15c0.04,1.11-0.8,1.95-0.89,2.62c-0.09,0.67-0.93,2.31,0.04,3.42c0.98,1.11,3.07,3.47,4.09,4.35
	c1.02,0.89,2.62,1.95,3.64,3.07c0.06,0.03,0.8,0.39,0.79,0.95c0,0.03,0,0.16-0.11,0.37c-0.25,0.51-0.71,0.76-0.85,0.83
	c-1.44,0.77-2.99,0.65-2.99,0.65c-7.59-0.62-12.11-0.31-16.22-0.31c-1.38,0-7.6,0.18-8.44,0c-0.21-0.04-0.55-0.08-0.92-0.29
	c-0.22-0.13-0.39-0.28-1.1-1.08c-0.27-0.3-0.4-0.45-0.49-0.55c-1.51-1.77-2.14-3.28-3.8-4.26c-0.48-0.28-0.88-0.42-1.29-0.57
	c-1.39-0.49-2.55-0.53-3.24-0.54c-4.41-0.09-6.63-0.13-7.33,0.44c-0.23,0.19-0.05,0.09-2.19,2.56c-0.22,0.26-0.63,0.73-1.14,1.38
	c-0.49,0.64-0.57,0.79-0.8,1.08c-0.21,0.26-1,1.25-2.22,1.79c-0.95,0.42-1.81,0.42-3.2,0.4c-0.61-0.01-0.71-0.05-1.93-0.1
	c-1.01-0.04-1.74-0.05-2.16-0.05c-2.52-0.02-6.91-0.14-9.37-0.23c-1.14-0.04-2.81-0.11-4.84-0.22c0,0,0.27-0.44,1.56-1.69
	c0,0,2.75-3.2,3.29-4c0.53-0.8,2.13-3.15,2.71-3.87c0.58-0.71,2.56-3.96,2.86-5.39c0.3-1.43,0.77-4.81,0.83-5.58
	c0.25-3.25-0.3-5.61-0.89-8.89c-1.43-7.93-2.72-7.65-3.4-11.17c-0.06-0.34-0.23-1.27-0.92-1.61c-0.65-0.32-1.45,0.05-1.87,0.29
	c-0.66,3.04-0.45,5.35-0.15,6.86c0.41,2.1,0.91,2.39,2.04,6.19c0.8,2.67,1.21,4.1,1.25,6.1c0.05,2.8-0.69,4.91-0.86,5.37
	c-0.94,2.57-2.26,3.59-5.81,7.23c-4.6,4.72-3.66,4.33-7.94,8.59c-1.69,1.68-3.75,3.74-6.66,6.24c-5.27,4.53-6.4,4.59-10.16,8.08
	c0,0-2.87,2.66-5.16,4.34c-0.31,0.23-0.59,0.42-1.87,1.35c-1.2,0.87-1.44,1.05-1.91,1.34c-1.76,1.08-2.43,1.02-2.7,0.98
	c-0.47-0.08-0.81-0.3-1.03-0.46c-2.35-1.71-3.46-3.97-3.46-3.97c-0.37-0.75-4.42-4.26-12.5-11.23c-1.54-1.33-2.78-2.4-4.27-3.91
	c-0.87-0.88-1.55-1.64-2.86-2.93c-0.19-0.19-0.7-0.69-1.36-1.39c-0.56-0.59-0.95-1.04-1.15-1.28c-0.42-0.48-0.72-0.85-0.87-1.04
	c-0.15-0.19-1.26-1.55-2.13-2.54c-1.07-1.23-2.42-2.77-3.83-3.86c-0.14-0.11-0.63-0.48-1.27-1.02c-0.67-0.57-1.01-0.85-1.21-1.09
	c-1.08-1.24-0.72-2.43-1.35-2.68c-0.62-0.25-1.61,0.63-2.15,1.32c-2.27,2.92-0.32,7.55,0.59,8.35c0.41,0.36,0.37,0.26,2.01,1
	c4.11,1.85,5.8,3.82,6.47,4.71c0.68,0.9,1.31,1.63,0.89,1.91c-0.27,0.18-4.84,0.18-7.64,0.09c-2.8-0.09-6.26-1.2-7.24-2.58
	c-0.98-1.38-2.27-3.15-3.42-3.73c-1.16-0.58-3.78-1.69-5.02-1.56c-1.24,0.13-7.95,1.29-8.53,2.18c-0.58,0.89-3.38,4.44-3.73,4.71
	c-0.36,0.27-5.69,0.67-6.53,0.62c-0.84-0.04-10.17-0.18-10.75-0.13c-0.58,0.04-5.07,0.13-8.09,0.04c-3.02-0.09-4.89-0.04-5.33-0.13
	c-0.44-0.09,0.36-0.49,1.91-1.91c1.56-1.42,2.71-3.07,3.91-3.73c1.2-0.67,4.35-4.98,4.27-5.42c-0.09-0.44,0.4-0.8-0.71-2.67
	c0,0-1.02-2.93-1.2-3.69c-0.18-0.76,0.71-5.02,0.71-5.47c0-0.44,1.16-2.22,1.69-3.07c0.53-0.84,2.71-2.49,3.33-2.71
	c0.62-0.22,6.13-0.89,7.46-0.71c1.33,0.18,3.42-0.27,4.49,0.98c1.07,1.24,2.84,3.38,3.69,4.22c0.84,0.84,1.6,1.51,2.18,0.76
	s2.18-2.8,2.98-4.04c0.8-1.24,5.38-6.98,5.82-7.55s3.07-7.11,3.47-7.91c1.41-2.81,0.65-2.77,1.69-5.69c1.51-4.22,2.26-6.33,3-7.56
	c0.69-1.15,1.81-2.8,1.23-3.9c-0.4-0.75-0.97-1.14-0.97-1.14c-0.18-0.31-0.48-0.74-0.95-1.14c-0.73-0.63-1.49-0.87-1.91-0.96
	c-0.24,1.23-0.58,2.84-1.07,4.71c-0.27,1.02-0.32,3.6-2.13,6.8c-0.76,1.33-4.89,11.2-5.33,12.44c-0.44,1.24-3.6,6.26-4.18,7.24
	c-0.58,0.98-1.11,1.6-2.04,1.6s-3.07-1.51-4.44-2.4c-1.38-0.89-4.31-1.73-5.02-1.64c-0.71,0.09-6.8,0.49-7.55,1.02
	c-0.76,0.53-7.46,4.75-7.86,5.51c-0.4,0.76-2.49,6.4-2.35,7.33c0.13,0.93-0.62,4.27-0.13,5.6c0.49,1.33,0.71,2.98,0.44,3.78
	c-0.27,0.8-4.04,4.67-5.38,6.04c-1.33,1.38-10.13,9.51-10.13,9.51s0.27,0.8,2.44,0.84c2.18,0.04,12.31,0.09,12.44,0.09
	c0.13,0,12-0.09,12-0.09l10.09-0.13l7.11,0.04c0,0,0.27-0.89,0.76-1.78c1.07-1.95,0.98-2.88,1.69-4.09
	C85.42,250.75,85.83,250.13,86.46,249.44z"/>
<path class="st2" d="M49.68,251.85c0.53-0.3,5.75-5.86,6.69-6.87c1.52-1.61,2.62-2.49,2.78-4.03c0.18-1.65-0.83-2.18-1.18-4.97
	c-0.21-1.65-0.05-2.91,0.12-4.16c0.25-1.94,0.48-3.68,1.61-5.22c0.31-0.43,0.93-1.27,1.8-1.84c0.2-0.13,0.56-0.34,1.13-0.74
	c0.49-0.35,0.54-0.41,0.77-0.54c0.47-0.26,0.88-0.33,1.51-0.41c1.26-0.18,1.89-0.26,2.14-0.28c0.33-0.03,1.4-0.11,3.08-0.12
	c1.72-0.01,2.54,0.07,2.79,0.1c1.63,0.17,2.1,0.42,2.28,0.52c0.21,0.12,0.43,0.28,1.46,1.49c0.87,1.03,1.24,1.53,1.99,2.39
	c1.22,1.39,1.49,1.47,1.66,1.49c0.62,0.09,1.29-0.32,2.6-1.86c1.48-1.73,1.83-2.62,2.98-4.28c1.58-2.26,1.81-1.86,3.35-4.14
	c0.5-0.74,1.45-2.14,2.33-4.1c0.38-0.83,0.5-1.22,1.39-3.31c0.6-1.39,0.77-1.74,0.98-2.25c1.16-2.74,0.93-3.75,1.87-6.66
	c0.57-1.78,0.71-1.58,2.04-4.89c0.89-2.21,1.54-4.05,1.94-5.28c0.41,0.58,1.02,1.34,1.89,2.11c1.28,1.13,2.15,1.41,2.26,2.26
	c0.06,0.47-0.17,0.66-0.68,1.82c-0.4,0.93-0.47,1.31-0.85,2.47c-0.61,1.84-2.46,6.67-3.38,9.3c-0.41,1.18-5.92,12.38-6.46,13.63
	c-0.53,1.24-3.85,7.29-5.21,8.41c-1.36,1.13-3.5,3.26-4.09,3.85c-0.59,0.59-2.96,1.42-5.04,1.54c-2.07,0.12-3.26-0.24-3.67-0.53
	c-0.41-0.3-0.71-3.02-0.95-4.5c-0.24-1.48-1.36-3.26-2.43-3.5c-1.07-0.24-5.98-0.36-6.81,1.01c-0.05,0.09-1.72,1.88-1.42,4.21
	c0.32,2.47,2.68,4.44,3.27,4.93c0.98,0.82,2.32,1.63,2.13,2.29c-0.05,0.19-0.21,0.29-0.3,0.36c0,0-2.56,1.77-4.09,3.67
	c-0.6,0.74-0.65,1.06-0.55,1.25c0.16,0.3,0.71,0.29,0.94,0.29c2.33-0.03,4.67,0.05,7,0.03c2.02-0.02,3.08,0.15,4.49-0.58
	c0.45-0.23,0.76-0.47,0.97-0.63c2.24-1.7,1.85-3.33,3.64-4.57c0.4-0.28,1.16-0.55,2.69-1.1c0.83-0.3,1.68-0.57,2.22-0.72
	c0.51-0.14,2.45-0.63,7.37-0.2c2.39,0.21,3.59,0.31,4.16,0.55c1.8,0.75,2.62,1.92,5.39,3.97c0.2,0.15,0.61,0.45,1.12,0.92
	c1.02,0.95,0.91,1.18,1.37,1.48c1.15,0.75,2.18-0.46,4.15,0.14c0.35,0.11,0.77,0.34,1.62,0.82c0.74,0.42,1.59,0.9,2.56,1.71
	c1.14,0.94,1.16,1.27,2.25,2.28c0.08,0.07,0.27,0.25,0.44,0.53c0.21,0.35,0.39,0.85,0.33,1.08c-0.21,0.9-4.77,0.56-6.23,0.43
	c-6.29-0.53-7.53-1.4-8.23-2.13c-0.7-0.73-0.48-0.92-1.42-1.96c-0.55-0.61-2.1-2.17-4.56-3.05c-3.77-1.34-7.17-0.15-8.32,0.33
	c-2.26,0.94-3.86,2.47-5.09,3.64c-1.16,1.11-1.2,1.38-1.81,1.94c0,0-2.58,2.37-15.61,0.73l-12.44-0.06L49.68,251.85z"/>
<path class="st2" d="M106.79,229.1c0-1.75,0.15-3.82,0.59-6.1c0.83-4.22,2.37-7.54,3.69-9.82c1.3-2.72,1.94-5.04,2.3-6.71
	c0.41-1.93,0.38-2.8,1.14-3.31c0.87-0.59,1.78-0.06,6.85,1.87c3.06,1.16,4.22,1.54,4.4,2.51c0.14,0.75-0.25,2.07-1.01,2.07
	c-1.13,0-1.95,0.18-3.08,0.3c-1.13,0.12-1.13,0.24-2.07,0.3c-0.87,0.05-1.18,2.72-1.18,2.73c-0.39,1.06-1.5,4.12-2.49,7.18
	c-0.29,0.9-0.68,2.13-1.05,3.75c-0.21,0.91-0.31,1.37-0.35,1.75c-0.26,2.44,0.58,3.71-0.17,4.42c-0.12,0.11-0.13,0.07-1.18,0.79
	c-0.29,0.2-0.53,0.37-0.67,0.47c-0.37,0.26-0.96,0.68-1.64,1.21c-0.72,0.56-1.08,0.84-1.37,1.14c-0.54,0.55-0.64,0.82-1.09,1.39
	c-0.23,0.29-1.56,2-2.08,1.84C105.89,236.73,105.7,235.24,106.79,229.1z"/>
<path class="st2" d="M201.27,246.3c0.18-0.24,3.14-3.44,4.68-4.74c1.54-1.3,4.09-2.07,5.09-2.25c1.01-0.18,6.58-0.12,8.53,0
	c1.95,0.12,4.09,0.24,5.63,1.72c1.13,1.08,3.02,3.16,4.56,4.56c0.36,0.33,0.89,0.78,1.63,0.94c0.32,0.07,0.78,0.12,1.04,0.15
	c0.09,0.01,0.54,0.05,1.04,0.07c1.27,0.04,3.62-0.06,4.76-0.12c0,0,1.75-0.08,3.45-0.17c0.12-0.01,0.37-0.02,0.87-0.05
	c1.72-0.1,0.46-0.03,0.89-0.06c0.1-0.01,0.21-0.02,0.31-0.03c0.12-0.01,0.16,0,0.23-0.03c0,0,0.12-0.05,0.19-0.18
	c0.17-0.33-1.91-1.72-1.91-1.72c0,0-2.49-1.67-3.85-3.2c-0.11-0.13-0.17-0.23-0.16-0.32c0.02-0.48,0.78-0.69,2.06-1.69
	c0.47-0.37,0.8-0.67,1.44-1.28c0,0,0.23-0.21,0.55-0.58c0.24-0.28,0.3-0.37,0.34-0.44c0.12-0.22,0.17-0.41,0.22-0.65
	c0,0,0.06-0.28,0.08-0.53c0.37-4.2-0.97-5.95-0.97-5.95c-0.37-0.48-1.55-1.9-3.32-1.9c-1.07,0-2.49,0.53-3.26,1.36
	c-0.77,0.83-2.13,1.9-2.31,2.9c-0.18,1.01-0.77,4.03-0.83,4.5c-0.06,0.47-0.18,0.59-1.36,0.71c-1.18,0.12-6.66-1.56-8.04-2.5
	c-1.38-0.94-3.45-3.07-4.7-5.03c-1.24-1.95-5.51-7.52-6.16-9.06c-0.71-1.68-0.6-1.54-2.9-6.69c-0.53-1.18-1-2.23-1.61-3.78
	c-0.89-2.29-0.83-2.51-1.47-4.16c-1.72-4.45-3.14-5.46-2.52-6.88c0.23-0.54,0.94-1.07,2.35-2.13c1.15-0.87,1.72-1.3,2.19-1.25
	c0.43,0.04,1.41,0.4,2.9,5.35c0.76,2.52,0.55,3.39,1.29,5.37c0.67,1.8,2.57,7.1,3.14,8.38c0.57,1.28,3.01,6.55,3.1,6.73
	c0.09,0.18,2.68,4.37,2.85,4.62c0.63,0.93,1.24,1.82,2.39,2.39c0.72,0.36,2.08,0.81,2.66,0.25c0.1-0.1,0.09-0.14,0.26-0.48
	c0.41-0.82,0.6-0.83,1.11-1.68c0.44-0.74,0.5-1.07,0.93-1.57c0.24-0.28,0.46-0.48,0.46-0.48c0.29-0.26,0.65-0.53,0.65-0.53
	c0.57-0.38,1.35-0.81,2.33-1.1c0.82-0.25,1.51-0.31,1.88-0.34c0.41-0.03,0.88-0.02,2.34,0.17c1.32,0.18,1.24,0.22,2.98,0.48
	c0.91,0.14,1.8,0.37,2.71,0.51c0.21,0.03,0.66,0.1,1.21,0.33c0.38,0.17,0.67,0.36,0.86,0.5c0.32,0.24,0.73,0.56,1.21,1.11
	c0.84,0.97,1.43,2.03,1.74,2.65c0.26,0.59,0.52,1.17,0.78,1.76c0.04,0.1,0.1,0.26,0.14,0.47c0.04,0.23,0.04,0.41,0.04,0.46
	c0,0.27,0.05,1.01,0.21,2.73c0.41,1.65,0.19,2.69-0.12,3.34c-0.14,0.3-0.65,1.28-1.01,2.55c-0.06,0.23-0.1,0.37-0.11,0.55
	c-0.04,0.64,0.2,1.23,0.83,2.12c0.27,0.39,0.58,0.78,1.4,1.67c1.11,1.21,2.22,2.32,2.22,2.32c1.39,1.11,2.15,1.7,2.52,1.97
	c0.06,0.05,0.25,0.18,0.48,0.39c0.28,0.25,0.49,0.48,0.62,0.64c0.05,0.02,0.94,0.47,0.91,1.13c-0.01,0.3-0.19,0.5-0.38,0.71
	c-0.68,0.74-1.67,0.91-2.33,1.01c-0.58,0.09-1.01,0.09-1.04,0.09c-1.25-0.01-4.72-0.03-9.46-0.07c-2.95-0.33-5.37-0.32-7.06-0.23
	c-4.75,0.23-7.75,1.18-9.49-0.44c-0.32-0.3-1.31-1.34-2.31-2.55c-0.73-0.88-0.72-0.94-1.07-1.33c-0.31-0.35-1.9-2.08-4.39-2.74
	c-0.44-0.12-1.75-0.17-4.35-0.27c-0.74-0.03-1.24-0.04-1.91,0.01c-1.25,0.1-2.17,0.17-3.05,0.68c-0.23,0.14-0.43,0.28-1.96,2.17
	c-1.24,1.52-1.31,1.68-1.88,2.34c-1.19,1.36-1.78,2.04-2.39,2.33c-0.91,0.43-1.48,0.25-4.47,0.12c-1.03-0.04-2.06-0.03-3.09-0.08
	c-1.83-0.08-4.62-0.17-8.74-0.21c-1.19-0.02-5.07-0.06-5.38-0.32c-0.31-0.27,0.11-0.14,1.18-1.32c1.07-1.18,1.82-1.95,2.83-3.29
	c1.01-1.34,3.81-5.3,3.81-5.3l2.06-3.59c0,0,0.67-1.73,1-4.26c0.34-2.53,0.31-4.61,0.25-5.49c-0.06-0.89-0.24-3.02-0.34-3.8
	c-0.1-0.78-1.06-4.16-1.31-4.9c-0.8-2.35-0.68-2.64-1.25-4.56c-0.54-1.82-0.92-2.93-1.55-4.2c-0.38-0.77-0.75-1.38-1-1.79
	c0.92-0.22,2.13-0.62,3.35-1.43c0.72-0.47,0.91-0.74,1.36-0.76c1.52-0.07,2.79,2.76,3.2,3.67c0.58,1.28,0.86,3.2,1.36,4.53
	c0.02,0.05,0.08,0.23,0.17,0.47c0.24,0.7,0.41,1.28,0.52,1.7c1.37,3.7,2.08,6.73,2.31,8.46c0.23,1.73,0.23,3.28,0.23,3.28
	c0,0.52-0.02,1.09-0.06,1.69c-0.05,0.66-0.24,2.92-0.88,4.92c-1.42,4.4-4.95,7.21-6.69,8.41c0,0-2.49,2.13-1.9,2.37
	c2.46,0.99,5.39,0.53,5.39,0.53C197.03,246.92,198.85,246.65,201.27,246.3z"/>
<path class="st0" d="M191.71,207.47c2.31,2.65,3.28,4.68,3.73,6.08c0.13,0.41,0.49,1.59,1.09,3.32c0.39,1.11,0.72,2.01,0.95,2.59
	c0.46,1.45,0.91,2.9,1.37,4.35c0,0,0.12,1.01,0.23,2.32c0.07,0.91,0.18,2.46,0.13,4.1c-0.08,2.29-0.13,3.85-0.9,5.59
	c-0.38,0.86-1.15,2.24-2.74,3.59c-1.34,1.61-2.68,3.21-4.01,4.82c-0.71,0.78-1.42,1.56-2.13,2.34c0.31,0.22,0.79,0.53,1.43,0.77
	c1.72,0.66,3.17,0.37,6.82-0.26c3.78-0.65,3.65-0.58,3.86-0.68c2.06-0.96,1.86-2.14,5.03-4.73c1.79-1.46,2.85-1.91,3.69-2.1
	c0.4-0.09,1.29-0.26,2.4-0.3c0.68-0.02,1.17,0.01,1.49,0.03c1.83,0.11,1.93-0.03,5.2,0.05c0.53,0.01,1.92,0.05,3.37,0.39
	c0.3,0.07,0.67,0.17,1.11,0.38c0.47,0.22,0.9,0.52,1.54,1.12c0.84,0.79,1.38,1.49,1.42,1.53c0.81,1.04,2.63,2.96,4.41,3.76
	c1.17,0.53,1.01,0.46,4.8,0.26c0.94-0.05,7.62-0.32,8.06-0.44c0.43-0.12,0.05-0.6-0.42-0.96c-0.48-0.35-2.93-2.13-3.7-2.8
	c-0.76-0.66-1.66-1.65-1.57-1.78s1.33-1.03,2.01-1.57c0.66-0.52,1.82-1.3,2.44-2.52c0.73-1.45,0.47-2.93,0.23-4.24
	c-0.14-0.76-0.38-2.06-1.26-3.06c-0.59-0.67-1.38-1.12-1.38-1.12c-0.26-0.15-0.44-0.26-0.73-0.35c-0.93-0.3-1.78-0.04-2.13,0.08
	c-0.2,0.07-0.45,0.16-0.88,0.4c-1.1,0.61-2.26,1.25-3.03,2.57c-0.33,0.56-0.51,1.1-0.59,1.42c-0.2,0.75-0.09,0.94-0.33,2.14
	c-0.12,0.57-0.12,0.41-0.32,1.31c-0.18,0.81-0.18,0.95-0.34,1.12c-0.34,0.37-0.89,0.36-1.53,0.35c-0.55-0.01-0.96-0.11-1.77-0.3
	c-0.59-0.14-1.03-0.28-1.15-0.31c-1.42-0.43-2.13-0.65-2.79-0.93c-0.68-0.29-2.06-0.96-3.53-2.22c-0.35-0.31-0.67-0.65-1.07-1.13
	c-1.22-1.46-3.17-4.29-3.63-4.93c-0.46-0.64-4-5.56-4.87-7.51c-0.87-1.96-2.65-6.17-3.36-7.9c-0.71-1.73-2.85-7.81-2.85-7.81
	c-0.65-1.66-1.29-3.32-1.94-4.98c-0.28,0.24-0.71,0.62-1.23,1.06c-1.98,1.7-1.89,1.58-3.84,3.23c-1.11,0.94-1.34,1.15-1.88,1.5
	c-0.42,0.27-0.82,0.49-2.08,1.09C193.83,206.51,192.87,206.96,191.71,207.47z"/>
<path class="st1" d="M118.46,226.44c0,0,0.83-4.74,1.6-6.75c0.77-2.01,0.89-5.15,1.78-5.45c0.89-0.3,11.85,0,12.26,0
	s5.81-0.89,5.81-0.89l0.77-1.36c0,0-2.96-0.24-5.27-0.95c-2.31-0.71-4.09-1.3-6.52-1.72c-2.43-0.41-3-1.38-3-1.38l-1.51,1.38
	c-1.13-0.18-3.57-0.41-5.15,1.07c-0.79,0.74-1.06,1.62-1.22,2.14c-0.84,2.79-1.81,6.12-2.87,9.94l-0.99,4.92v2.42
	c0.44-0.01,1.39-0.1,2.35-0.71C117.92,228.2,118.36,226.81,118.46,226.44z"/>
<path class="st3" d="M109.74,238.11c0,0-1.98-2.09-1.2-3.42c0.78-1.33,5.19-4.25,5.62-4.53c0.43-0.28,2.96-1.95,4.16-2.49
	c1.2-0.53,2.62,0.49,3.24,0.8s1.16,0.71,0.49,1.24c-0.67,0.53-1.91,1.07-0.98,1.38s1.64,0.93,2.8,0.98c1.16,0.04,0.8-1,2.84,0.75
	c2.04,1.74,3.02,3.34,4,4.36c0.98,1.02,1.95,1.95,0.71,2.8c-1.24,0.84-2.4,2.44-2.4,2.89c0,0.44-0.04,1.33,1.24,1.07
	s1.2-0.93,2.84-1.29s2.31-1.02,3.42-0.98c1.11,0.04,1.2-0.4,0,1.2s-1.69,1.47-1.6,3.11c0.09,1.64-1.6,2.89,0.4,2.89
	c2,0,2.89,0,3.47-1.33c0.58-1.33-0.36-2.22,1.11-2.04c1.47,0.18,2.31-0.27,3.29,1.07s3.87,3.82,5.6,5.73
	c1.73,1.91,10.43,8.86,11.02,9.38c0.59,0.51,0.15,1.2-1.1,1.84c-1.25,0.64-4.23,3.53-4.94,4.29c-0.71,0.76-2.83,2.11-3.53,2.59
	c-0.7,0.48-3.87,2.47-4.17,2.45c-0.29-0.02-3.14-1.21-3.76-2.19c-0.62-0.98-3.47-4.66-3.98-5.13c-0.51-0.46-6.55-5.61-6.55-5.61
	l-7.06-6.37l-5.27-5.4l-4.29-5.12c0,0-3.16-3.13-3.6-3.4C111.12,239.33,109.74,238.11,109.74,238.11z"/>
<path class="st0" d="M112.45,170.84c0.19-0.19,8.01-18.99,8.01-18.99l7.08-20.18l7.82-20.87c0,0,0.73-1.33,1.53-3.05
	c0.56-1.21,1.39-3.11,1.95-5.39c0.16-0.67,1.63-6.93-0.47-9.18c-0.74-0.79-1.64-1.1-1.64-1.1c-0.84-0.29-1.56-0.2-1.88-0.17
	c-0.88,0.09-4.07,0.43-6.45-0.48c-0.41-0.16-2.57-0.98-3.15-2.87c-0.08-0.26-0.3-1.01-0.01-1.81c0.27-0.74,0.92-1.31,1.87-1.75
	c1.61-0.75,4.97-1.5,6.27-1.19c1.3,0.31,4.22,2,5.15,2.94c0.93,0.94,3.48,2.44,4.41,3c0.93,0.56,5.84,2,8.2,2
	c2.36,0,10-0.25,11.61-1c1.61-0.75,5.84-4.94,7.14-6.12c1.3-1.19,5.53-1.27,7.26-0.88c1.74,0.39,2.86,0.82,3.17,2.76
	c0.1,0.62,0.41,1.69,0.09,2.65c-0.62,1.85-3.14,2.47-3.79,2.62c-1.99,0.48-2.35-0.28-4.98,0.1c-1.53,0.22-2.92,0.42-3.87,1.56
	c-0.91,1.09-0.94,2.54-0.98,3c-0.05,0.6,0.02,1.3,0.3,2.12c0.87,2.56,3.73,10.68,5.09,13.18c1.37,2.5,7.76,20.06,7.82,20.24
	c0.06,0.19-0.74,1.19-2.42,3.12s-3.41,4.12-4.35,5.19c-0.44,0.51-0.33,1.37-0.81,1.5c-0.3,0.08-0.82-0.06-1.8-1.35
	c-1.97-2.62-2.39-5.32-2.39-5.32c0-0.03-1.51-4.85-4.54-14.5c-0.78-2.48-2.27-6.24-4.93-10.15c-0.53-0.79-1.53-1.99-3.11-2.48
	c-2.7-0.84-5.63,0.7-6.46,1.62c-1.68,1.87-23.59,61.23-23.59,61.23s-1.24,0.69-4.47,0.69c-3.23,0-8.69,0-8.69,0V170.84z"/>
<path class="st2" d="M126.82,167.79c0,0,5.75-16.05,6.34-17.89c0.59-1.84,3.79-11.08,3.79-11.08s4.24-12.74,4.32-12.93
	s2.96-6.74,2.96-6.74l2.98-6.39c0.14-0.61,0.65-2.43,2.37-3.78c2.46-1.92,5.35-1.26,5.75-1.16c1.55,0.38,2.57,1.23,2.98,1.61
	c0.91,0.84,1.36,1.73,1.55,2.13c4.63,9.47,5.53,12.53,5.53,12.53c1.98,6.7,1.24,7.84,3.41,12.19c1.05,2.09,0.56,3.01,1.72,3.78
	c0.18,0.12-3.44,9.48-3.85,10.72c-0.41,1.24-1.48,2.25-1.48,2.25s-0.95-1.9-1.84-4.27c-1.68-4.49-1.73-5.87-3.26-11.06
	c-2.91-9.89-4.84-11.2-5.21-14.96c-0.05-0.51-0.2-2.42-0.93-2.58c-0.13-0.03-0.42,0.01-1.03,0.64c-1.36,1.42-2.84,7.35-3.61,9
	c-0.77,1.66-4.8,15.64-5.92,18.6c-1.13,2.96-4.44,11.55-5.09,13.45s-0.53,2.67-1.54,3.2s-7.17,2.49-8.18,2.73
	C127.59,168.02,126.82,167.79,126.82,167.79z"/>
<path class="st2" d="M109.04,166.37c0.6,0.34,1.51,0.78,2.7,1c0.9,0.17,1.69,0.17,2.28,0.12c2.32-5.46,4.64-10.93,6.96-16.39
	c0,0,2.2-5.94,3.25-8.91c1.05-2.97,4.86-13.66,5.41-15.11c0.55-1.45,4.81-12.75,4.81-12.75s4.72-11.51,4.85-12.43
	c0.13-0.92,0.53-5.58,0.36-6.73c-0.15-0.98-0.59-2.05-1.58-2.76c-0.89-0.64-1.99-0.65-4.15-0.64c-2.22,0.01-2.44,0.29-3.85,0.05
	c-1.01-0.17-1.64-0.5-2.9-1.16c-0.29-0.15-0.74-0.4-0.95-0.89c-0.1-0.23-0.12-0.46-0.11-0.77c0.03-0.97,0.14-2.04,0.7-2.29
	c0.56-0.25,2.13-0.97,2.52-1.09c0.39-0.11,2.9-0.76,3.78-0.7c0.87,0.06,2.26,0.23,2.93,0.94c0.67,0.71,3.76,2.73,5.22,3.63
	c1.46,0.9,4.08,2.03,5.71,2.39c1.63,0.36,3.81,0.66,5.46,0.61c1.64-0.05,7.58,0.07,9.11-0.77c1.53-0.84,3.43-2.4,4.12-3.03
	c0.69-0.63,2.54-2.83,3.59-3.22c1.05-0.39,3.49-0.85,4.73-0.74c1.25,0.11,2.78,0.06,3.56,0.81c0.78,0.74,1.17,1.19,1.31,2.52
	c0.14,1.32,0.14,2.14-0.41,2.53s-2.42,1.02-3.71,1.07c-1.29,0.05-3.83-0.12-4.95,0.32c-1.12,0.44-2.05,0.47-2.56,1.44
	c-0.52,0.96-1.47,2.98-1.33,4.47c0.14,1.49,1.34,4.18,1.59,4.86c0,0,0.9,2.49,1.38,3.7c0.47,1.21,3.38,7.82,3.62,8.41
	c0.24,0.6,4.41,11.51,4.51,11.78c0.1,0.26,1.48,4.02,1.48,4.02s0.93-1.04,1.95-2.64c1.02-1.6,2.58-2.09,2.04-3.29
	c-0.53-1.2-2.58-3.55-3.24-5.38c-0.67-1.82-3.33-10-4.09-11.11c-0.76-1.11-2.09-7.38-2.84-8.62c-0.76-1.24,2.44-0.93,4.13-1.11
	c0,0,3.78-0.31,4.8-1.33c1.02-1.02,3.15-3.87,3.42-5.02c0.27-1.16-0.04-6.84-0.62-7.73c-0.58-0.89-5.02-4.58-6.26-4.89
	c-1.24-0.31-11.08-0.78-12.14-0.49c-1.07,0.3-2.9,2.49-3.67,3.38c-0.77,0.89-1.95,2.25-3.2,2.78c-1.24,0.53-3.61,1.01-7.05,0.36
	c-3.44-0.65-7.29-4.73-8.71-5.24c-1.42-0.51-4.27-0.57-5.69-0.63s-7.29-0.3-8.23,0c-0.95,0.3-5.04,3.62-6.22,5.01
	c-1.77,2.08-1.2,4.7-1.13,5.54c0.09,1.09,0.34,3.97,2.5,5.78c0,0,2.64,2.2,7.59,1.81c0.12-0.01,0.44-0.01,1.09,0
	c0.81,0.01,1.2,0.03,1.53,0.3c0.05,0.04,0.18,0.15,0.27,0.32c0.41,0.72-0.32,1.86-0.43,2.11c-0.71,1.6-4.56,10.43-5.15,11.55
	c-0.59,1.13-3.85,11.79-4.68,13.27c-0.83,1.48-6.46,17.48-6.93,18.78c-2.45,6.74-4.06,11.36-6.99,18.6
	C109.91,164.27,109.39,165.52,109.04,166.37z"/>
<path class="st1" d="M120.66,123.19c0,0,4.09-9.49,4.44-10.44c0.36-0.95,2.49-8.18,2.73-9.24c0.24-1.07-2.67-2.13-3.58-2.55
	c-0.92-0.41-3.41-2.61-4.35-3.44c-0.95-0.83-2.37-4.27-3.08-5.81c-0.71-1.54,0.06-6.16,0.77-7.58c0.71-1.42,2.9-4.86,2.9-5.75
	c0-0.89-0.47-0.89-1.6-1.84c-1.13-0.95-0.89-2.31,1.13-1.3c2.01,1.01,4.86,1.9,6.52,2.19c1.66,0.3,3.02,0.71,2.84,1.18
	c-0.18,0.47-1.77,1.97-1.77,1.97l-4.04,3.36c-0.38,0.34-0.89,0.87-1.29,1.64c-1.31,2.49-0.33,5.2,0.37,7.14
	c0.96,2.67,2.12,3.43,2.4,3.61c0.41,0.26,0.83,0.38,1.68,0.64c1.55,0.47,3.25,0.98,5.34,0.83c1.42-0.1,2.01-0.43,2.49,0
	c0.59,0.54,0.36,1.7,0.26,2.21c-0.31,1.53-1.15,1.98-2.4,4.78c-0.02,0.05-0.04,0.1-0.09,0.2c-1.75,3.99-4.58,12.21-5.92,16.06
	c-0.8,2.32-1.03,2.96-1.34,3.78c-1.1,2.94-1.98,4.89-2.56,6.23c-0.89,2.08-2.09,5.12-3.32,9.12c-1.67,4.63-3.34,9.26-5.01,13.88
	c-1.11,2.63-2.22,5.27-3.33,7.9c-0.56,1.48-1.12,2.96-1.68,4.44c-1.2,0.18-2.81,0.24-3.56-0.69c-1.08-1.33,0.22-3.93,1.18-6.06
	c1.38-3.05,1.22-3.29,1.58-4.89c0.66-2.92,2.99-8.82,3.19-9.29c2.43-5.63,1.5-4.35,5.13-13.1
	C117.78,129.76,119.1,126.66,120.66,123.19z"/>
<path class="st1" d="M185.94,123.19c0,0-3.26-8.9-3.97-10.02c-0.71-1.13-3.67-9.3-3.32-9.89c0.36-0.59,2.67-1.48,4.09-2.31
	c1.42-0.83,4.8-4.38,5.69-5.81s1.48-4.74,1.54-6.69s-2.13-7.17-2.84-8.59c-0.71-1.42,0-2.9,0.65-3.5c0.65-0.59-0.3-1.78-0.3-1.78
	s-2.43,0.53-3.61,1.01c-1.18,0.47-4.86,1.42-5.81,1.72c-0.11,0.03-0.19,0.09-0.25,0.15c-0.51,0.57,1.18,2.58,1.4,2.84
	c1.15,1.35,1.8,1.52,2.73,2.4c2.49,2.36,2.74,5.85,2.78,6.74c0.03,0.76,0.05,2.33-0.74,4.01c-0.21,0.45-0.48,0.89-0.82,1.33
	c-1.34,1.73-2,2.63-2.85,2.91c-0.85,0.28-4.98,0.84-5.75,0.88s-2.25-0.05-2.49,0.3c-0.56,0.83,0.71,2.22,1.9,5.99
	c0.42,1.34,0.24,1.11,0.71,2.63c0.77,2.52,1.4,3.58,2.39,6.02c1.11,2.73,0.7,2.32,1.91,5.39c2.13,5.4,3.14,5.99,3.77,5.95
	c0.05,0,0.11-0.01,0.34-0.09C184.32,124.37,185.26,123.75,185.94,123.19z"/>
<path class="st1" d="M140.03,159.31c0.12-0.3,7.71-12.38,8.65-14.28c0.94-1.9,3.79-9.95,3.91-10.13c0.12-0.18,1.13-2.25,2.37,1.9
	c1.24,4.15,3.08,9.1,3.5,9.97c0.41,0.87,5.21,6.74,5.21,6.74l1.54-0.47l-2.68-6.81l-2.57-9.06l-3.81-11.27
	c-0.53-1.81-1.07-3.61-1.6-5.42c-0.1-0.59-0.28-1.28-0.62-1.33c-0.23-0.04-0.66,0.19-1.72,2.55c-0.54,1.21-1.23,2.94-1.83,5.15
	l-1.5,4.2l-5.27,16.81l-4.26,11.2L140.03,159.31z"/>
<path d="M190.29,207.94c0,0,3.91-1.2,5.51-2.27c1.6-1.07,6.84-5.59,6.84-5.59s3.64-3.26,5.95-4.46c2.31-1.2,3.75-1.84,4.74,0.97
	c0.99,2.81,3.17,8.69,3.7,9.52c0.53,0.83,3.38,0.12,4.74,0.3s4.92,2.25,7.17,4.15c2.25,1.9,3.22,5.73,4.62,4.32
	c0.36-0.36,0.3-2.37,0.3-2.37s1.24,1.72,1.54,2.19c0.3,0.47,0-5.33,0-5.33s1.72,0.47,3.02,2.13c1.3,1.66,1.01-1.36,2.07-0.83
	c1.07,0.53,2.55,1.72,2.9,1.84c0.36,0.12,2.43,0.65,1.72,0c-0.71-0.65-4.5-6.58-4.74-7.29c-0.24-0.71-8.41-11.55-9.66-12.74
	c-1.24-1.18-9.54-7.41-9.6-7.64c-0.06-0.24,2.07-1.78,3.44-3.14c1.36-1.36,0.53-3.38,4.62-3.85c4.09-0.47,4.5-1.18,6.16,0.36
	c1.66,1.54,3.5,2.96,5.45,2.84c1.95-0.12,2.13-1.48,3.73-1.24c1.6,0.24,1.95,0.89,3.91,1.72c1.95,0.83,3.55,1.54,5.15,1.01
	c1.6-0.53,3.61-1.72,4.56-1.72s5.81,2.84,7.41,3.61c1.6,0.77,3.67,0.71,5.81,2.78c2.13,2.07,5.45,4.44,7.58,5.69
	c2.13,1.24,1.95-0.59,4.68,0.18c2.73,0.77,2.9,1.14,6.16,3.15c3.26,2.01,5.04,3.61,6.64,3.25s1.84-2.61,0.47-4.21
	c-1.36-1.6-8.06-12.44-9.12-13.68c-1.07-1.24-6.22-8.47-7.23-9.66c-1.01-1.18-1.3-3.08-2.01-3.85c-0.71-0.77-8.77-10.72-10.07-11.91
	c-1.3-1.18-7.52-8.06-8.65-8.83c-1.13-0.77-4.29-5.04-6.16-6.01c-1.87-0.98-9.77-6.84-10.84-7.55c-1.07-0.71-13.06-8.53-15.2-9.69
	c-2.13-1.16-6.66-3.73-9.15-4.44c-2.49-0.71-7.64-1.69-10.04-1.42c-3.07,0.34-7.18-0.25-12.26,0.91c-2.92,0.67-8.03,1.89-13.24,5.71
	c-5.25,3.85-8.04,8.45-9.95,11.59c-1.97,3.25-3.1,5.11-4.21,8.03c-1.62,4.28-1.69,6.87-3.41,7.38c-1.78,0.52-4-1.57-5.1-2.6
	c-1.55-1.46-2.31-2.88-2.89-3.88c-1.13-1.97-2.93-4.74-5.73-7.94c-0.36,0.99-0.94,2.49-1.75,4.28c-0.77,1.71-1.03,2.08-0.94,2.73
	c0.16,1.2,1.29,1.7,4.53,3.78c3.54,2.27,4.42,3.1,5.12,4.16c0.73,1.09,1.66,3.02,1.07,3.61c-0.5,0.5-1.81-0.27-6.27-2.14
	c-3.88-1.62-4.8-1.84-5.78-1.51c-1.33,0.45-1.76,1.56-2.91,3.34c0,0-2.59,3.99-6.74,7.28c-0.92,0.73-3.84,2.92-8.19,4.13
	c-2.6,0.72-4.55,0.77-7.42,0.84c-3.45,0.09-6.98,0.18-11.33-0.98c-4.99-1.33-9.01-3.75-10.22-4.49c-2.42-1.48-2.59-2.22-4.27-2.49
	c-1.69-0.27-7.02-0.18-8.89-0.27c-1.87-0.09-5.24-0.53-5.95-0.98c-0.71-0.44-2.84-1.87-3.38-1.87c-0.53,0-4-0.27-5.24,0.53
	c-1.24,0.8-1.6,2.75-2.04,4.18c-0.44,1.42-1.78,2.58,0,3.2c1.78,0.62,3.2,0.27,4.98,0.27c1.78,0,3.73,0.95,5.33,2.83
	c1.6,1.88,6.84,6.86,6.75,7.12c-0.09,0.27-0.27,0.98-1.42,0.98c-1.16,0-2.58-1.42-4.98-2.4c-2.4-0.98-6.31-3.47-7.64-3.38
	s-2.49,1.51-1.07,2.75c1.42,1.24,7.64,7.2,9.42,8.8c1.78,1.6,2.75,1.16,5.51,2.93c2.75,1.78,4.62,1.69,6.84,3.29
	c2.22,1.6,3.82,2.49,4.62,3.64c0.8,1.16,4.52,4.97,4.52,4.97c0.66,0.44,5.04,3.39,8.45,5.43c0.63,0.38,1.61,0.95,2.99,1.48
	c1.13,0.43,1.52,0.45,2.99,0.85c3.65,1.01,5.67,1.54,6.82,2.93c0.14,0.17,0.6,0.75,1.4,1.24c0.65,0.4,1.22,0.54,1.72,0.67
	c1.38,0.35,2.76,0.75,4.15,1.07c0.8,0.19,1.78,0.43,2.98,0.77c0.47,0.13,4.41,1.13,6.19,0.95c1.78-0.18,4.98-0.98,6.13-1.16
	c3.86-0.59,3.57,0.06,5.49-0.53c1.14-0.35,3.53-1.28,5.99-1.9c0.31-0.08,0.9-0.22,1.58-0.02c0.48,0.14,0.93,0.44,1.94,1.73
	c1.52,1.96,1.83,3,3.01,3.3c0.29,0.07,0.52,0.08,0.66,0.07c1.35-0.01,1.74-0.96,3.28-1.69c0.87-0.41,1.64-0.53,2.85-0.71
	c0.67-0.1,1.24-0.14,2.17-0.17c2.84-0.1,2.9,0.1,4.31-0.01c2.04-0.15,1.94-0.89,4.96-0.89c1.09,0,2.51-0.27,2.51-0.27l3.36-1.24
	L190.29,207.94z"/>
<path d="M107.11,158.99c0.02-0.07,2.32-6.59,2.34-6.66c0.11-0.31,4.89-13.91,5-14.22c2.65-6.32,5.29-12.64,7.94-18.97
	c0,0-7.42-6.51-8.37-6.87c-0.95-0.36-2.37-1.54-6.4-2.01c-4.03-0.47-3.67,1.07-6.4-1.78c-2.73-2.84-10.31-7.43-12.32-8.75
	c-2.01-1.32-9.24-3.57-12.2-3.81c-2.96-0.24-9-1.3-11.37-1.66c-2.37-0.36-5.09-2.61-7.11-3.08c-2.01-0.47-17.06-2.61-20.26-2.13
	c-3.2,0.47-9.83,1.54-12.2,2.49s-13.51,4.98-14.81,6.28c-1.3,1.3-3.79,3.2-3.44,5.45s0.24,4.27,2.13,5.33
	c1.9,1.07,2.13,0.95,4.74-0.24c2.61-1.18,2.84-3.2,6.4-3.44c3.55-0.24,9.12-0.12,12.09,0.83c2.96,0.95,10.31,1.54,13.74,2.84
	c3.44,1.3,7.58,2.61,9.72,4.27c2.13,1.66,10.07,7.35,11.85,9.24c1.78,1.9,7.58,7.23,8.65,8.53c1.07,1.3,5.09,4.86,6.4,7.11
	c1.3,2.25,3.55,5.57,5.69,8c2.13,2.43,4.86,6.37,9.12,8.78c2.71,1.53,3.51,1.99,4.21,2.34c0.42,0.21,0.9,0.41,1.48,0.66
	C105.13,158.16,106.3,158.65,107.11,158.99z"/>
<path class="st4" d="M134.22,170.45c0,0,2.32,1.92,3.15,4.39c0.83,2.48,3.2,7.78,3.32,9.13s1.54,10,1.72,12.01
	c0.18,2.01,0.12,4.38-1.13,5.92c-1.24,1.54-3.26,2.01-5.45,2.25s-1.95-0.22,0.18,1.52c2.13,1.74,3.79,2.81,3.08,2.93
	c-0.71,0.11-1.84-0.27-3.08-0.67s-2.78-1.92-3.85-2.26c-1.07-0.33-4.38-1.59-7.58-2.21c-3.2-0.61-7.52-2.77-8.77-3.29
	c-1.24-0.52-8.77-3.77-11.37-5.49s-3.08-3.86-4.56-4.84c-1.48-0.98-7.52-5.72-8.83-6.55c-1.3-0.83-3.61-0.89-6.1-2.49
	s-6.99-5.63-8.12-6.93c-1.13-1.3,0.71-1.24,2.55-0.06c1.84,1.18,3.2,2.07,5.98,2.73c2.78,0.65,5.75,1.54,5.81,0.47
	c0.06-1.07-0.3-1.6-2.19-3.44c-1.9-1.84-4.56-4.32-6.52-6.58c-1.95-2.25-1.72-3.85-3.97-3.97c-2.25-0.12-2.55,0.77-3.67,0.41
	s-2.55-1.07-1.42-1.84s1.07-1.84,2.67-1.78c1.6,0.06,2.61-1.13,4.15,0s-0.07,1.42,2.72,1.6c2.79,0.18,9.76-0.12,11.37,0.12
	c1.61,0.24,1.02-0.77,4.34,1.54c3.32,2.31,3.97,3.3,6.58,4.32c2.61,1.01,3.85,1.96,6.75,2.73s5.69,0.95,9.48,1.13
	c3.79,0.18,9.95,0.41,11.2-0.06S134.22,170.45,134.22,170.45z"/>
<path d="M92.23,168.48c1.91,0.72,3.47,1.25,4.62,1.96c1.16,0.71,1.95,2.4,4.09,3.64c2.13,1.24,7.33,3.95,7.91,4
	c0.58,0.04-0.62,0.49-2,0c-1.38-0.49-2.31-0.76-4.13-1.78c-1.82-1.02-1.82-1.42-3.69-1.42s-4.13-0.09-5.86-0.67
	s-2.67-1.11-2.13-2.13C91.57,171.06,92.23,168.48,92.23,168.48z"/>
<path d="M107.43,171.53c0.36,0.24,4.4,2.78,5.82,2.91c1.42,0.13,8.89,0.98,9.95,0.76c1.07-0.22-0.87-1.23-2.92-1.81
	c-2.05-0.59-9.3-1.78-10.81-2.23c-1.51-0.44-3.77-1.02-3.59-0.53c0.17,0.49,1.95,0.91,1.95,0.91H107.43z"/>
<path d="M100.51,181.1c0.89,0.55,5.98,4.52,7.05,5.76s2.78,4.03,1.6,3.67s-4.32-1.42-5.92-2.9s-4.09-4.56-4.32-5.51
	C98.68,181.17,100.51,181.1,100.51,181.1z"/>
<path d="M104.23,191.16c0.4,0.29,6.27,4.29,6.98,4.47c0.71,0.18,2.4-0.88,0-2.17c-2.4-1.29-5.15-3.34-5.95-3.6
	C104.45,189.59,104.23,191.16,104.23,191.16z"/>
<path d="M95.21,167.42c0.53,0.13,2.83,0.84,3.68,1.73s1.92,2.57,2.09,2.84s-2.04-0.71-2.31-1.02c-0.27-0.31-1.51-1.2-2.31-1.91
	c-0.8-0.71-1.16-1.17-1.16-1.17V167.42z"/>
<path d="M112.45,189.82c1.25,0.47,5.87,3.81,6.49,4.27s-0.44,0.33-0.44,1.55s2.04,1.85,2.67,2.74c0.62,0.89,3.29,3.05,3.29,3.05
	s-0.36,1.57-2.84-0.34s-6.63-4.15-6.92-5.16c-0.28-1.01-2.24-5.69-2.24-5.69"/>
<path d="M120.06,226.97c0.18,0,19.85-12.62,19.85-12.62l3.35-2.62l3.73-0.77l7.38-1.17l6.42-1.85l3.91,3.93l2.58,0.71l3.85-1.41
	l7.24-0.5l7.34-1.19l-0.67,4.99l0.92,4.71c0,0,1.27,2.41,1.72,4.4s1.38,7.38,0.93,9.8c-0.45,2.42-4.51,6.06-5.75,7.57
	s-9.97,10.84-11.37,12.11c-1.4,1.27-10.61,8.73-11.07,9.09c-0.46,0.37-3.76-3.06-3.76-3.06s-8.35-7.34-9.07-8.05
	s-4.67-5.88-5.32-5.82s-1.98-0.43-2.47,0.26c-0.49,0.69-0.69,2.19-1.38,2.67s-2.12,1.28-3.1,0.71c-0.97-0.57-0.31-1.17-0.5-2.02
	c-0.19-0.85-0.01-1.56,0.21-2s1.68-2.22,1.86-2.45c0.18-0.23-0.3-1.37-1.46-0.54s-3.97,1.69-4.57,1.89c-0.6,0.2-2.93-0.21-2.07-1.12
	c0.86-0.92,2.04-2.61,2.34-2.9c0.3-0.3,0.53-1.35-0.12-2.13c-0.65-0.78-4.49-5.78-5.09-5.75s-1.04,0.56-2.27,0.22
	c-1.23-0.35-3.29-0.68-2.9-1.19c0.38-0.51,1.99-1.51,1.49-1.89c-0.49-0.39-1.31-0.87-1.74-1.06
	C120.08,227.72,120.06,226.97,120.06,226.97z"/>
<path class="st5" d="M90.5,182.21c0.36-0.27,1.56-2.09,2-2.8c0.65-1.04-0.48-2.21-0.8-2.71c-3.12-4.86-4.69-7.29-4.99-7.85
	c-1.85-3.42-1.48-4.99-3.8-7.41c-0.81-0.84-1.55-1.38-2.36-1.76c-0.31-0.15-3.54-1.61-5.95,0c-0.1,0.07-1.97,1.34-1.62,2.56
	c0.26,0.9,1.63,1.44,2.55,1.28c0.13-0.02,0.13-0.04,0.56-0.15c0,0,0.97-0.24,1.71-0.34c1.32-0.18,3.49,2.51,4.58,3.88
	c3.39,4.27,2.9,3.79,3.38,4.31c0.84,0.93,4,4.35,4.09,5.02c0.09,0.67,0.58,1.2-0.98,0.84c-1.56-0.36-3.47-0.53-4.93-1.11
	s-6.13-3.95-6.66-3.95c-0.53,0-1.56,0.6-1.56,0.79c0,0.04,0,0.09,0,0.17c0.08,1.22,1.78,2.23,1.78,2.23
	c2.99,1.96,5.31,4.86,7.39,5.7c0.17,0.07,0.84,0.33,1.71,0.8c0.45,0.25,0.63,0.38,0.81,0.48C87.95,182.51,88.88,182.72,90.5,182.21z
	"/>
<path class="st4" d="M137.15,248.15c0.53-0.18,0.8-3.91,2.93-4.8c2.13-0.89,8.53-6.13,10.49-7.55c1.95-1.42,5.51-3.82,6.22-4.8
	c0.71-0.98-0.71-2.66-2.75-1.11c-2.04,1.55-1.51,2.8-3.91,2.09c-0.52-0.15-1.5-0.35-2.01-0.97c-0.67-0.82-0.01-1.7,0.05-3.74
	c0.01-0.46,0.09-4.35-2.13-5.73c-0.4-0.25-0.66-0.41-0.89-0.31c-1.4,0.59,1.92,8.83-0.71,10.75c-0.57,0.42-1.64,0.7-2.12,0.82
	c-1.26,0.33-2.23,0.22-2.68,0.33c-3.64,0.89-9.34,3.73-5.43,3.55c3.92-0.18,6.14-1.07,7.12-0.98c0.98,0.09,0.89,0.8-2.49,2.67
	c-3.38,1.87-4.53,4.44-0.44,2.67c4.09-1.78,6.13-3.2,6.13-3.2s-7.29,6.04-7.73,6.58C136.35,244.95,137.15,248.15,137.15,248.15z"/>
<path class="st4" d="M151.46,239.41c1.18-1.07,0.95-1.9,2.37-2.49c1.42-0.59,2.84-0.71,5.98-0.71c3.14,0,6.75,3.38,7.46-0.53
	c0.39-2.13,0.27-4.87,0.17-5.53c-0.07-0.49-0.18-1.09,0.14-1.33c0.32-0.25,0.99-0.06,1.42,0.27c0.32,0.24,0.81,0.79,1.11,4.1
	c0.14,1.57,0.13,2.12,0.57,2.49c0.27,0.23,0.78,0.21,1.86,0.06c2.49-0.36,1.9-1.18,3.85-2.37c1.95-1.18,4.32-1.54,4.27-0.3
	c-0.06,1.24-1.63,2.73-3.63,4.15c-2,1.42-7.8,5.98-8.93,7.35c-1.13,1.36-5.69,4.4-7.46,5.6c-1.78,1.21-3.73,1.39-4.68,1.5
	c-0.95,0.12-2.67-0.58-0.77-1.5c1.9-0.92,8.47-4.42,10.01-6.14c1.54-1.72,2.55-2.73,0.59-2.55c-1.95,0.18-1.42,0.12-3.14,1.3
	c-1.72,1.18-3.78,2.19-5.68,2.84c-1.9,0.65-3.09,0.87-4.98,1.21s-2.67,0.39-1.6-0.85c1.07-1.24,0.49-2.49,2.82-2.96
	c2.33-0.47,4.41-1.01,7.25-1.72c2.84-0.71,5.2-1.42,4.82-1.6c-0.38-0.18-0.46-0.53-5.22-0.3c-1.91,0.1-3.35,0.14-4.41,0.17
	c-0.46,0.01-1.31,0.14-2.45,0.07C152.47,239.6,151.86,239.49,151.46,239.41z"/>
<path class="st4" d="M164.48,212.96c-0.4,0.62,0.22,2.67,0,4.89s-0.11,4.63,0.81,6.71c0.92,2.08,2.52,5.33,2.52,5.33
	s4.44-0.08,6.4-0.1s5.21,0.5,2.83-1.27c-2.38-1.78-5.4-3.14-4.69-4.24c0.71-1.09,3.25-0.55,4.69,0.29c1.44,0.84,4.55,1.64,5.53,1.46
	c0.98-0.18-5.78-3.6-7.55-4.6c-1.78-1-5.86-2.42-4-2.51s4.98,0.98,6.67,1.51s2.22-0.09,0-1.51c-2.22-1.42-5.42-2.04-4.18-3.02
	s9.04-0.44,10.12-1.69c1.08-1.24,3-2.75,1.15-2.93c-1.85-0.18-3.91-0.6-3.91-0.6s-5.37,0.6-6.99,0.87s-2.42,1.42-4.28,1.78
	c-1.87,0.36-2.98,1.12-3.53,0.53S164.48,212.96,164.48,212.96z"/>
<path class="st4" d="M141.45,215.19c0,0,0.77,4.55,2.07,5.74c1.3,1.18,4.13,1.54,6.39,2.9c2.26,1.36,3.86,1.54,4.93,1.42
	c1.07-0.12,1.5-1.3-1.62-2.84s-6.61-2.55-2.53-1.78c4.09,0.77,6.04,0.89,6.58,0.59c0.53-0.3-5.39-2.31-7.05-3.97
	c-1.66-1.66-1.15-1.84-0.84-1.9c0.31-0.06,12.28-1.07,13.05-1.13c0.77-0.06,0.36-2.01-0.41-3.02c-0.77-1.01-1.66-2.01-3.2-1.66
	c-1.54,0.36-2.95,1.86-5.84,1.42c-2.89-0.44-4.47-1.66-5.24-0.15c-0.77,1.51-2.96,2.7-3.97,3.05S141.45,215.19,141.45,215.19z"/>
<path d="M128.8,219.53"/>
<path class="st6" d="M175.01,191.2c0,0,1.27,6.28,1.64,6.74c0.36,0.46,1.5,0.18,1.64-2.23s0.09-5.6,0-6.05s0.27-1.64-0.91-1
	C176.19,189.29,175.01,191.2,175.01,191.2z"/>
<path class="st6" d="M181.33,189.07c0,0,2.21,4.67,2.27,5.89c0.06,1.21,0.03,2.49-1.14,2.19c-1.17-0.3-2.81-1.21-2.75-2.31
	c0.06-1.09-0.36-5.77-0.36-5.77H181.33z"/>
<path class="st6" d="M185.3,188.46c0,0,1.15,1.88,1.58,3.64c0.42,1.76-0.61,3.34-1.09,2.43c-0.49-0.91-3.1-4.92-3.22-5.46
	c-0.12-0.55,2.42-0.3,2.42-0.3L185.3,188.46z"/>
<path class="st6" d="M189,186.77c0.24,0.73,2.91,4.07,3.58,5.22c0.67,1.15,0.73,2.6-0.3,2.82s-2.73,0.22-3.28-0.69
	c-0.55-0.91-3.04-7.34-3.04-7.34H189z"/>
<path class="st6" d="M193.92,187.07c-0.12-1.09-1.21-2.91-2.37-2.31c-1.15,0.61-1.09,2.31-1.09,2.31l3.82,6.22
	c0,0,3.46,0.15,2.97-0.76c-0.49-0.91-2-2.67-2.31-3.46S193.92,187.07,193.92,187.07z"/>
<path class="st6" d="M199.2,186.16c-1.82-1.46-2.43-3.1-3.22-3.16s-2.26,0.49-2.1,0.79c0.16,0.3,1.37,3.95,1.43,4.13
	c0.06,0.18,2.19,2.92,2.19,2.92l1.94-1.77L199.2,186.16z"/>
<path class="st6" d="M198.26,180.11c0.05-0.01,2.95,0.75,3.26,1.66c0.36,1.07,1.18,3.2,0,3.44c-1.18,0.24-1.36,0.41-2.67-0.53
	c-1.3-0.95-2.52-2.25-2.09-3.08c0.43-0.83,0.78-2.19,1.14-2.01C198.26,179.75,198.26,180.11,198.26,180.11z"/>
<path class="st6" d="M201.22,174.92c0.27,0.09,3.55,2.84,3.69,3.55c0.13,0.71,0.93,1.29,0,1.78c-0.93,0.49-2.22,0.58-2.78,0.4
	c-0.56-0.18-3.7-1.73-3.28-2.58c0.41-0.84-0.78-2.98,0.33-3.15C200.29,174.75,201.22,174.92,201.22,174.92z"/>
<path class="st6" d="M201.76,172.58c0,0,0.04-4.27,0.38-4.44c0.33-0.18,1.1-0.06,2.05,0.83c0.95,0.89,3.08,2.55,3.2,3.61
	c0.12,1.07-0.24,3.14-0.36,3.44c-0.12,0.3-0.47,1.47-0.95,1.77c-0.47,0.3-3.55-2.95-3.55-2.95L201.76,172.58z"/>
<path class="st6" d="M204.38,166.97c0.04-0.13,2.64-5.47,3.03-5.55c0.39-0.09,1.81,0.31,2.83,1.78c1.02,1.47,3.38,3.26,3.47,4.23
	c0.09,0.97,0.58,1.99-0.58,2.84c-1.16,0.84-2.58,2.18-2.84,2.27c-0.27,0.09-2.49-0.31-2.62-0.44
	C207.53,171.95,204.38,166.97,204.38,166.97z"/>
<path class="st6" d="M208.1,159.91c0.06-0.18-0.53-4.38,1.66-3.67c2.19,0.71,10.37,8.23,10.72,8.59c0.36,0.36,0.71,2.28,0.24,2.15
	s-3.97-1.32-5.63-2.15s-3.73-2.13-4.44-2.78C209.93,161.39,208.1,159.91,208.1,159.91z"/>
<path class="st6" d="M210.47,155.23c1.13-0.71,3.79-2.67,4.8-2.25c1.01,0.41,8.65,7.05,9.66,8.59s2.07,2.72,0,2.9
	c-2.07,0.18-2.25,0.06-4.32-1.36c-2.07-1.42-4.62-3.67-5.51-4.38C214.2,158.01,210.47,155.23,210.47,155.23z"/>
<path class="st6" d="M216.92,152.44c0.65-0.36,0.28-3.91,4.02-0.77c3.74,3.14,9.78,8.57,11.15,9.73s0.83,2.72,0.24,3.13
	s-1.9-0.12-2.73-0.77c-0.83-0.65-3.5-2.73-3.97-2.96C225.16,160.56,216.92,152.44,216.92,152.44z"/>
<path class="st6" d="M222.26,150.96c0,0,4.32,0.95,4.86,1.36s3.5,1.79,5.51,3.83c2.01,2.04,5.21,7.25,5.15,7.43
	c-0.06,0.18,0.24,1.54-1.54,0c-1.78-1.54-4.98-4.27-4.98-4.27l-9-7.82c0,0,17.24,1.54,18.07,1.42c0.83-0.12,5.81,1.3,6.4,1.95
	c0.59,0.65,7.05,6.16,8.41,7.35s3.44,3.97,3.44,3.97s-3.38,1.17-4.21,0.79c-0.83-0.38-7.23-4.23-7.76-4.41
	c-0.53-0.18-4.38-0.18-5.69-0.18c-1.3,0-2.13-0.41-2.67-0.83C237.72,161.15,222.26,150.96,222.26,150.96z"/>
<path class="st6" d="M246.49,152.03c0.24,0.24,13.74,14.04,15.11,14.63c1.36,0.59,7.29,1.76,6.64,0.32
	c-0.65-1.44-2.43-4.35-4.21-5.41c-1.78-1.07-13.57-10.84-14.51-11.49c-0.95-0.65-4.62-1.24-4.74-2.49s0.06-3.08-0.65-3.5
	c-0.71-0.41-6.64-2.55-8.18-3.02c-1.54-0.47-3.2-0.95-3.61-0.77s1.66,2.37,1.95,2.49C234.58,142.9,246.49,152.03,246.49,152.03z"/>
<path class="st6" d="M249.03,147.7c0.18,0.06,11.2,8.19,12.14,8.45s1.54,0.08-0.36-1.64c-1.9-1.72-3.08-2.67-2.25-2.9
	c0.83-0.24,4.44,1.42,4.8,1.84c0.36,0.41,6.1,5.81,7.64,7.35c1.54,1.54,4.21,4.87,5.69,6.26s3.08,2.15,2.25,2.63
	c-0.83,0.47-0.89,0.83-2.67,0c-1.78-0.83-4.38-2.35-4.92-2.63s-4.21-3-4.21-3L249.03,147.7z"/>
<path class="st6" d="M262.72,169.15c0.83-0.12,6.46-0.3,7.29,0c0.83,0.3,3.26,3.61,5.39,5.57c2.13,1.95,8.18,7.94,10.31,10.13
	c2.13,2.19,3.2,4.27,4.74,5.98s3.55,4.21,3.85,4.56c0.3,0.36-0.65,2.78-1.07,2.37c-0.41-0.41-6.4-5.63-8.35-7.23
	c-1.95-1.6-20.21-19.02-20.77-19.73C263.55,170.1,262.72,169.15,262.72,169.15z"/>
<path class="st6" d="M271.72,169.27c0,0,17.12,17.77,18.48,19.14c1.36,1.36,2.84,3.55,3.08,4.09c0.24,0.53,1.54,0.77,1.54,0.77
	s-1.54-2.73-1.9-3.41c-0.36-0.68-7.82-10.34-8.89-11.76c-1.07-1.42-7.17-7.23-7.17-7.23l-3.79-1.88L271.72,169.27z"/>
<path class="st6" d="M246.72,170.18c-1.13-0.56-1.24-1.39,0.06-1.98c1.3-0.59,2.67-1.18,4.38-0.53s6.28,3.85,8.23,5.57
	s3.79,2.9,5.33,4.56c1.54,1.66,2.73,2.55,2.73,3.97c0,1.42,0.12,2.13-0.36,2.19c-0.47,0.06-0.53-0.24-3.32-1.84
	c-2.78-1.6-10.25-6.81-11.14-7.58C251.76,173.77,246.72,170.18,246.72,170.18z"/>
<path class="st6" d="M254.6,168.48c0,0,11.7,9.14,12.87,10.33c1.17,1.18,1.41,4.32,2.53,5.57c1.13,1.24,0.71,0.83,3.79,2.96
	c3.08,2.13,4.98,3.79,6.64,3.79c1.66,0,2.73-1.24,1.13-2.25c-1.6-1.01-6.52-6.62-7.76-7.75s-7.77-8.3-9.69-9.49
	c-1.92-1.18-1.15-1.24-2.99-1.72C259.28,169.44,254.6,168.48,254.6,168.48z"/>
<path class="st6" d="M233.39,166.97c0.53,0.22,13.86,8.49,14.04,9.2c0.18,0.71-0.52,1.24-1.59,1.24c-1.07,0,0.14,1.24,1.62,1.78
	s2.19,1.64,4.95,1.93c2.75,0.29,3.77,0.09,3.53-1.32c-0.24-1.41-3-5.45-4.24-5.7s-12.89-6.55-14.13-7.13s-3.64,0-3.64,0H233.39z"/>
<path class="st6" d="M224.93,168.07c0.34,0.01,7.98,6.59,9.29,7.06c1.3,0.47,4.86,2.95,6.19,2.66c1.33-0.29,4.24-0.47,2.99-1.3
	c-1.24-0.83-6.16-4.8-7.76-5.39s-6.75-3.66-7.7-4.05c-0.95-0.39-1.95-0.46-2.25-0.34c-0.3,0.12-1.01,1.36-1.01,1.36H224.93z"/>
<path class="st6" d="M214.51,169.92c0.23,0.12,3.07,1.08,4.55,2.32s3.5,2.48,5.15,2.95c1.66,0.47,3.79,1.42,5.04,1.24
	c1.24-0.18,3.2-0.93,2.01-1.59c-1.18-0.66-4.74-3.39-5.45-3.98c-0.71-0.59-1.48-1.81-1.9-1.88c-0.41-0.07-1.95-0.34-2.25,0
	c-0.3,0.34-0.72,1.82-0.72,1.82s-2.18-0.71-2.66-1.07s-1.42-0.9-1.6-0.92C216.51,168.79,214.51,169.92,214.51,169.92z"/>
<path class="st6" d="M213.89,175.49c0.25,0.24,1.79,2.49,3.69,3.61s2.67,2.73,3.85,2.14s2.43-1.78,2.37-2.49
	c-0.06-0.71-1.54-2.55-1.54-2.55s-0.77-0.3-2.13-0.71c-1.36-0.41-3.85-1.95-3.85-1.95l-2.07,0.18L213.89,175.49z"/>
<path class="st6" d="M208.63,180.46c0,0,2.78,2.01,3.08,2.25c0.3,0.24,0.85,3.33,2.79,1.25s2.06-2.99,1.12-4.16
	c-0.95-1.17-1.42-1.69-2.49-2.35c-1.07-0.66-2.07-0.03-2.31,0.37C210.59,178.21,208.63,180.46,208.63,180.46z"/>
<path class="st6" d="M204.58,184.26c0.37,1.07-0.28,2.32,1.62,2.94s2.84,2.4,3.73,0.44s1.54-2.78,0.3-3.97
	c-1.24-1.18-1.25-2.01-2.16-1.6C207.15,182.48,204.58,184.26,204.58,184.26z"/>
<path class="st6" d="M202.88,189.29c1.3,2.67,0.65,4.13,2.67,3.96c2.01-0.17,3.49-0.21,2.52-1.46s-2.85-3.62-3.48-4.28
	c-0.63-0.65-1.64-1.54-2.06-1.24C202.11,186.57,202.88,189.29,202.88,189.29z"/>
<path class="st6" d="M200.22,193.42c-0.59,1.03-1.24,1.86-0.3,2.75c0.95,0.89,0.95,2.34,2.11,1.05c1.15-1.29,1.27-2.16,1.03-3.8
	s-0.19-2.96-0.66-4.23c-0.47-1.26-1.77,0.89-1.95,1.83C200.28,191.96,200.22,193.42,200.22,193.42z"/>
<path class="st6" d="M194.83,196.1c-0.59,3.32-1.13,4.74,0,5.69c1.13,0.95,3.14,0.77,3.5-0.59c0.36-1.36,0.77-4.32,0-5.09
	c-0.77-0.77-1.17-2.13-2.19-1.6C195.12,195.04,194.83,196.1,194.83,196.1z"/>
<path class="st6" d="M189.84,198.38c1.02,2.58,0.49,3.88,1.79,4c1.3,0.12,1.35,1.31,1.8,0c0.45-1.31,0.35-3.73-0.01-4.27
	c-0.37-0.53-1.31-0.14-2.32-0.39S189.84,198.38,189.84,198.38z"/>
<path class="st6" d="M185.7,200.34c0.18,1.93,0.41,3.05,1.3,3.77s2.96,3.2,3.08,1.01c0.12-2.19-0.47-4.21-0.65-5.57
	c-0.18-1.36,0.77-2.81-0.89-2.33c-1.66,0.49-2.78,0.55-2.84,1.56C185.64,199.78,185.7,200.34,185.7,200.34z"/>
<path class="st6" d="M180.31,200.34c0,0.15-1.07,2.23,0,4.18c1.07,1.95,0.17,4.18,2.07,3.42c1.9-0.76,1.66,0.61,1.66-3.3
	c0-3.91,0.92-5.15-0.63-5.69C181.85,198.41,180.31,200.34,180.31,200.34z"/>
<path class="st6" d="M175.01,201.85c0.21,0.24-0.56,0.12,0.62,3.08c1.18,2.96,1.6,4.71,2.37,3.01c0.77-1.7,1.18-1.47,0.89-3.42
	c-0.3-1.95,0.55-3.67,0.1-3.79s-1.93-0.78-3.06-0.39S175.01,201.85,175.01,201.85z"/>
<path class="st6" d="M169.59,202.39c0.65,3.02-0.77,5.15,1.42,5.27s2.61,0.17,2.78-1.66c0.18-1.83,0.12-3.9-0.89-4.44
	C171.9,201.02,169.59,202.39,169.59,202.39z"/>
<path class="st6" d="M164.02,202.99c-0.24,2.41-1.3,3.93-0.53,5.1c0.77,1.17,1.36,2.88,2.96,2.53s2.13,0.42,2.25-2.01
	c0.12-2.43-0.06-4.59,0.18-5.62c0.24-1.02-0.83-1.32-1.95-1.44S164.02,202.99,164.02,202.99z"/>
<path class="st6" d="M161.41,190.71c-0.06,1.07-0.3,4.32,0.59,5.57c0.89,1.24,3.67,3.4,4.56,3.8c0.89,0.4,1.24-0.55,0.95-1.97
	c-0.3-1.42-1.66-3.2-1.01-4.21s0.41-1.84-0.18-2.43c-0.59-0.59-2.21-1.66-3.12-2.19C162.3,188.76,161.41,190.71,161.41,190.71z"/>
<path class="st6" d="M162.66,184.97c0.06,0.89-0.03,1.24,1.82,2.9c1.85,1.66,3.87,3.87,4.64,3.15c0.77-0.72,1.18-1.78,1.13-2.5
	c-0.06-0.71,0.36-1.19-1.33-2.31c-1.69-1.13-1.93-2.02-3.17-2.85c-1.24-0.82-1.18-1.24-1.84-0.89
	C163.25,182.83,162.66,184.97,162.66,184.97z"/>
<path class="st6" d="M168.08,178.75c1.33,2.13,2.33,3.47,3.65,3.6c1.32,0.13,1.68-1.4,3.28-2.55c1.6-1.14,0.53-2.61,0-3.34
	c-0.53-0.73-0.27-0.92-1.95-0.78c-1.69,0.14-2.58,1.28-3.47,1.77C168.7,177.95,168.08,178.75,168.08,178.75z"/>
<path class="st6" d="M176.65,174.85c0.76,2.3,2.17,4.11,2.35,4.71c0.18,0.61,2.13,3.89,3.38,3.8c1.25-0.08,3.65-1.42,3.3-2.44
	c-0.36-1.02-0.09-1.46-1.96-3.11s-2.49-3.9-3.55-4.28s-2.25-1.42-3.13-0.59C176.17,173.77,176.65,174.85,176.65,174.85z"/>
<path class="st6" d="M181.11,172.24c0.83,0.46,3.31,3.17,4.2,4.22c0.89,1.04,1.84,3.5,3.85,2.54c2.01-0.96,0.32-3.43,1.75-4.15
	c1.42-0.72,2.15-0.54,3.25-0.54s2.26-0.41,1.37-1.36c-0.89-0.95-4.09-3.48-4.53-4.12c-0.44-0.65-2.52-2.16-2.52-2.16
	s-3.31,0.77-3.95,1.23c-0.64,0.46-2.68,1.99-2.86,2.29C181.5,170.48,181.11,172.24,181.11,172.24z"/>
<path class="st6" d="M190.74,165.06c1.33,0.62,2.41,1.51,5.11,1.6s4.57,0.79,4.93,1.82c0.36,1.03,1.22,2.89,0.52,3.25
	s-0.69,2.24-2.61,1.21c-1.91-1.03-4.97-2.76-4.97-2.76l-5.25-3.52L190.74,165.06z"/>
<path class="st6" d="M193.73,161.41c2.07,0.37,2.97,0.99,5.68,0.99c2.71,0,3.74,0.18,3.75,0.89c0.02,0.71,0.43,2.13,0,2.58
	c-0.43,0.44,1,0.75-2.29,0.85s-3.91-0.2-6.7-0.77c-2.79-0.57-5.41,0.01-4.07-1.42c1.35-1.43,3.31-3.83,3.31-3.83L193.73,161.41z"/>
<path class="st6" d="M196.77,158.04c-0.16-0.36-3.26-1.6-0.91-2.4c2.35-0.8,3.55-1.68,3.55-1.68s0.82,1.28,1.89,2.19
	s3.39,1.21,3.08,2.57s-0.26,2.96,0.2,3.49c0.46,0.53,0,2.31,0,2.31s-0.97-0.67-1.42-1.25c-0.45-0.58-3.11-1.75-3.28-1.72
	S196.77,158.04,196.77,158.04z"/>
<path class="st6" d="M198.76,150.96c2.47-0.3,2.91,0.21,3-0.57c0.09-0.79-0.38-2.8-0.19-2.68c0.19,0.12,1.16-0.33,1.79,0.39
	s1.16,1.22,2.4,2.3c1.24,1.08,1.65,4.1,1.65,4.1l-1.12,1.67c0,0-2.04,0.07-2.58,0c-0.53-0.07-3.83-1.52-3.83-1.52L198.76,150.96z"/>
<path class="st6" d="M203.36,146.52c0.07,0,2.16-0.09,2.73,0.53c0.65,0.71,2.19,1.18,1.98,0.62s-0.92-2.34-0.27-2.4
	c0.65-0.06,1.3,0,2.43,0.3c1.13,0.3,2.84,2.49,3.02,2.73c0.18,0.24,1.04,2.07,0.64,2.43c-0.4,0.36-1.13,1.36-1.47,1.48
	c-0.35,0.12-2.01,0.06-2.72,0c-0.71-0.06-1.73-0.89-2.29-1.24C206.85,150.61,203.36,146.52,203.36,146.52z"/>
<path class="st6" d="M211.22,142.89c0.84,0.04,3.24,1.2,3.69,1.47c0.44,0.27-0.41-2-0.4-2.35s0.89-0.89,1.6-0.31
	c0.71,0.58,2.84,2.62,4,3.91s2.89,2.64,2.75,3.16c-0.13,0.52-0.37,1.7-1.92,1.62c-1.55-0.08-3.59-0.21-4.39-0.43
	c-0.8-0.22-2.19-1.84-2.56-2.25c-0.37-0.41-3.04-3.3-3.08-3.52c-0.04-0.22,0.4-1.07,0.4-1.07L211.22,142.89z"/>
<path class="st6" d="M218.29,140.89c1.18,0.06,4.01,1.13,4.58,1.72c0.57,0.59,3.06,2.37,3.53,3.02s2.49,2.61,2.49,2.61
	s0.95,1.93,0.41,2.15c-0.53,0.22-2.78,0.57-2.78,0.57s-2.47-2.31-3.45-3.29s-5.37-4.53-5.37-4.53L218.29,140.89z"/>
<path class="st6" d="M223.58,140.48c1.52-0.24,6.55-0.12,7.26,0.41s3.67,2.67,4.8,3.55c1.13,0.89,4.44,4.19,4.77,4.32
	c0.33,0.12,1.51,1.29,0.39,1.63s-2.73-0.16-4.03,0c-1.3,0.16-1.54-1.5-2.01-2.21c-0.47-0.71-5.29-4.86-5.29-4.86l3.48,4.38
	c0,0,1.63,2.41,1.51,2.81s-1.81,0.75-2.03,0.45c-0.22-0.3-2.65-2.61-2.65-2.61l-3.67-4.68l-2.14-1.66l-0.65-1.13L223.58,140.48z"/>
<path class="st6" d="M217.7,126.49c0,0,10.18,7.35,12.14,8.12c1.95,0.77,10.19,4.09,10.57,4.5c0.39,0.41,4.18,3.08,5.89,4.56
	c1.72,1.48,4.21,2.67,5.51,2.96c1.3,0.3,3.91-0.36,3.91-0.36s0.53-1.13-1.13-2.01c-1.66-0.89-6.22-5.73-10.25-7.66
	c-4.03-1.93-9.95-6.14-12.86-7.38c-2.9-1.24-5.09-2.9-5.86-3.08c-0.77-0.18-10.66-4.5-12.44-4.86c-1.78-0.36-12.64-1.78-14.43-0.65
	c-1.8,1.13-4.23,2.61-5.59,3.44s-5.86,3.32-6.22,3.85c-0.36,0.53-17.09,21.39-17.8,22.47c-0.71,1.08-7.55,15.37-8.8,18.09
	c-1.24,2.72-1.69,4.43-2.31,6.37c-0.62,1.95-3.38,3.7-1.42,4.96c1.95,1.25,2.58,2.5,4.09,1.12c1.51-1.38,3.2-4.67,3.78-5.25
	c0.3-0.3-0.14-0.72-0.19-1.53c-0.09-1.42,0.88-2.23,1.66-3.4c1.38-2.07,0.76-2.38,2.16-4.8c1.04-1.8,1.29-1.47,2.79-3.65
	c1.9-2.76,1.51-3.33,3.31-5.77c1.27-1.72,1.58-1.61,2.72-3.34c0.68-1.03,1.15-2.02,2.07-3.95c1.09-2.29,1.23-2.85,2.2-4.86
	c0.82-1.7,1.55-3.04,1.81-3.5c3.01-5.31,8.77-8.54,11.97-10.22c3.23-1.69,4.65-2.31,5.54-2.31c0.89,0,4.75-0.53,5.35-0.62
	c0.6-0.09,5.04-0.89,6.47-0.8C213.75,127.03,217.7,126.49,217.7,126.49z"/>
<path class="st6" d="M172.49,171.16c1.48,0.71,2.07,1.44,2.96,1.08s3.14-0.72,4.38-1.08s2.19-1.06,0.71-2.01s-3.88-2.2-4.69-2.49
	s-1.17-1.3-2.06-0.53c-0.89,0.77-1.3,4.44-1.3,4.44V171.16z"/>
<path class="st6" d="M179.25,160.71c0.65,0.86,1.07,3.17,3.61,3.97c2.55,0.8,4.09,0.47,3.5,1.17c-0.59,0.7-2.61,1.4-4.21,1.58
	s-4.64-0.65-5.25-1.12s-1.92-2.13-0.73-3.08C177.35,162.28,179.25,160.71,179.25,160.71z"/>
<path class="st6" d="M181.62,159.31c1.78,0.47,3.26,0.83,3.5,0.3s-1.84-1.78-1.95-2.78c-0.12-1.01,1.09-1.01,2.56,0
	c1.47,1.01,3.19,2.13,3.72,2.49s1.18,2.05,1.24,2.09c0.06,0.04-2.2,1.88-2.2,2.11c0,0.24-2.62,0.3-3.74-0.24
	c-1.12-0.53-3.34-1.95-3.44-2.58C181.2,160.08,181.62,159.31,181.62,159.31z"/>
<path class="st6" d="M186.48,152.27c1.24,0.7,3.66,2.42,5.56,2.24c1.9-0.18,2.88-0.57,3.81-1.11c0.93-0.54,2.53-1.49,0.34-1.85
	c-2.19-0.36-3.73,0.75-5.51-1.17c-1.78-1.91-2.07-3.1-2.9-3.04c-0.83,0.06-3.09,1.3-3.03,1.66S186.48,152.27,186.48,152.27z"/>
<path class="st6" d="M191.98,143.32c3.38,1.24,5.45,2.66,7.29,2.4s3.32-0.5,2.01-1.18c-1.3-0.68-3.55-0.8-4.38-2.75
	s-1.3-2.61-1.54-2.61s-2.31,1.13-2.73,1.72C192.22,141.48,191.98,143.32,191.98,143.32z"/>
<path class="st6" d="M200.63,137.75c3.38,1.72,6.34,3.97,7.11,4.15c0.77,0.18,1.9,0.83,0,1.42c-1.9,0.59-2.92,1.24-4.66,0.59
	c-1.74-0.65-4.31-1.6-4.33-2.07c-0.02-0.47-0.14-2.73,0.28-3.08c0.41-0.36,1.54-0.59,1.54-0.59L200.63,137.75z"/>
<path class="st6" d="M206.38,135.5c2.25,2.19,3.97,2.96,5.45,3.67s2.61,0.54,1.36,1.19s-2.28,1.01-4.52,0
	c-2.24-1.01-4.46-2.79-4.92-3.38c-0.46-0.59-1.44-1.95,0-1.72C205.19,135.5,206.38,135.5,206.38,135.5z"/>
<path class="st6" d="M211.24,137.1c6.46,1.84,8.12,2.13,8.35,2.07c0.24-0.06,0-0.95-1.54-1.84c-1.54-0.89-3.42-1.77-3.54-2.1
	c-0.13-0.33-2.08-1.28-3.27-1.16c-1.18,0.12-3.5-0.71-3.17,0.18s0.39,1.07,0.98,1.42S211.24,137.1,211.24,137.1z"/>
<path class="st6" d="M218.29,189.85c0.44,0.62,14.49,14.18,15.91,14.56s3.47,0.16,0-2.98c-3.47-3.14-14.31-12.47-14.4-13.35
	s-1.08-3.91,1.15-2.31c2.23,1.6,5.87,4.5,6.85,5.36c0.98,0.86,5.16,4.87,6.4,6.55c1.24,1.68,3.73,5.34,4.71,6.89
	c0.98,1.55,1.69,2.47,0.36,3.52s-0.62,2.91-2.4,1.49c-1.78-1.42-8.62-6.48-8.89-7.2s7.02,7.71,7.02,7.71l-0.18,3.22
	c0,0-5.51-3.64-6.31-4.71c-0.8-1.07-3.29-3.28-3.2-4.04c0.09-0.76-1.64-2.49-2.24-3.14c-0.6-0.65-7.27-8.29-7.53-9.18
	c-0.27-0.89,0.18-2.45,0.67-2.51C216.69,189.68,218.29,189.85,218.29,189.85z"/>
<path class="st6" d="M174.95,188.8c0.68-2.95,0.49-4,1.56-3.41c1.07,0.58,1.25,2.12,1.13,2.48s-0.77,1.67-1.54,1.87
	c-0.77,0.2-2.39,0.68-2.23,0.44C174.03,189.94,174.95,188.8,174.95,188.8z"/>
<path class="st6" d="M180.73,187.34c-0.06-0.95-1.24-4.45-2.07-4.86c-0.83-0.41,0.3-1.09,1.84,0.52c1.54,1.61,3.68,3.59,3.83,3.75
	s-1.99,1.83-2.52,1.71C181.26,188.34,180.73,187.34,180.73,187.34z"/>
<path class="st6" d="M167.62,184.39c0.1,0.09,2.68,2.22,3.84,2.53c1.16,0.31,2.27-0.44,1.69-1.27c-0.58-0.82-2.22-2.43-3.24-3.18
	c-1.02-0.75-2.25-1.07-2.28-1.11C167.59,181.32,167.62,184.39,167.62,184.39z"/>
<path class="st6" d="M191.33,177.45c-0.36,1.18-0.15,4.5-1.23,5.27c-1.08,0.77-3.15,2.75-0.96,1.97c2.19-0.78,4.61-2.45,5.03-3.16
	c0.42-0.71,1.12-1.77,0-2.84s-2.69-1.78-2.69-1.78L191.33,177.45z"/>
<path class="st6" d="M146.51,193.3c0.86,0.28,8.95-3.42,10.55-4.1c1.6-0.68,1.78,4.37,2.04,5.49s1.16,2.91-2.04,3.04
	c-3.2,0.13-4.98,0.11-7.82-1.13S146.51,193.3,146.51,193.3z"/>
<path class="st6" d="M150.75,201.09c0.98,0.04,6.18,0.23,7.11,0.34c0.93,0.11,2.31-0.03,3.24,0.64s0.84,1.33-0.22,1.82
	c-1.07,0.49-2.84,1.38-5.24,1.69s-4.09-0.18-4.18-0.67c-0.09-0.49,0.13-1.42-0.71-1.44c-0.84-0.02-2.93-0.29-3.6-0.29
	s0.93-0.8,0.93-0.8L150.75,201.09z"/>
<path class="st6" d="M149.15,185.39c1.18-0.13,3.32-1.29,4.98-1.21c1.66,0.08,4.86-0.75,4.92,0.46c0.06,1.21,0.12,2.22-0.77,2.63
	c-0.89,0.41-5.63,1.89-6.93,1.92c-1.3,0.03-4.09-1.45-4.83-1.92C145.77,186.8,149.15,185.39,149.15,185.39z"/>
<path class="st6" d="M149.21,179.93c0.53-0.18,4.32-4.03,5.98-5.86c1.66-1.84,3.32-3.5,3.08-5.92c-0.24-2.43-0.08-5.09-2.35-5.81
	s-5.71-0.41-8.43,0.71s-7.17,2.71-8.15,3.93c-0.98,1.22-2.22,3.24-1.33,3.65s2.43,0.12,3.14-0.18c0.71-0.3,3.26-1.24,3.14-0.41
	c-0.12,0.83-1.54,2.3-1.54,2.3s-2.07,1.55-2.25,1.79c-0.18,0.24-1.78,0.99-0.89,2.33c0.89,1.34,0.77,4.21,3.97,4.46
	s4.57,0.27,5.1-0.18C149.21,180.29,149.21,179.93,149.21,179.93z"/>
<path class="st6" d="M151.99,157.95c4.86-0.36,5.51-0.59,6.64-1.36c1.13-0.77,3.02-1.01,1.01-2.96c-2.01-1.95-2.49-4.69-4.03-4.86
	c-1.54-0.17-2.43-1.3-3.61-0.29c-1.18,1.01-6.35,4.64-3.64,4.99c2.71,0.36,6.13-0.05,5.42,1.06c-0.71,1.11-0.89,1.73-2.35,2.22
	c-1.47,0.49-1.2,2.09-0.53,2.04S151.99,157.95,151.99,157.95z"/>
<path class="st6" d="M102.14,150.94c0.36-0.09,3.55-1.16,3.38-1.78s-6.58-4.8-8.26-6.31c-1.69-1.51-7.82-9.51-8.44-10.22
	s0.89-0.89,2.58,0.62s1.51,3.91,2.49,3.91s0.44-2.31,0.36-2.84c-0.09-0.53-1.87-3.29-3.73-5.24c-1.87-1.95-4.89-5.28-5.86-5.89
	s-1.6,2.9-1.6,3.24s1.6,1.49,1.6,3.54c0,2.04-0.27,2.84,1.33,4.71c1.6,1.87,3.55,6.4,5.24,8.09s4.53,4.39,6.13,5.3
	C98.94,148.98,102.14,150.94,102.14,150.94z"/>
<path class="st6" d="M96.72,135.47c1.16,1.42,6.04,7.64,7.64,8.53c1.6,0.89,4.89,1.07,3.47,0s-4.98-4.89-5.38-5.78
	s0.23-2.18,1.74-0.47c1.51,1.71,4.98,3.75,4.98,3.75s1.87-1.54,0-2.28c-1.87-0.74-6.75-4.83-7.91-5.63c-1.16-0.8-3.29-2.4-5.15-3.55
	c-1.87-1.16-3.55-2.49-3.29-1.24s1.87,3.91,2.4,4.44C95.74,133.78,96.72,135.47,96.72,135.47z"/>
<path class="st6" d="M71.4,109.52c0.53,0.27,7.29,4.44,8.98,5.33c1.69,0.89,4.62,2.72,7.38,4.29c2.75,1.57,9.51,6.99,11.29,8.77
	c1.78,1.78,2.84,4.44,3.47,4.8s-3.47-1.6-4.89-2.49s-5.07-2.9-6.84-3.8c-1.78-0.9-3.29-1.8-5.24-3.31
	c-1.95-1.51-2.93-3.38-4.53-4.62s-2.22-1.95-4-3.2c-1.78-1.24-4.62-2.75-5.6-3.73s-2.84-2.49-2.84-3.02c0-0.53,1.78-0.27,2.22,0
	C71.22,108.81,71.4,109.52,71.4,109.52z"/>
<path class="st6" d="M94.28,119.39c0.07,0.3,5.52,2.96,7.95,5.39c2.43,2.43,5.75,5.15,6.16,5.75c0.41,0.59,0.53,1.9-1.18,1.36
	c-1.72-0.53-2.96-1.65-6.1-3.58c-3.14-1.93-10.07-9.16-10.55-9.81C90.09,117.85,94.28,119.39,94.28,119.39z"/>
<path class="st6" d="M100.93,121.4c1.6,1.3,5.63,6.16,8.23,7.88s4.62,1.54,3.79,0.53c-0.83-1.01-4.68-3.14-3.26-3.14
	c1.42,0,4.03,1.25,4.68,1.63c0.65,0.38,1.3-1.29-0.95-2.32c-2.25-1.03-5.2-3.52-7.9-4.59C102.82,120.33,100.93,121.4,100.93,121.4z"
	/>
<path class="st6" d="M94.94,112.69c-0.41-1.13,0.47-1.84,1.72-0.95s2.25,1.42,5.04,3.61c2.78,2.19,2.9,4.09,6.64,5.92
	c3.73,1.84,8.95,4.5,7.58,3.08s-5.15-4.57-5.69-5.22c-0.53-0.65-0.06-0.83,3.08,0.71s5.98,2.9,5.33,1.66
	c-0.65-1.24-0.3-2.19-3.38-4.09c-3.08-1.9-3.38-2.61-7.82-4.68c-4.44-2.07-12.2-5.04-15.94-6.64s-6.75-3.08-9.89-4.44
	c-3.14-1.36-10.72-4.09-12.5-4.21c-1.78-0.12-4.09-0.36-2.49,0.95s5.09,1.66,6.1,3.44c1.01,1.78,1.07,2.67,2.19,3.67
	c1.13,1.01,1.18,2.96,4.62,4.21c3.44,1.24,2.79,0.95,6.02,3.32s5.18,4.27,7.61,4.8c2.43,0.53,5.81,1.18,5.81-0.06
	s-0.06-1.78-1.78-3.02C95.48,113.52,94.94,112.69,94.94,112.69z"/>
<path class="st6" d="M11.41,103.51c0,0,1.3-3.61,3.08-4.92s3.73-3.73,7.23-3.5s6.81,0.83,8.77-0.47s3.02-2.43,4.62-2.61
	c1.6-0.18,4.68,1.18,7.7,2.67c3.02,1.48,7.82,2.84,7.88,3.44s-2.84,1.18-4.38,1.36c-1.54,0.18-2.37-0.12-5.45-0.41
	c-3.08-0.3-10.84-0.77-12.2-0.53s-6.87,0.47-9.06,1.3c-2.19,0.83-4.8,2.13-5.98,2.78C12.42,103.27,11.41,103.51,11.41,103.51z"/>
<path class="st6" d="M19.94,102.24c3.82-0.53,8-0.18,11.11-0.18s10.22,2.13,12.26,3.02c2.04,0.89,4.18,1.9,5.6,2.55
	s5.69,1.45,6.84,2.25c1.16,0.8,3.69,2.49,5.29,4.09c1.6,1.6,10.49,9.69,11.95,10.8s7.82,7.42,8.84,8.4c1.02,0.98,2.71-0.4,1.2-2.13
	c-1.51-1.73-9.2-8.99-10.44-10.51s-11.86-11.43-15.11-12.72c-3.24-1.29-10.8-4.35-14.88-5.38c-4.09-1.02-9.02-2.44-11.55-2.53
	C28.52,99.79,19.94,102.24,19.94,102.24z"/>
<path class="st6" d="M62.01,105.58c-2.73-1.9-4.15-2.55-6.75-4.5c-2.61-1.95-1.07-3.35,2.55-1.2c3.61,2.15,6.87,4.34,4.5,1.91
	c-2.37-2.43-12.03-6.87-15.88-7.76s-9.18-1.81-4.8-2.03c4.38-0.22,7.82-0.73,9.42,0c1.6,0.73,9.12,4.1,12.5,6.3
	c3.38,2.19,7.76,4.62,8.35,5.45c0.59,0.83-2.19,1.66-4.09,1.84C65.92,105.76,62.01,105.58,62.01,105.58z"/>
<path class="st6" d="M80.59,124.76c-0.36-0.8,0.31-3.78-1.56-5.56c-1.87-1.78-9.15-8.75-10.84-9.64c-1.69-0.89-5.86-3.06-7.15-3.91
	c-1.29-0.85-5.42-2.27-8.09-2.94c-2.67-0.67-4.35,0.27-1.87,1.47s3.55,0.67,6.62,2.93c3.07,2.27,6.31,3.95,8,5.64
	c1.69,1.69,8.89,10.49,11.33,11.69c2.44,1.2,3.15,0.47,3.33,0.31H80.59z"/>
<path class="st6" d="M137.63,164.08c0,0,2.16-5.3,2.64-6.25c0.47-0.95,7.58-12.26,8.95-13.03c1.36-0.77,4.2,1.69,5.05,2.55
	c0.85,0.85-3.59,2.15-4.33,2.78c-0.74,0.63-5.51,5.19-5.58,6.35s-1.32,4.08-3.58,6.02c-2.27,1.94-3.41,1.59-3.41,1.59H137.63z"/>
<path class="st0" d="M244.66,245.48"/>
<circle class="st7" cx="153.73" cy="50.78" r="28.17"/>
<circle class="st0" cx="153.73" cy="50.35" r="25.51"/>
<circle cx="153.73" cy="50.78" r="18.54"/>
<circle class="st8" cx="162.61" cy="44.33" r="7.5"/>
</svg>
